<svg width="18" height="12" viewBox="0 0 18 12" fill="none" xmlns="http://www.w3.org/2000/svg">
<path d="M11.2197 0.219727C11.5126 -0.0731658 11.9874 -0.0731649 12.2803 0.219727L17.2803 5.21973C17.3287 5.26812 17.366 5.32319 17.3984 5.37988C17.414 5.40703 17.4303 5.43375 17.4424 5.46289C17.4631 5.51289 17.4779 5.56459 17.4873 5.61719C17.495 5.66035 17.5 5.70462 17.5 5.75C17.5 5.79505 17.4949 5.83897 17.4873 5.88184C17.4779 5.93447 17.463 5.98609 17.4424 6.03613C17.4303 6.0653 17.4139 6.09196 17.3984 6.11914C17.366 6.17609 17.3289 6.23168 17.2803 6.28027L12.2803 11.2803C11.9874 11.5731 11.5126 11.5732 11.2197 11.2803C10.9269 10.9874 10.9269 10.5126 11.2197 10.2197L14.9395 6.5H0.75C0.335786 6.5 0 6.16421 0 5.75C0 5.33579 0.335786 5 0.75 5H14.9395L11.2197 1.28027C10.9268 0.987381 10.9268 0.51262 11.2197 0.219727Z" fill="white"/>
</svg>
