<svg width="20" height="20" viewBox="0 0 20 20" fill="none" xmlns="http://www.w3.org/2000/svg">
<path d="M9.85449 0C15.2968 0 19.709 4.41219 19.709 9.85449C19.709 15.2968 15.2968 19.709 9.85449 19.709C4.41219 19.709 4.59033e-07 15.2968 0 9.85449C0 4.41219 4.41219 1.16771e-07 9.85449 0ZM9.85449 1.375C5.17158 1.375 1.375 5.17158 1.375 9.85449C1.375 14.5374 5.17158 18.334 9.85449 18.334C14.5374 18.334 18.334 14.5374 18.334 9.85449C18.334 5.17158 14.5374 1.375 9.85449 1.375ZM12.9932 6.66406C13.2362 6.37271 13.6693 6.33344 13.9609 6.57617C14.2526 6.81925 14.2919 7.25323 14.0488 7.54492L9.46582 13.0449C9.34217 13.1932 9.16161 13.2823 8.96875 13.291C8.77601 13.2997 8.58866 13.2271 8.45215 13.0908L5.70215 10.3408C5.43366 10.0723 5.43366 9.63665 5.70215 9.36816C5.9706 9.10007 6.40544 9.09996 6.67383 9.36816L8.8916 11.5859L12.9932 6.66406Z" fill="#151433"/>
</svg>
