<svg width="103" height="98" viewBox="0 0 103 98" fill="none" xmlns="http://www.w3.org/2000/svg">
<g filter="url(#filter0_d_8_1844)">
<g filter="url(#filter1_d_8_1844)">
<g clip-path="url(#clip0_8_1844)">
<mask id="path-1-inside-1_8_1844" fill="white">
<path d="M2.88477 16C2.88477 10.3995 2.88477 7.59921 3.97461 5.47436C4.93326 3.60529 6.46293 2.09551 8.34439 1.16141C10.4833 0.0994706 13.2833 0.136125 18.8834 0.209434L61.8797 0.772286C67.4798 0.845595 70.2798 0.882249 72.4187 2.00018C74.3002 2.98355 75.8298 4.53338 76.7885 6.42755C77.8783 8.58093 77.8783 11.3812 77.8783 16.9817V59.9817C77.8783 65.5822 77.8783 68.3825 76.7885 70.5074C75.8298 72.3764 74.3002 73.8862 72.4187 74.8203C70.2798 75.8822 67.4798 75.8456 61.8797 75.7723L18.8834 75.2094C13.2833 75.1361 10.4833 75.0995 8.34439 73.9815C6.46293 72.9982 4.93326 71.4483 3.97461 69.5542C2.88477 67.4008 2.88477 64.6005 2.88477 59V16Z"/>
</mask>
<path d="M2.88477 16C2.88477 10.3995 2.88477 7.59921 3.97461 5.47436C4.93326 3.60529 6.46293 2.09551 8.34439 1.16141C10.4833 0.0994706 13.2833 0.136125 18.8834 0.209434L61.8797 0.772286C67.4798 0.845595 70.2798 0.882249 72.4187 2.00018C74.3002 2.98355 75.8298 4.53338 76.7885 6.42755C77.8783 8.58093 77.8783 11.3812 77.8783 16.9817V59.9817C77.8783 65.5822 77.8783 68.3825 76.7885 70.5074C75.8298 72.3764 74.3002 73.8862 72.4187 74.8203C70.2798 75.8822 67.4798 75.8456 61.8797 75.7723L18.8834 75.2094C13.2833 75.1361 10.4833 75.0995 8.34439 73.9815C6.46293 72.9982 4.93326 71.4483 3.97461 69.5542C2.88477 67.4008 2.88477 64.6005 2.88477 59V16Z" fill="url(#paint0_linear_8_1844)"/>
<g clip-path="url(#clip1_8_1844)">
<path d="M15.3838 12.6636C31.8824 12.8796 48.381 13.0955 65.3795 13.3181C65.3795 29.8181 65.3795 46.3181 65.3795 63.3181C48.8809 63.1021 32.3823 62.8861 15.3838 62.6636C15.3838 46.1636 15.3838 29.6636 15.3838 12.6636Z" fill="#171717"/>
<path d="M33.064 27.2134C33.1037 27.2136 33.1433 27.2138 33.1842 27.214C33.2498 27.2146 33.2498 27.2146 33.3168 27.2152C33.3627 27.2155 33.4086 27.2158 33.4559 27.2162C33.6084 27.2172 33.7609 27.2186 33.9134 27.2201C33.9659 27.2206 34.0184 27.2211 34.0709 27.2215C34.2894 27.2236 34.5078 27.2258 34.7263 27.2282C35.0392 27.2317 35.3522 27.2346 35.6652 27.2366C35.8853 27.238 36.1054 27.2402 36.3255 27.2428C36.4569 27.2444 36.5884 27.2457 36.7198 27.2462C36.8665 27.2468 37.0132 27.2489 37.1599 27.2511C37.2034 27.251 37.2468 27.251 37.2916 27.251C37.62 27.2578 37.62 27.2578 37.757 27.3699C37.8867 27.5184 37.8841 27.6172 37.8836 27.8054C37.8837 27.833 37.8837 27.8606 37.8838 27.8891C37.884 27.9826 37.8839 28.0761 37.8839 28.1697C37.884 28.237 37.8841 28.3043 37.8842 28.3717C37.8845 28.5575 37.8845 28.7433 37.8846 28.9291C37.8846 29.1292 37.8849 29.3293 37.8852 29.5294C37.8856 29.8763 37.8859 30.2233 37.8862 30.5703C37.8865 31.1184 37.8873 31.6666 37.8881 32.2147C37.8884 32.4021 37.8887 32.5895 37.8889 32.7769C37.889 32.8472 37.889 32.8472 37.8892 32.9188C37.8899 33.4523 37.8906 33.9858 37.8913 34.5192C37.8913 34.568 37.8914 34.6168 37.8915 34.667C37.8921 35.2113 37.8927 35.7556 37.8932 36.2999C37.8932 36.3243 37.8932 36.3488 37.8932 36.374C37.8934 36.5958 37.8936 36.8176 37.8938 37.0394C37.8944 37.8506 37.8955 38.6617 37.8969 39.4729C37.8978 39.9737 37.8983 40.4744 37.8984 40.9751C37.8984 41.3181 37.8989 41.6611 37.8997 42.0041C37.9002 42.2022 37.9004 42.4003 37.9002 42.5984C37.9 42.7796 37.9003 42.9608 37.901 43.142C37.9012 43.2077 37.9012 43.2734 37.901 43.339C37.9007 43.4281 37.9011 43.5171 37.9017 43.6062C37.9014 43.6319 37.9012 43.6576 37.9009 43.6841C37.9029 43.8433 37.9295 43.9432 38.027 44.0709C38.1437 44.1503 38.1704 44.1562 38.3035 44.158C38.3376 44.1587 38.3716 44.1593 38.4067 44.16C38.4629 44.1605 38.4629 44.1605 38.5202 44.161C38.56 44.1617 38.5997 44.1624 38.6407 44.163C38.7746 44.1652 38.9085 44.1668 39.0424 44.1684C39.1381 44.1698 39.2339 44.1712 39.3296 44.1727C39.5361 44.1759 39.7425 44.1788 39.949 44.1815C40.2477 44.1854 40.5465 44.1899 40.8452 44.1945C41.3301 44.202 41.815 44.2093 42.2999 44.2163C42.3435 44.2169 42.3435 44.2169 42.3879 44.2175C42.7118 44.2222 43.0357 44.2268 43.3596 44.2314C43.477 44.233 43.5944 44.2347 43.7119 44.2363C43.7408 44.2368 43.7698 44.2372 43.7997 44.2376C44.2827 44.2444 44.7656 44.2516 45.2486 44.2592C45.5466 44.2638 45.8446 44.2681 46.1426 44.2719C46.3709 44.2749 46.5992 44.2784 46.8275 44.2821C46.9212 44.2836 47.015 44.2848 47.1087 44.2858C47.2364 44.2873 47.3641 44.2894 47.4918 44.2917C47.5291 44.292 47.5664 44.2922 47.6049 44.2925C47.923 44.2995 47.923 44.2995 48.0686 44.4247C48.1455 44.5411 48.1521 44.5669 48.1529 44.698C48.1532 44.7309 48.1536 44.7637 48.154 44.7976C48.154 44.8336 48.154 44.8696 48.154 44.9067C48.1544 44.9446 48.1547 44.9826 48.155 45.0217C48.1559 45.1476 48.1562 45.2735 48.1564 45.3993C48.1568 45.4867 48.1571 45.5741 48.1575 45.6615C48.1581 45.8448 48.1584 46.0281 48.1585 46.2115C48.1587 46.4464 48.1601 46.6813 48.1618 46.9162C48.1629 47.0967 48.1631 47.2773 48.1632 47.4578C48.1633 47.5444 48.1638 47.631 48.1646 47.7176C48.1655 47.8388 48.1654 47.9599 48.1649 48.0811C48.1657 48.1348 48.1657 48.1348 48.1666 48.1895C48.1648 48.3542 48.159 48.4669 48.0533 48.5966C47.9084 48.73 47.8361 48.725 47.6405 48.7228C47.6151 48.7226 47.5897 48.7223 47.5636 48.7221C47.4778 48.7212 47.392 48.7201 47.3062 48.719C47.2444 48.7184 47.1826 48.7177 47.1208 48.7171C46.9503 48.7153 46.7798 48.7133 46.6093 48.7112C46.4256 48.709 46.242 48.7071 46.0584 48.7051C45.6146 48.7002 45.1708 48.6949 44.727 48.6896C44.6017 48.6881 44.4764 48.6866 44.3511 48.6851C43.5737 48.6758 42.7963 48.6665 42.0188 48.6568C41.8387 48.6545 41.6585 48.6523 41.4783 48.65C41.4112 48.6492 41.4112 48.6492 41.3426 48.6483C40.6169 48.6393 39.8912 48.631 39.1654 48.6231C38.4208 48.6149 37.6763 48.606 36.9317 48.5965C36.5135 48.5911 36.0952 48.5861 35.6769 48.5818C35.3208 48.5782 34.9647 48.5739 34.6085 48.5689C34.4267 48.5663 34.2449 48.564 34.0632 48.5626C33.8968 48.5612 33.7305 48.559 33.5641 48.5561C33.5039 48.5552 33.4436 48.5547 33.3834 48.5544C33.3016 48.5541 33.2198 48.5526 33.138 48.5508C33.0925 48.5502 33.0471 48.5497 33.0002 48.5491C32.8347 48.5161 32.7733 48.4553 32.6542 48.3362C32.5913 48.2097 32.6119 48.0667 32.612 47.9284C32.6119 47.8933 32.6118 47.8582 32.6117 47.822C32.6115 47.703 32.6114 47.5839 32.6114 47.4649C32.6113 47.3793 32.6111 47.2936 32.6109 47.2079C32.6105 46.9964 32.6103 46.7848 32.6102 46.5732C32.61 46.3199 32.6096 46.0665 32.6092 45.8132C32.6082 45.2009 32.6077 44.5885 32.6072 43.9762C32.607 43.7734 32.6069 43.5707 32.6067 43.3679C32.6058 42.2904 32.6049 41.2128 32.6045 40.1353C32.6044 39.8855 32.6043 39.6358 32.6041 39.3861C32.6041 39.355 32.6041 39.324 32.6041 39.2921C32.6037 38.2858 32.6025 37.2795 32.601 36.2732C32.5994 35.2392 32.5984 34.2051 32.5982 33.1711C32.5982 33.0251 32.5981 32.8792 32.5981 32.7332C32.5981 32.7045 32.5981 32.6758 32.5981 32.6462C32.5979 32.1833 32.5972 31.7205 32.5962 31.2576C32.5952 30.7926 32.595 30.3276 32.5954 29.8626C32.5956 29.6105 32.5954 29.3585 32.5945 29.1064C32.5937 28.8758 32.5937 28.6453 32.5944 28.4148C32.5945 28.3312 32.5943 28.2476 32.5938 28.164C32.5931 28.0507 32.5935 27.9374 32.5942 27.8242C32.5937 27.7914 32.5933 27.7587 32.5928 27.7249C32.595 27.5675 32.6059 27.4665 32.7066 27.343C32.8355 27.2215 32.8906 27.2121 33.064 27.2134Z" fill="#F9F9F9"/>
</g>
<path opacity="0.04" d="M38.9395 66.9988V54.9194L44.8885 50.3098L62.3749 50.5387" stroke="#151433" stroke-width="0.540865"/>
<path opacity="0.04" d="M20.1904 -13.8356L20.1904 2.93126L16.2244 7.38656L-6.85053 7.08449" stroke="#151433" stroke-width="0.540865"/>
</g>
<path d="M2.88477 0L77.8783 0.98172L2.88477 0ZM79.6282 66.0046C79.6282 72.494 74.368 77.6858 67.8792 77.6008L14.6338 76.9038C8.14497 76.8189 2.88477 71.4893 2.88477 65C2.88477 69.5564 7.36153 73.3086 12.8839 73.3809L67.8792 74.1008C72.4352 74.1605 76.1285 70.5152 76.1285 65.9588L79.6282 66.0046ZM2.88477 75V0V75ZM67.8792 0.850824C74.368 0.935767 79.6282 6.26528 79.6282 12.7546V66.0046C79.6282 72.494 74.368 77.6858 67.8792 77.6008V74.1008C72.4352 74.1605 76.1285 70.5152 76.1285 65.9588V10.9588C76.1285 5.43597 72.4352 0.910464 67.8792 0.850824Z" fill="#7350FF" mask="url(#path-1-inside-1_8_1844)"/>
</g>
</g>
<defs>
<filter id="filter0_d_8_1844" x="2.88477" y="0" width="99.2239" height="97.362" filterUnits="userSpaceOnUse" color-interpolation-filters="sRGB">
<feFlood flood-opacity="0" result="BackgroundImageFix"/>
<feColorMatrix in="SourceAlpha" type="matrix" values="0 0 0 0 0 0 0 0 0 0 0 0 0 0 0 0 0 0 127 0" result="hardAlpha"/>
<feOffset dx="14.7285" dy="11.8778"/>
<feGaussianBlur stdDeviation="4.75113"/>
<feComposite in2="hardAlpha" operator="out"/>
<feColorMatrix type="matrix" values="0 0 0 0 0 0 0 0 0 0 0 0 0 0 0 0 0 0 0.12 0"/>
<feBlend mode="normal" in2="BackgroundImageFix" result="effect1_dropShadow_8_1844"/>
<feBlend mode="normal" in="SourceGraphic" in2="effect1_dropShadow_8_1844" result="shape"/>
</filter>
<filter id="filter1_d_8_1844" x="0.000150204" y="0" width="80.7624" height="85.3569" filterUnits="userSpaceOnUse" color-interpolation-filters="sRGB">
<feFlood flood-opacity="0" result="BackgroundImageFix"/>
<feColorMatrix in="SourceAlpha" type="matrix" values="0 0 0 0 0 0 0 0 0 0 0 0 0 0 0 0 0 0 127 0" result="hardAlpha"/>
<feMorphology radius="5.76923" operator="erode" in="SourceAlpha" result="effect1_dropShadow_8_1844"/>
<feOffset dy="6.49038"/>
<feGaussianBlur stdDeviation="4.32692"/>
<feComposite in2="hardAlpha" operator="out"/>
<feColorMatrix type="matrix" values="0 0 0 0 0 0 0 0 0 0 0 0 0 0 0 0 0 0 0.25 0"/>
<feBlend mode="multiply" in2="BackgroundImageFix" result="effect1_dropShadow_8_1844"/>
<feBlend mode="normal" in="SourceGraphic" in2="effect1_dropShadow_8_1844" result="shape"/>
</filter>
<linearGradient id="paint0_linear_8_1844" x1="2.88477" y1="0" x2="77.8783" y2="75.9817" gradientUnits="userSpaceOnUse">
<stop stop-color="#F3F4FF"/>
<stop offset="1" stop-color="#F2E9FF"/>
</linearGradient>
<clipPath id="clip0_8_1844">
<path d="M2.88477 16C2.88477 10.3995 2.88477 7.59921 3.97461 5.47436C4.93326 3.60529 6.46293 2.09551 8.34439 1.16141C10.4833 0.0994706 13.2833 0.136125 18.8834 0.209434L61.8797 0.772286C67.4798 0.845595 70.2798 0.882249 72.4187 2.00018C74.3002 2.98355 75.8298 4.53338 76.7885 6.42755C77.8783 8.58093 77.8783 11.3812 77.8783 16.9817V59.9817C77.8783 65.5822 77.8783 68.3825 76.7885 70.5074C75.8298 72.3764 74.3002 73.8862 72.4187 74.8203C70.2798 75.8822 67.4798 75.8456 61.8797 75.7723L18.8834 75.2094C13.2833 75.1361 10.4833 75.0995 8.34439 73.9815C6.46293 72.9982 4.93326 71.4483 3.97461 69.5542C2.88477 67.4008 2.88477 64.6005 2.88477 59V16Z" fill="white"/>
</clipPath>
<clipPath id="clip1_8_1844">
<rect width="50" height="50" rx="4.55357" transform="matrix(0.999914 0.0130896 0 1 15.3838 12.6636)" fill="white"/>
</clipPath>
</defs>
</svg>
