<svg width="79" height="28" viewBox="0 0 79 28" fill="none" xmlns="http://www.w3.org/2000/svg">
<path d="M64.1989 28V24.3535H66.5086C67.0724 24.3535 67.4845 24.2667 67.7447 24.0931C68.0267 23.9411 68.2435 23.659 68.3953 23.2466L68.7532 22.2373H67.4194L61.3037 5.66516H66.2809L70.2821 17.6791L74.0231 5.66516H79.0002L72.299 24.7768C71.9086 25.9272 71.3448 26.752 70.6074 27.2512C69.87 27.7504 68.8399 28 67.517 28H64.1989Z" fill="#171717"/>
<path d="M44.0028 23.1162C42.2028 23.1162 40.8799 22.7038 40.0341 21.879C39.1883 21.0325 38.7654 19.6976 38.7654 17.8744V1.56274H43.6449V17.2883C43.6449 18.1348 43.8184 18.71 44.1654 19.0139C44.5341 19.3178 45.0763 19.4697 45.7919 19.4697H48.2317V23.1162H44.0028ZM35.9678 9.31158V5.66507H48.2317V9.31158H35.9678ZM55.9089 23.1162C54.1089 23.1162 52.786 22.7038 51.9402 21.879C51.0944 21.0325 50.6715 19.6976 50.6715 17.8744V1.56274H55.5511V17.2883C55.5511 18.1348 55.7246 18.71 56.0715 19.0139C56.4402 19.3178 56.9824 19.4697 57.6981 19.4697H60.1378V23.1162H55.9089ZM47.8739 9.31158V5.66507H60.1378V9.31158H47.8739Z" fill="#171717"/>
<path d="M25.7822 23.507C24.0039 23.507 22.4533 23.138 21.1304 22.4C19.8292 21.6403 18.8099 20.5767 18.0725 19.2093C17.3569 17.8419 16.999 16.2357 16.999 14.3907C16.999 12.5457 17.3569 10.9504 18.0725 9.60465C18.8099 8.2372 19.8292 7.17364 21.1304 6.41395C22.4316 5.65426 23.9714 5.27441 25.7497 5.27441C27.4846 5.27441 28.9919 5.65426 30.2714 6.41395C31.5509 7.17364 32.5377 8.25891 33.2317 9.66976C33.9473 11.0806 34.3052 12.7628 34.3052 14.7163V15.693H22.0412C22.1063 17.0822 22.475 18.1132 23.1473 18.786C23.8412 19.4589 24.7521 19.7953 25.8798 19.7953C26.7039 19.7953 27.3871 19.6217 27.9292 19.2744C28.4931 18.9271 28.8943 18.3953 29.1329 17.6791L34.0449 17.9721C33.5895 19.7085 32.6244 21.0651 31.1497 22.0419C29.675 23.0186 27.8859 23.507 25.7822 23.507ZM22.0412 12.6977H29.2955C29.2304 11.4171 28.8726 10.462 28.222 9.83255C27.5931 9.2031 26.769 8.88837 25.7497 8.88837C24.7304 8.88837 23.8846 9.2248 23.2123 9.89767C22.5617 10.5488 22.1714 11.4822 22.0412 12.6977Z" fill="#171717"/>
<path d="M0 23.1163V0H4.94462V21.7814L2.21207 18.9488H15.582V23.1163H0Z" fill="#171717"/>
</svg>
