<svg width="20" height="17" viewBox="0 0 20 17" fill="none" xmlns="http://www.w3.org/2000/svg">
<path d="M5.84469 0.0141083C6.09379 -0.0371467 6.35054 0.0535014 6.51266 0.24946L6.52144 0.260202L6.51363 0.250436L6.51656 0.253366L6.52144 0.260202L6.53609 0.27778C6.54746 0.292319 6.56237 0.312309 6.58004 0.336374C6.6153 0.38442 6.66181 0.451616 6.7148 0.535593C6.82048 0.703071 6.95455 0.942588 7.07027 1.23969C7.30133 1.83294 7.47257 2.68579 7.17574 3.64106C6.87729 4.60142 6.25606 5.18053 5.72359 5.51118C5.58658 5.59624 5.45377 5.664 5.33297 5.72016C5.14476 6.35816 5.04195 7.04873 5.04195 7.77094C5.04202 9.57988 6.28508 10.999 7.55172 12.0815C7.74066 12.243 7.81792 12.4846 7.78121 12.7133C7.79254 12.781 7.79473 12.8506 7.78512 12.9204V12.9213V12.9262L7.78316 12.934L7.77926 12.9584C7.77609 12.9776 7.77168 13.0035 7.76559 13.0346C7.75337 13.0969 7.73457 13.1822 7.70699 13.2846C7.65199 13.4889 7.56023 13.7679 7.41109 14.0707C7.11414 14.6735 6.56695 15.4148 5.59566 15.8061C4.62057 16.1989 3.72653 16.0338 3.10641 15.7915C2.79654 15.6703 2.54577 15.5266 2.37105 15.4125C2.28342 15.3554 2.21314 15.3052 2.16305 15.267C2.13805 15.248 2.11756 15.2314 2.1025 15.2192L2.08394 15.2036L2.07711 15.1977L2.07418 15.1957L2.0732 15.1948L2.52144 14.6733C1.84038 14.5795 1.83976 14.5788 1.8398 14.5786L1.84078 14.5766V14.5737L1.84176 14.5659L1.84566 14.5415C1.84883 14.5223 1.85323 14.4964 1.85934 14.4653C1.87155 14.403 1.89035 14.3177 1.91793 14.2153C1.97293 14.011 2.06469 13.732 2.21383 13.4291C2.51073 12.8264 3.05808 12.0852 4.02926 11.6938C4.37949 11.5527 4.71968 11.4838 5.04 11.4643C4.8733 11.2492 4.71517 11.0225 4.56832 10.7846L4.55758 10.7895C4.53964 10.7964 4.51624 10.8059 4.48726 10.8159C4.42929 10.8358 4.34891 10.8609 4.25094 10.8862C4.05621 10.9364 3.78293 10.9887 3.46187 10.9985C2.81378 11.0181 1.95138 10.8617 1.18355 10.1557C0.425913 9.45882 0.145825 8.58071 0.0487884 7.91743C-9.85564e-05 7.58317 -0.00463981 7.29041 0.00288999 7.07954C0.00667966 6.97356 0.0141074 6.88636 0.0204681 6.82368C0.0236234 6.79261 0.0268061 6.76737 0.0292572 6.74848L0.0321869 6.72407L0.0331634 6.71626L0.03414 6.71333V6.71137L0.713827 6.81684C0.468961 6.2317 0.449393 6.18667 0.448202 6.18305L0.449179 6.18208H0.450156L0.454062 6.18012L0.461874 6.17719L0.484335 6.16841C0.502198 6.16156 0.525818 6.15296 0.554648 6.14301C0.612621 6.12303 0.693004 6.09798 0.790976 6.0727C0.985685 6.02246 1.25888 5.96918 1.58004 5.95942C2.1931 5.94085 2.9973 6.08023 3.73238 6.69282C3.77878 6.31656 3.84982 5.94933 3.94234 5.59321C3.91028 5.54841 3.87037 5.49182 3.82711 5.42329C3.72142 5.25581 3.58837 5.01537 3.47262 4.71821C3.24154 4.12496 3.06933 3.27216 3.36617 2.31684C3.66457 1.35667 4.28592 0.778371 4.81832 0.447702C5.083 0.283342 5.32927 0.177127 5.51168 0.111765C5.60332 0.0789309 5.68038 0.0560174 5.73726 0.0404755C5.76575 0.0326929 5.78952 0.0262127 5.80758 0.0219208L5.83004 0.017038L5.83883 0.0150849L5.84176 0.0141083H5.84469ZM13.8642 0.0141083H13.8662L13.8671 0.0150849H13.8701L13.8789 0.017038L13.9013 0.0219208C13.9194 0.0262131 13.9432 0.0326927 13.9716 0.0404755C14.0285 0.0560174 14.1056 0.0789209 14.1972 0.111765C14.3796 0.177126 14.6259 0.283326 14.8906 0.447702C15.423 0.77836 16.0443 1.35667 16.3427 2.31684C16.6396 3.27214 16.4674 4.12496 16.2363 4.71821C16.1205 5.01537 15.9875 5.25581 15.8818 5.42329C15.8382 5.49239 15.7978 5.54923 15.7656 5.59419C15.858 5.95007 15.9292 6.31683 15.9755 6.69282C16.7108 6.07988 17.5157 5.94084 18.1289 5.95942C18.45 5.96919 18.7232 6.02246 18.9179 6.0727C19.0157 6.09794 19.0953 6.12305 19.1533 6.14301C19.1823 6.15302 19.2066 6.16153 19.2246 6.16841L19.247 6.17719L19.2548 6.18012L19.2578 6.18208H19.2597V6.18305C19.2578 6.18837 19.2352 6.24307 18.9951 6.81684L19.2607 6.18305C19.4535 6.26375 19.5976 6.42679 19.6552 6.62446L19.6748 6.71137V6.71333L19.6757 6.71626L19.6767 6.72407L19.6796 6.74848C19.6821 6.76737 19.6853 6.79261 19.6884 6.82368C19.6948 6.88636 19.7022 6.97356 19.706 7.07954C19.7135 7.29043 19.708 7.58312 19.6591 7.91743C19.5621 8.58084 19.2824 9.45876 18.5244 10.1557C17.7566 10.8617 16.8951 11.0181 16.247 10.9985C15.9257 10.9887 15.6518 10.9364 15.457 10.8862C15.3592 10.8609 15.2795 10.8358 15.2216 10.8159C15.1927 10.8059 15.1693 10.7964 15.1513 10.7895L15.1406 10.7846C14.9937 11.0225 14.8356 11.2492 14.6689 11.4643C14.9891 11.4838 15.3286 11.5528 15.6787 11.6938C16.6501 12.0852 17.1981 12.8263 17.4951 13.4291C17.6442 13.732 17.736 14.011 17.791 14.2153C17.8186 14.3177 17.8374 14.403 17.8496 14.4653C17.8557 14.4964 17.8601 14.5223 17.8632 14.5415L17.8671 14.5659L17.8681 14.5737V14.5766L17.8691 14.5786V14.5795C17.9009 14.8106 17.8135 15.0426 17.6367 15.1948C17.6367 15.1944 17.6267 15.1836 17.1875 14.6733L17.6357 15.1948L17.6347 15.1957L17.6318 15.1977L17.625 15.2036L17.6064 15.2192C17.5913 15.2314 17.5709 15.2479 17.5459 15.267C17.4958 15.3052 17.4255 15.3553 17.3379 15.4125C17.1632 15.5265 16.9123 15.6703 16.6025 15.7915C15.9824 16.0338 15.0883 16.1989 14.1132 15.8061C13.142 15.4148 12.5948 14.6735 12.2978 14.0707C12.1487 13.7679 12.0569 13.4889 12.0019 13.2846C11.9743 13.1822 11.9555 13.0969 11.9433 13.0346C11.9372 13.0034 11.9318 12.9776 11.9287 12.9584L11.9257 12.934L11.9238 12.9262V12.9213V12.9204C11.9142 12.8506 11.9164 12.781 11.9277 12.7133C11.891 12.4846 11.9691 12.243 12.1582 12.0815C13.4247 10.999 14.6669 9.57976 14.667 7.77094C14.667 7.0486 14.5632 6.35826 14.375 5.72016C14.2544 5.66407 14.122 5.59605 13.9853 5.51118C13.4528 5.18053 12.8316 4.60145 12.5332 3.64106C12.2363 2.68578 12.4076 1.83294 12.6386 1.23969C12.7544 0.942583 12.8884 0.703071 12.9941 0.535593C13.0471 0.451613 13.0936 0.38442 13.1289 0.336374C13.1465 0.312309 13.1614 0.292319 13.1728 0.27778L13.1875 0.260202L13.1923 0.253366L13.1962 0.24946C13.3584 0.0535145 13.6151 -0.0371246 13.8642 0.0141083ZM2.52144 14.6733C2.08203 15.1837 2.07218 15.1944 2.07223 15.1948C1.89543 15.0426 1.808 14.8106 1.8398 14.5795C1.84062 14.5799 1.86494 14.5828 2.52144 14.6733ZM6.01851 12.9887C5.61182 12.8298 5.09642 12.7467 4.54391 12.9692C3.98762 13.1933 3.65117 13.6235 3.44723 14.0375C3.38887 14.1561 3.34295 14.2699 3.30758 14.3715C3.39465 14.4187 3.49573 14.4675 3.60738 14.5112C4.01415 14.6701 4.52938 14.7534 5.08199 14.5307C5.63825 14.3066 5.97376 13.8764 6.17769 13.4624C6.23607 13.3438 6.28196 13.2301 6.31734 13.1284C6.23035 13.0812 6.13003 13.0323 6.01851 12.9887ZM15.165 12.9692C14.6124 12.7466 14.0971 12.8298 13.6904 12.9887C13.5789 13.0323 13.4786 13.0812 13.3916 13.1284C13.4269 13.2301 13.4728 13.3438 13.5312 13.4624C13.7351 13.8764 14.0706 14.3066 14.6269 14.5307C15.1795 14.7533 15.6948 14.6702 16.1015 14.5112C16.2132 14.4675 16.3143 14.4187 16.4013 14.3715C16.3659 14.2697 16.3191 14.1562 16.2607 14.0375C16.0568 13.6235 15.7213 13.1933 15.165 12.9692ZM9.54684 4.65571C9.75994 4.54916 10.0131 4.56073 10.2158 4.68598C10.4185 4.81125 10.542 5.03267 10.542 5.27094V9.16645H10.7714C11.1509 9.16666 11.4589 9.47447 11.4589 9.85395C11.4589 10.2335 11.151 10.5412 10.7714 10.5415H8.93746C8.55789 10.5413 8.24996 10.2336 8.24996 9.85395C8.25005 9.47442 8.55794 9.16659 8.93746 9.16645H9.16695V6.37739C8.84452 6.49183 8.48019 6.35035 8.3232 6.03657C8.15349 5.69714 8.29062 5.28466 8.62984 5.11469L9.54684 4.65571ZM1.37691 7.35591C1.38066 7.46427 1.39092 7.5869 1.41012 7.71821C1.47975 8.19421 1.6673 8.73293 2.11422 9.14399C2.5514 9.54596 3.02962 9.63623 3.41988 9.62446C3.50755 9.6218 3.59017 9.61361 3.665 9.60298C3.66126 9.49443 3.65202 9.37128 3.63277 9.23969C3.56312 8.7636 3.3748 8.22501 2.92769 7.81391C2.49043 7.41188 2.01233 7.32261 1.62203 7.33442C1.53436 7.33708 1.45174 7.34528 1.37691 7.35591ZM18.0869 7.33442C17.6966 7.3226 17.2185 7.41192 16.7812 7.81391C16.3341 8.22501 16.1458 8.7636 16.0761 9.23969C16.0569 9.37129 16.0476 9.49443 16.0439 9.60298C16.1187 9.6136 16.2014 9.6218 16.289 9.62446C16.6792 9.63621 17.1566 9.54576 17.5937 9.14399C18.0408 8.7329 18.2291 8.1943 18.2988 7.71821C18.318 7.5869 18.3282 7.46427 18.332 7.35591C18.2572 7.34528 18.1745 7.33708 18.0869 7.33442ZM0.713827 6.81684L0.03414 6.71137L0.0536712 6.62446C0.111346 6.4268 0.255388 6.26374 0.448202 6.18305C0.449393 6.18667 0.468961 6.2317 0.713827 6.81684ZM5.54391 1.61567C5.215 1.81991 4.85596 2.15786 4.67965 2.72505C4.50178 3.29747 4.59823 3.8196 4.75387 4.21919C4.78342 4.29506 4.81441 4.36606 4.84566 4.43012C4.89465 4.40467 4.94578 4.37563 4.99801 4.34321C5.32696 4.13894 5.68598 3.80019 5.86226 3.23286C6.0401 2.66045 5.94369 2.13829 5.78805 1.73872C5.75854 1.66299 5.72745 1.59272 5.69625 1.52876C5.64722 1.55423 5.59618 1.58322 5.54391 1.61567ZM13.9199 1.73872C13.7643 2.13827 13.6679 2.6605 13.8457 3.23286C14.0219 3.79994 14.3811 4.13793 14.7099 4.34223C14.7623 4.37475 14.8141 4.40363 14.8632 4.42915C14.8944 4.36519 14.9255 4.29491 14.955 4.21919C15.1107 3.81959 15.2071 3.29749 15.0293 2.72505C14.853 2.15781 14.4939 1.81995 14.165 1.61567C14.1128 1.58325 14.0616 1.55421 14.0127 1.52876C13.9814 1.59279 13.9494 1.66289 13.9199 1.73872Z" fill="#151433"/>
</svg>
