<svg width="120" height="25" viewBox="0 0 120 25" fill="none" xmlns="http://www.w3.org/2000/svg">
<path d="M74.7324 16.9305C74.7324 12.3048 78.4637 8.87929 83.0268 8.87929C87.5466 8.87929 91.2779 12.3048 91.2779 16.9305C91.2779 21.5686 87.5466 24.9999 83.0268 24.9999C78.4637 24.9941 74.7324 21.5686 74.7324 16.9305ZM46.5594 3.37848V4.31612C46.5594 4.66617 46.4844 4.77292 46.4161 4.91621L37.5832 19.9559C37.5649 19.9809 37.5764 20.0184 37.6149 20.0184H47.0219V24.4941H30.0822V23.6189C30.0822 23.2314 30.1322 23.1506 30.3447 22.763L39.0776 7.92915C39.0959 7.89837 39.0834 7.86664 39.0459 7.86664H30.3505V3.37848H46.5594ZM100.985 24.4883H96.4603L91.5404 9.26684H96.4036L97.8105 13.8742C98.2788 15.3995 99.0664 18.2624 99.0664 18.2624C99.0789 18.2999 99.1289 18.2932 99.1347 18.2624C99.1347 18.2624 99.9473 15.3427 100.411 13.8742L101.886 9.26684H105.474L106.924 13.8742C107.412 15.4495 108.174 18.2624 108.174 18.2624C108.186 18.2999 108.23 18.2999 108.249 18.2624C108.249 18.2624 109.037 15.4177 109.505 13.8742L110.912 9.26684H115.431L110.543 24.4883H106.099L104.886 20.6627C104.423 19.1625 103.605 16.2496 103.605 16.2496C103.592 16.2121 103.542 16.2121 103.536 16.2496C103.536 16.2496 102.717 19.1058 102.224 20.6377L100.985 24.4883ZM55.0797 24.4883H50.1599V9.26684H55.0797V24.4883ZM58.811 1.22144H63.7309V24.4883H58.811V1.22144ZM67.3747 1.22144H72.2946V24.4883H67.3747V1.22144ZM86.559 16.9305C86.559 14.6676 84.9395 13.1232 83.0268 13.1232C81.0707 13.1232 79.4513 14.6676 79.4513 16.9305C79.4513 19.2125 81.0707 20.7368 83.0268 20.7368C84.9395 20.7378 86.559 19.2125 86.559 16.9305ZM117.881 5.61631C116.869 5.61631 116.044 6.44143 116.044 7.45408C116.044 8.46673 116.869 9.29185 117.881 9.29185C118.894 9.29185 119.719 8.46673 119.719 7.45408C119.719 6.44143 118.894 5.61631 117.881 5.61631ZM117.881 8.93602C117.063 8.93602 116.4 8.27343 116.4 7.45408C116.4 6.63569 117.062 5.97309 117.881 5.97309C118.7 5.97309 119.363 6.63569 119.363 7.45408C119.363 8.27343 118.701 8.93602 117.881 8.93602ZM117.988 6.35392C118.413 6.35392 118.719 6.66646 118.719 7.09826C118.719 7.42907 118.538 7.68584 118.269 7.79163L118.688 8.47923H118.288L117.9 7.84163H117.556V8.47923H117.206V6.35392H117.988ZM117.969 6.66646H117.556V7.52909H117.969C118.201 7.52909 118.369 7.34733 118.369 7.09826C118.369 6.84822 118.201 6.66646 117.969 6.66646ZM52.6169 1.64073C54.1479 1.64073 55.4173 2.87841 55.4173 4.40363C55.4173 5.92885 54.1479 7.16654 52.6169 7.16654C51.085 7.16654 49.8165 5.92885 49.8165 4.40363C49.8156 2.87841 51.085 1.64073 52.6169 1.64073Z" fill="#006AFF"/>
<path d="M6.06192 21.9203C5.96827 21.9705 5.892 21.9579 5.8167 21.8826L3.72076 19.385C3.66476 19.3155 3.658 19.2779 3.73331 19.1717C5.35329 16.7996 8.65988 13.1029 10.7684 11.5408C10.806 11.5157 10.7935 11.4839 10.7491 11.5032C8.55272 12.2186 2.3093 14.9044 0 16.2097V24.693H22.4722V16.5235C19.4099 17.0438 10.2355 19.7741 6.06192 21.9203ZM15.1987 6.65863C15.3117 6.63353 15.3619 6.67118 15.4304 6.74648C15.8195 7.179 17.063 8.69763 17.4009 9.11181C17.4636 9.18711 17.4202 9.26917 17.37 9.31262C14.8599 11.2705 12.0669 14.0442 10.5106 16.0272C10.4797 16.0716 10.5048 16.0716 10.5299 16.0649C13.2408 14.8977 19.6098 13.0334 22.478 12.513V8.8801L11.2521 0L0.00675799 8.87334V12.8452C3.48905 10.7753 11.5465 7.56807 15.1987 6.65863Z" fill="#006AFF"/>
</svg>
