<svg width="138" height="25" viewBox="0 0 138 25" fill="none" xmlns="http://www.w3.org/2000/svg">
<path d="M9.6789 12.7303C8.83028 12.7303 8.34863 12.3634 8.09633 11.6753C7.84404 11.033 7.91285 10.7349 7.27065 10.7349C6.62844 10.7349 5.11468 12.501 4.90826 14.9322C4.86239 15.2075 4.83945 16.836 4.83945 17.7305V19.9324C4.83945 20.8957 4.77064 22.1113 4.95413 22.8224C5.13762 23.7857 5.38991 23.9004 6.12386 24.2215C6.37615 24.3362 6.49083 24.3591 6.65138 24.405V24.4738H0V24.405C0.137615 24.3591 0.275229 24.3362 0.527523 24.2215C1.2844 23.9004 1.49083 23.7857 1.67431 22.8224C1.8578 22.1113 1.78899 20.8957 1.78899 19.9324V13.7166C1.78899 13.1203 1.83486 11.4 1.74312 10.8495C1.62844 10.1615 1.46789 9.95502 1.12385 9.70272C0.756881 9.42749 0.412844 9.42749 0.183486 9.38161V9.31281H4.65597C4.86239 9.31281 4.86239 9.38162 4.86239 9.51923L4.81652 13.6019H4.86239C5.29817 11.8129 6.2156 10.6661 6.72019 10.1615C7.22477 9.63391 8.14221 8.9917 9.28899 8.9917C9.81652 8.9917 10.4358 9.12932 10.8257 9.56511C11.1009 9.84035 11.3303 10.322 11.3303 11.0789C11.3532 11.9046 10.8257 12.7303 9.6789 12.7303Z" fill="#D52331"/>
<path d="M76.7655 12.7303C75.9169 12.7303 75.4353 12.3634 75.183 11.6753C74.9307 11.033 74.9995 10.7349 74.3573 10.7349C73.7151 10.7349 72.2013 12.501 71.9949 14.9322C71.949 15.2075 71.9261 16.836 71.9261 17.7305V19.9324C71.9261 20.8957 71.8573 22.1113 72.0408 22.8224C72.2243 23.7857 72.4766 23.9004 73.2105 24.2215C73.4628 24.3362 73.5775 24.3591 73.738 24.405V24.4738H67.0408V24.405C67.1784 24.3591 67.316 24.3362 67.5683 24.2215C68.3252 23.9004 68.5316 23.7857 68.7151 22.8224C68.8986 22.1113 68.8298 20.8957 68.8298 19.9324V13.7166C68.8298 13.1203 68.8756 11.4 68.7839 10.8495C68.6692 10.1615 68.5087 9.95502 68.1876 9.70272C67.8206 9.42749 67.4766 9.42749 67.2472 9.38161V9.31281H71.7655C71.972 9.31281 71.972 9.38162 71.972 9.51923L71.9261 13.6019H71.972C72.4077 11.8129 73.3252 10.6661 73.8298 10.1615C74.3344 9.63391 75.2518 8.9917 76.3986 8.9917C76.9261 8.9917 77.5454 9.12932 77.9353 9.56511C78.2105 9.84035 78.4399 10.322 78.4399 11.0789C78.4399 11.9046 77.9123 12.7303 76.7655 12.7303Z" fill="#252521"/>
<path d="M19.3585 10.3214C18.7851 9.83974 18.2117 9.67918 17.3631 9.67918C16.6062 9.67918 16.0328 9.86268 15.5053 10.3673C14.7255 11.0783 14.2897 12.6839 14.175 15.0234H19.3126C20.3447 15.0234 20.4594 15.0004 20.4594 13.6931C20.4824 11.8811 19.9319 10.8031 19.3585 10.3214ZM23.6246 15.7344H14.175C14.175 19.9088 14.7025 21.1933 15.7576 22.363C16.5833 23.3034 17.3402 23.5328 18.3723 23.5328C21.2392 23.5328 22.7989 22.0878 23.3493 19.5648L23.4869 19.6107C22.8447 22.73 20.8723 24.7484 17.7989 24.7484C16.0099 24.7484 14.0833 24.3126 12.753 22.9364C11.331 21.3997 10.7805 19.5419 10.7805 16.973C10.7805 12.1793 13.5328 8.96815 17.3172 8.96815C21.7209 8.96815 23.6475 11.927 23.6475 14.7252C23.6704 14.9775 23.6704 15.3445 23.6246 15.7344ZM29.6796 17.4088C28.6704 17.9363 28.2576 18.3033 27.9365 18.8079C27.5695 19.3813 27.3631 20.0235 27.3631 21.0327C27.3631 23.0741 28.1429 23.5099 29.5879 23.5099C29.8631 23.5099 30.1842 23.464 30.4824 23.3264C31.2392 22.9365 32.3172 21.7896 32.3172 20.6428L32.3631 15.6427C31.8585 16.3996 30.6429 16.9042 29.6796 17.4088ZM35.0007 24.7714C34.1521 24.7714 33.464 24.7255 33.0282 24.4961C32.5695 24.2438 32.2484 23.5328 32.3172 22.2025H32.2714C31.9044 23.4181 30.2989 24.7714 28.0053 24.7714C25.8952 24.7714 24.0374 23.5557 24.0374 20.9869C24.0374 20.0235 24.3126 19.2666 24.9319 18.6932C26.0328 17.6611 27.5466 17.5923 29.0833 16.973C31.1246 16.1931 32.4319 15.2298 32.4319 14.1518C32.4319 13.6243 32.4778 12.3857 32.4778 11.8581C32.4778 9.93149 31.6062 9.61037 30.0695 9.61037C29.3126 9.61037 28.8539 9.74799 28.4869 10.115C28.12 10.482 27.9824 10.8031 27.9824 11.8581C27.9824 12.9591 27.386 13.4408 26.3769 13.4408C25.597 13.4408 24.9548 13.005 24.9548 12.0875C24.9548 11.4912 25.1613 11.0554 25.5282 10.6196C26.308 9.61037 28.4869 9.01402 30.0236 9.01402C32.6613 9.01402 35.62 9.97736 35.62 12.5233C35.62 13.6931 35.5512 19.3125 35.5512 21.4456C35.5512 21.9272 35.5512 22.386 35.5741 22.8676C35.62 23.4411 35.7805 24.1062 36.4457 24.2668C36.7438 24.3356 37.1337 24.2668 37.386 24.0833V24.1291C37.0191 24.4503 36.1475 24.7714 35.0007 24.7714ZM37.4319 24.4503V24.3814C37.6154 24.3356 37.8677 24.2668 38.0282 24.198C38.6475 23.9457 38.9227 23.7392 39.1062 22.7988C39.2438 22.1107 39.2438 20.941 39.2438 19.9318V4.38086C39.2438 3.78452 39.2897 2.06428 39.175 1.51381C39.0603 0.825714 38.8998 0.573413 38.5787 0.366985C38.1888 0.0688108 37.8906 0.0688121 37.6383 0.0458757V0H42.1337C42.3402 0 42.3402 1.39446e-06 42.3402 0.252302C42.3402 0.779841 42.2943 1.53674 42.2943 2.50007V19.9547C42.2943 20.9639 42.2484 22.1107 42.409 22.8218C42.6154 23.7851 42.8677 23.9686 43.6246 24.2438C43.831 24.3126 43.8998 24.3585 44.0833 24.3814V24.4503H37.4319Z" fill="#D52331"/>
<path d="M53.8991 22.5005C53.3716 23.6703 51.789 24.7942 50.2523 24.7942C48.8532 24.7942 47.9358 24.5878 47.1331 23.8538C46.4909 23.2804 46.1927 22.5694 46.1927 21.239C46.1927 20.528 46.3074 11.2617 46.3303 9.51851C45.8028 9.47264 44.7477 9.47264 44.2202 9.40383V9.33502C46.445 8.83042 47.8211 7.6836 49.3349 2.86694H49.4496V8.78454H52.9817V9.47264H49.4496L49.312 21.4913C49.312 22.8446 49.7019 24.0144 51.1239 24.0144C52.3854 24.0144 53.3487 23.2804 53.7615 22.4088L53.8991 22.5005Z" fill="#252521"/>
<path d="M62.3173 10.7107C61.6063 9.86204 60.7806 9.67855 59.9549 9.67855C59.1751 9.67855 58.3036 9.97672 57.6384 10.6878C56.5604 11.7887 55.9641 14.1282 55.9641 16.8577C55.9641 19.6559 56.6063 21.8349 57.6155 23.0046C58.3265 23.8533 59.1981 24.0826 59.9779 24.0826C60.8036 24.0826 61.5834 23.8991 62.3403 23.0505C63.3036 21.8807 63.9916 19.6559 63.9916 16.8577C63.9458 14.0823 63.3036 11.9034 62.3173 10.7107ZM59.9549 24.7707C56.4228 24.7707 52.6155 21.7431 52.6155 16.8347C52.6155 11.9263 56.3999 8.96752 59.9549 8.96752C63.487 8.96752 67.3173 11.9722 67.3173 16.8347C67.3173 21.6972 63.487 24.7707 59.9549 24.7707ZM103.831 10.7107C103.12 9.86204 102.294 9.67855 101.469 9.67855C100.689 9.67855 99.8173 9.97672 99.1522 10.6878C98.0742 11.7887 97.4779 14.1282 97.4779 16.8577C97.4779 19.6559 98.1201 21.8349 99.1293 23.0046C99.8403 23.8533 100.712 24.0826 101.492 24.0826C102.317 24.0826 103.097 23.8991 103.854 23.0505C104.817 21.8807 105.505 19.6559 105.505 16.8577C105.46 14.0823 104.817 11.9034 103.831 10.7107ZM101.469 24.7707C97.9366 24.7707 94.1293 21.7431 94.1293 16.8347C94.1293 11.9263 97.9137 8.96752 101.469 8.96752C105.001 8.96752 108.831 11.9722 108.831 16.8347C108.831 21.6972 105.001 24.7707 101.469 24.7707ZM78.5788 25.0001C77.5467 25.0001 76.6751 24.1744 76.6751 23.0276C76.6751 21.8807 77.5237 21.055 78.5788 21.055C79.6109 21.055 80.4825 21.7661 80.4825 23.0276C80.4825 24.2891 79.6109 25.0001 78.5788 25.0001ZM88.51 24.7707C86.5375 24.7707 84.7944 24.0138 83.6476 22.867C82.1797 21.3761 81.6063 19.266 81.6063 16.6742C81.6063 11.8116 85.3219 8.94458 88.5329 8.94458C90.7577 8.94458 92.3861 9.77029 93.0283 10.5501C93.5329 11.1694 93.7852 11.697 93.7852 12.2016C93.7852 13.3025 92.9595 13.7383 92.3173 13.7383C91.1017 13.7383 90.666 12.9814 90.5283 11.8346C90.2531 9.79323 89.9091 9.54093 88.3724 9.54093C87.776 9.54093 86.7898 9.79323 86.2164 10.4354C85.3907 11.3758 84.9549 13.2796 84.9549 16.0549C84.9549 19.5642 85.3907 20.9403 86.3082 22.2936C86.9962 23.3028 87.8449 23.5551 88.6705 23.5551C91.8816 23.5551 93.3265 21.6743 93.8082 19.5642L93.9458 19.61C93.3724 22.4541 91.5146 24.7707 88.51 24.7707Z" fill="#252521"/>
<path d="M127.133 24.4735V24.4047C127.317 24.3588 127.408 24.3359 127.661 24.2212C128.372 23.9459 128.624 23.7625 128.807 22.7991C128.991 22.0881 128.945 20.9413 128.945 19.9321V13.7163C128.945 12.0649 128.807 11.308 128.418 10.7575C127.959 10.1382 127.385 9.81709 126.445 9.81709C124.84 9.81709 123.051 12.5695 122.798 15.3218C122.752 15.8494 122.73 16.3081 122.73 16.9733V19.9321C122.73 20.9413 122.661 22.0881 122.844 22.7991C123.028 23.7625 123.303 23.9459 124.014 24.2212C124.266 24.3359 124.381 24.3588 124.541 24.4047V24.4735H117.867V24.4047C118.051 24.3588 118.142 24.3359 118.395 24.2212C119.106 23.9459 119.358 23.7625 119.541 22.7991C119.725 22.0881 119.679 20.9413 119.679 19.9321V13.7163C119.679 12.0649 119.496 11.308 119.106 10.7575C118.647 10.1382 118.074 9.81709 117.133 9.81709C115.344 9.81709 113.739 12.6383 113.486 15.3907C113.418 16.2393 113.418 15.9182 113.418 16.9962V19.9321C113.418 20.9413 113.349 22.111 113.532 22.8221C113.716 23.7854 113.991 23.9001 114.748 24.2212L115.252 24.4047V24.4735H108.578V24.4047C108.716 24.3588 108.853 24.3359 109.106 24.2212C109.863 23.9459 110.046 23.7854 110.252 22.8221C110.436 22.111 110.39 20.9183 110.39 19.9321V13.7392C110.39 13.097 110.39 11.3768 110.321 10.8492C110.207 10.1611 110.069 10.0006 109.702 9.70241C109.335 9.42717 109.014 9.42718 108.762 9.3813V9.3125H113.257C113.463 9.3125 113.463 9.35837 113.463 9.51892L113.395 13.0282H113.441C113.876 11.4456 114.656 10.5511 115.436 10.0006C116.009 9.5648 117.156 8.99139 118.395 8.99139C119.977 8.99139 121.078 9.45012 121.72 10.2529C122.087 10.6887 122.661 11.6749 122.661 13.1429H122.707C123.165 11.4685 124.037 10.5281 124.771 10.0006C125.551 9.42718 126.766 8.99139 127.707 8.99139C129.679 8.99139 130.574 9.61067 131.101 10.2758C131.56 10.8034 131.95 11.7667 131.95 13.6016V19.9321C131.95 20.9413 131.904 22.0881 132.087 22.7991C132.271 23.7625 132.523 23.9001 133.257 24.2212L133.762 24.4047V24.4735H127.133ZM135.665 9.45012C135.803 9.45012 135.918 9.42717 135.986 9.35836C136.055 9.28956 136.101 9.22075 136.101 9.10607V9.08313C136.101 8.96845 136.055 8.8767 135.986 8.83083C135.918 8.76202 135.803 8.73908 135.665 8.73908H135.115V9.42718H135.665V9.45012ZM134.702 8.3721H135.688C135.963 8.3721 136.193 8.44091 136.353 8.60146C136.468 8.71615 136.537 8.8767 136.537 9.06019C136.537 9.24369 136.491 9.3813 136.399 9.49598C136.307 9.61067 136.193 9.67948 136.032 9.72535L136.629 10.5511H136.124L135.596 9.79416H135.138V10.5511H134.725L134.702 8.3721ZM135.551 11.308C135.803 11.308 136.032 11.2621 136.262 11.1703C136.468 11.0786 136.674 10.941 136.835 10.7804C136.996 10.6199 137.11 10.4364 137.202 10.207C137.294 10.0006 137.34 9.74829 137.34 9.51892C137.34 9.26662 137.294 9.03726 137.202 8.83083C137.11 8.6244 136.996 8.41797 136.835 8.25742C136.674 8.09686 136.491 7.95924 136.262 7.8675C136.055 7.77575 135.803 7.72988 135.551 7.72988C135.298 7.72988 135.069 7.77575 134.84 7.8675C134.633 7.95924 134.427 8.09686 134.266 8.25742C134.106 8.41797 133.991 8.60146 133.899 8.83083C133.808 9.03726 133.762 9.28956 133.762 9.51892C133.762 9.77122 133.808 10.0006 133.899 10.207C133.991 10.4134 134.106 10.6199 134.266 10.7804C134.427 10.941 134.61 11.0786 134.84 11.1703C135.069 11.2621 135.298 11.308 135.551 11.308ZM135.551 11.5832C135.252 11.5832 135 11.5373 134.748 11.4226C134.496 11.308 134.289 11.1703 134.106 10.9869C133.922 10.8034 133.785 10.5969 133.67 10.3446C133.555 10.0923 133.509 9.84004 133.509 9.5648C133.509 9.28956 133.555 9.01432 133.67 8.78495C133.785 8.53265 133.922 8.32623 134.106 8.14274C134.289 7.95924 134.519 7.79869 134.748 7.70694C135 7.59226 135.275 7.54639 135.551 7.54639C135.849 7.54639 136.101 7.59226 136.353 7.70694C136.606 7.82163 136.812 7.95924 136.996 8.14274C137.179 8.32623 137.317 8.53265 137.431 8.78495C137.546 9.03725 137.592 9.28956 137.592 9.5648C137.592 9.84004 137.546 10.1153 137.431 10.3446C137.317 10.5969 137.179 10.8034 136.996 10.9869C136.812 11.1703 136.583 11.3309 136.353 11.4226C136.101 11.5144 135.849 11.5832 135.551 11.5832Z" fill="#252521"/>
</svg>
