<svg width="163" height="20" viewBox="0 0 163 20" fill="none" xmlns="http://www.w3.org/2000/svg">
<g clip-path="url(#clip0_8_2516)">
<path d="M14.5723 3.28551C14.5723 5.09941 13.1054 6.57102 11.2959 6.57102C9.48635 6.57102 8.02148 5.09941 8.02148 3.28551C8.02148 1.47161 9.4884 0 11.2979 0C13.1054 0 14.5723 1.47161 14.5723 3.28551Z" fill="#EE7755"/>
<path d="M6.55086 16.7142C6.55086 18.5281 5.08394 19.9997 3.2744 19.9997C1.46486 19.9997 0 18.5281 0 16.7142C0 14.9003 1.46692 13.4287 3.27645 13.4287C5.08599 13.4287 6.55086 14.8983 6.55086 16.7142Z" fill="#EE7755"/>
<path d="M22.5948 16.7142C22.5948 18.5281 21.1279 19.9997 19.3183 19.9997C17.5109 19.9997 16.0439 18.5281 16.0439 16.7142C16.0439 14.9003 17.5109 13.4287 19.3183 13.4287C21.1299 13.4287 22.5948 14.8983 22.5948 16.7142Z" fill="#EE7755"/>
<path d="M128.845 12.1743C128.845 7.62013 132.369 4.4248 136.746 4.4248C139.257 4.4248 141.526 5.4947 142.822 6.93352L140.98 8.87654C139.907 7.7841 138.407 7.09543 136.746 7.09543C133.849 7.09543 131.68 9.24136 131.68 12.1538C131.68 15.0089 133.787 17.2143 136.702 17.2143C138.344 17.2143 139.924 16.4847 140.896 15.4947V13.2278H136.561V10.7991H143.448V16.8495C141.606 18.7925 139.234 19.8644 136.622 19.8644C132.107 19.8665 128.845 16.6076 128.845 12.1743Z" fill="#232526"/>
<path d="M34.3028 14.0172H32.4604V19.6228H29.7051V4.66895H35.2773C38.6994 4.66895 40.2997 6.91531 40.2997 9.34203C40.2997 11.1641 39.3477 12.9842 37.1607 13.6954L40.9296 19.6249H37.6469L34.3028 14.0172ZM32.4584 11.5269H34.9716C36.7729 11.5269 37.4623 10.457 37.4623 9.36253C37.4623 8.2291 36.7134 7.23914 35.2753 7.23914H32.4584V11.5269Z" fill="#232526"/>
<path d="M47.29 4.66895H57.2363V7.25964H50.0659V10.7809H56.6906V13.3511H50.0659V17.0342H57.2363V19.6249H47.29V4.66895Z" fill="#232526"/>
<path d="M71.9835 16.2226H66.6759L65.4409 19.6229H62.5029L68.2967 4.66699H70.4243L76.1565 19.6229H73.2186L71.9835 16.2226ZM67.4884 13.7344H71.1957L69.3533 8.61452L67.4884 13.7344Z" fill="#232526"/>
<path d="M81.9482 4.66895H84.7241V16.9727H92.4218V19.6228H81.9482V4.66895Z" fill="#232526"/>
<path d="M108.877 9.54494C108.877 12.0352 107.297 14.3431 103.487 14.3431H101.056V19.6249H98.3008V4.66895H103.709C107.377 4.66895 108.877 7.09772 108.877 9.54494ZM106.06 9.50395C106.06 8.31108 105.27 7.23914 103.77 7.23914H101.054V11.8118H103.567C105.311 11.8118 106.06 10.6374 106.06 9.50395Z" fill="#232526"/>
<path d="M121.317 16.2226H116.009L114.774 19.6229H111.836L117.63 4.66699H119.757L125.49 19.6229H122.552L121.317 16.2226ZM116.819 13.7344H120.527L118.684 8.61452L116.819 13.7344Z" fill="#232526"/>
<path d="M149.356 4.66895H159.303V7.25964H152.132V10.7809H158.757V13.3511H152.132V17.0342H159.303V19.6249H149.356V4.66895Z" fill="#232526"/>
<path d="M161.827 4.66895C162.481 4.66895 163.003 5.1752 163.003 5.82082C163.003 6.46644 162.481 6.98089 161.821 6.98089C161.16 6.98089 160.631 6.46849 160.631 5.82082C160.631 5.17315 161.158 4.66895 161.821 4.66895H161.827ZM161.813 4.90055C161.312 4.90055 160.926 5.31457 160.926 5.82082C160.926 6.33322 161.314 6.74109 161.827 6.74109C162.328 6.74724 162.707 6.33322 162.707 5.82697C162.707 5.31457 162.328 4.8985 161.821 4.8985H161.813V4.90055ZM161.636 6.4193H161.369V5.26743C161.476 5.25308 161.622 5.23259 161.813 5.23259C162.03 5.23259 162.129 5.26743 162.207 5.32482C162.276 5.37401 162.326 5.45804 162.326 5.57077C162.326 5.71219 162.219 5.80237 162.085 5.84542V5.85976C162.198 5.89461 162.254 5.98684 162.289 6.14056C162.323 6.31682 162.352 6.38036 162.373 6.42135H162.092C162.057 6.37831 162.036 6.27993 161.999 6.14056C161.979 6.02168 161.907 5.96429 161.759 5.96429H161.632V6.4193H161.636ZM161.642 5.77163H161.77C161.917 5.77163 162.036 5.72244 162.036 5.60356C162.036 5.49698 161.958 5.4273 161.79 5.4273C161.72 5.4273 161.671 5.43345 161.642 5.44164V5.77163Z" fill="#232526"/>
</g>
<defs>
<clipPath id="clip0_8_2516">
<rect width="163" height="20" fill="white"/>
</clipPath>
</defs>
</svg>
