<svg width="124" height="25" viewBox="0 0 124 25" fill="none" xmlns="http://www.w3.org/2000/svg">
<path d="M119.171 13.7315H121.285V7.2865L115.476 2.42199L109.668 7.2865V13.7315H111.782L115.497 10.6116L119.171 13.7315ZM121.532 15.5787H118.494L115.476 13.0336L112.439 15.5787H109.401C108.539 15.5787 107.82 14.8809 107.82 14.0188C107.82 13.9983 107.82 13.9983 107.82 13.9778L107.841 7.16335C107.841 6.73232 108.005 6.34234 108.313 6.03446L108.375 5.97288L115.497 0L122.701 6.03446C122.989 6.32181 123.174 6.73232 123.174 7.16335L123.194 13.9778C123.194 14.4088 123.03 14.7988 122.722 15.1067C122.394 15.4351 121.963 15.5787 121.532 15.5787Z" fill="#00DEB6"/>
<path d="M62.8082 8.8876C62.0898 8.8876 61.3919 9.01075 60.7146 9.27758C60.0783 9.52388 59.4831 9.91386 59.011 10.4065C58.8673 10.2217 58.7031 10.037 58.5184 9.87281C58.3131 9.68808 58.0873 9.52388 57.8 9.3802C57.5126 9.216 57.2047 9.09285 56.8763 9.01075C56.5069 8.90812 56.1169 8.8876 55.6653 8.8876C54.9264 8.8876 54.2696 9.01075 53.7359 9.2981C53.2022 9.58546 52.7302 9.91386 52.3812 10.3449L52.2581 9.1339H48.9329V20.0329H52.4223V14.1831C52.4223 13.4853 52.6275 12.9106 53.038 12.4795C53.4485 12.028 53.9822 11.8022 54.6596 11.8022C55.2548 11.8022 55.7064 11.9869 55.9937 12.3359C56.2811 12.7053 56.4453 13.1979 56.4453 13.8547V20.0534H59.8115V14.2037C59.8115 13.5058 60.0167 12.9311 60.4272 12.5001C60.8172 12.0485 61.3714 11.8227 62.0488 11.8227C62.644 11.8227 63.0956 12.0074 63.3829 12.3564C63.6703 12.7258 63.8345 13.2184 63.8345 13.8753V20.0739H67.3238V13.3416C67.3238 11.9664 66.9544 10.8991 66.1744 10.1191C65.3739 9.27758 64.2655 8.8876 62.8082 8.8876ZM77.094 15.661C76.9708 16.0099 76.8066 16.3178 76.5603 16.6051C76.314 16.8925 76.0267 17.0977 75.6982 17.2619C75.3288 17.4261 74.9388 17.5082 74.5488 17.5082C74.1383 17.5082 73.7483 17.4261 73.3789 17.2619C73.0505 17.1183 72.7631 16.8925 72.5168 16.6051C72.291 16.3178 72.1063 16.0099 71.9831 15.661C71.86 15.312 71.7984 14.9426 71.7984 14.5731C71.7984 14.2037 71.86 13.8547 71.9831 13.4853C72.1063 13.1363 72.2705 12.8285 72.5168 12.5616C72.7426 12.2948 73.0299 12.069 73.3789 11.9048C73.7483 11.7406 74.1383 11.6585 74.5488 11.6585C74.9799 11.6585 75.3698 11.7406 75.6982 11.9048C76.0472 12.069 76.3345 12.2743 76.5603 12.5616C76.7861 12.8285 76.9708 13.1363 77.094 13.4853C77.2171 13.8342 77.2582 14.1831 77.2582 14.5731C77.2582 14.9426 77.2171 15.312 77.094 15.661ZM78.9413 10.4681C78.4076 9.93439 77.7713 9.52388 77.0324 9.216C76.2524 8.90812 75.4109 8.74392 74.5488 8.76444C73.6457 8.76444 72.8247 8.90812 72.0652 9.216C71.3468 9.50336 70.69 9.93439 70.1358 10.4681C69.6022 11.0017 69.1711 11.6175 68.8838 12.3153C68.5759 13.0337 68.4322 13.8137 68.4322 14.5936C68.4322 15.3941 68.5759 16.1536 68.8838 16.872C69.1711 17.5698 69.6022 18.1856 70.1358 18.7192C70.6695 19.2529 71.3058 19.6634 72.0652 19.9713C72.8042 20.2792 73.6457 20.4228 74.5488 20.4228C75.4314 20.4228 76.273 20.2792 77.0324 19.9713C77.7713 19.6634 78.4282 19.2529 78.9413 18.7192C79.475 18.1856 79.8855 17.5903 80.1728 16.872C80.4807 16.1536 80.6244 15.3736 80.6244 14.5936C80.6244 13.7932 80.4807 13.0337 80.1728 12.3153C79.8855 11.6175 79.475 11.0017 78.9413 10.4681ZM89.3067 9.1339L86.7205 16.2972L84.0316 9.1339H80.1523L84.9348 20.0329H88.2394L93.1039 9.1339H89.3067ZM96.0186 13.4237C96.0186 13.1979 96.0596 12.9721 96.1828 12.7258C96.2854 12.4795 96.4496 12.2743 96.6548 12.069C96.8601 11.8638 97.1269 11.6996 97.4143 11.5764C97.7222 11.4533 98.0711 11.3712 98.4816 11.3712C98.8716 11.3712 99.2205 11.4327 99.5284 11.5764C99.8363 11.6996 100.062 11.8638 100.247 12.069C100.452 12.2743 100.596 12.5001 100.678 12.7258C100.78 12.9721 100.822 13.1979 100.822 13.4442L96.0186 13.4237ZM104.106 15.0247C104.106 14.101 103.982 13.2595 103.736 12.5001C103.49 11.7201 103.141 11.0633 102.669 10.5296C102.197 9.97544 101.581 9.54441 100.924 9.23653C100.226 8.92865 99.4258 8.78497 98.5021 8.78497C97.5785 8.78497 96.7575 8.94917 96.0186 9.25705C94.6433 9.83176 93.5555 10.9607 93.0218 12.3769C92.755 13.0748 92.6318 13.8137 92.6318 14.5731C92.6318 15.4352 92.7755 16.2357 93.0629 16.9541C93.3297 17.6519 93.7607 18.2882 94.2944 18.8013C94.8486 19.3145 95.5054 19.7045 96.2649 20.0123C97.0448 20.2997 97.9069 20.4434 98.8716 20.4434C99.59 20.4434 100.247 20.3818 100.801 20.2381C101.294 20.1355 101.786 19.9713 102.279 19.7866C102.689 19.6224 103.018 19.4376 103.285 19.2529C103.551 19.0682 103.736 18.945 103.859 18.8834L102.423 16.7693C102.033 17.0156 101.622 17.2414 101.191 17.4261C100.637 17.6724 99.8774 17.7956 98.9948 17.7956C98.0711 17.7956 97.3527 17.5903 96.8396 17.1388C96.3059 16.6872 96.0391 16.1741 96.0391 15.5994H104.126C104.126 15.5789 104.106 15.0247 104.106 15.0247ZM46.162 17.5288C45.8951 17.6519 45.6078 17.7135 45.2383 17.7135C44.7662 17.7135 44.4378 17.5698 44.212 17.2825C44.0068 16.9951 43.8836 16.5846 43.8836 16.0715V11.7817H46.7983V9.15442H43.8836V5.87037H40.3943V9.15442H38.588V11.7817H40.3943V15.8867C40.3943 16.5641 40.4559 17.1798 40.5996 17.7546C40.7432 18.3087 40.9895 18.8013 41.3179 19.1913C41.6669 19.5813 42.0979 19.9097 42.6521 20.115C43.2063 20.3407 43.8836 20.4434 44.6841 20.4434C45.8336 20.4434 46.9214 20.0944 47.9272 19.4171L46.8188 17.1593C46.6341 17.303 46.4083 17.4261 46.162 17.5288ZM6.62976 8.92865C5.82926 8.92865 5.15191 9.09285 4.6593 9.44178C4.14616 9.79071 3.75618 10.1396 3.44829 10.5091L3.32514 9.1339H0V20.0329H3.48934V14.6347C3.48934 13.7726 3.73565 13.0953 4.24879 12.6232C4.76193 12.1511 5.41875 11.9253 6.23977 11.9253C6.62976 11.9253 6.97869 11.9664 7.28657 12.0485L7.84076 9.09285C7.69708 9.0518 7.5534 9.01075 7.40973 8.99022C7.16342 8.92865 6.89659 8.92865 6.62976 8.92865ZM8.76441 20.0329H12.2538V9.1339H8.76441V20.0329ZM21.5518 15.1889C21.5518 15.8867 21.3466 16.4204 20.9771 16.7488C20.6077 17.0772 20.0329 17.2414 19.3351 17.2414C18.5756 17.2414 18.0009 17.0156 17.6109 16.5436C17.2209 16.092 17.0157 15.4557 17.0157 14.6757C17.0157 14.2858 17.0773 13.8958 17.2004 13.5263C17.3236 13.1569 17.5083 12.849 17.7546 12.5822C18.0214 12.2948 18.3293 12.0895 18.6783 11.9253C19.0477 11.7611 19.4788 11.679 19.9919 11.679C20.3614 11.679 20.6692 11.6996 20.8745 11.7406C21.1003 11.7817 21.3261 11.8432 21.5518 11.9253V15.1889ZM20.0329 8.90812C19.0477 8.90812 18.1446 9.03127 17.3646 9.31863C16.5641 9.60598 15.8868 9.99596 15.2915 10.5296C14.7168 11.0428 14.2653 11.679 13.9574 12.3974C13.6495 13.1158 13.4853 13.9163 13.4853 14.7989C13.4853 15.5583 13.6084 16.2562 13.8342 16.8925C14.06 17.5288 14.3884 18.083 14.84 18.5345C15.271 18.9861 15.8047 19.3555 16.4615 19.6224C17.0978 19.8892 17.8162 19.9918 18.6167 19.9918C19.8277 19.9918 20.7924 19.7045 21.5313 19.0887V19.8687C21.5313 20.6691 21.3055 21.2849 20.854 21.6749C20.4024 22.0649 19.7866 22.2906 18.9861 22.2906C18.4114 22.2906 17.8572 22.2291 17.303 22.0854C16.8104 21.9417 16.3178 21.7365 15.8663 21.4696L14.4705 23.8301C15.1068 24.22 15.7842 24.5279 16.5436 24.7126C17.303 24.8974 18.1856 25 19.1914 25C20.9976 25 22.3934 24.569 23.4402 23.7069C24.487 22.8448 25.0001 21.5107 25.0001 19.725V9.70861C24.2612 9.46231 23.4812 9.25705 22.7013 9.1339C21.8802 8.99022 20.9771 8.90812 20.0329 8.90812ZM33.6209 8.8876C32.9846 8.8876 32.3688 9.01075 31.753 9.216C31.1373 9.44178 30.6447 9.74966 30.2752 10.1807V4.53622H26.8269V20.0329H30.3162V14.1831C30.3162 13.8547 30.3573 13.5674 30.4599 13.2595C30.5626 12.9721 30.7062 12.7258 30.891 12.5001C31.0962 12.2948 31.322 12.1101 31.6094 11.9664C31.9172 11.8432 32.2457 11.7611 32.5946 11.7611C33.1488 11.7611 33.6209 11.9459 33.9493 12.2948C34.2982 12.6643 34.4624 13.1569 34.4624 13.7726V19.9918H37.9312V13.2595C37.9312 11.8022 37.5412 10.7143 36.7613 9.97544C35.9813 9.25705 34.9345 8.8876 33.6209 8.8876ZM11.8022 4.88515C11.6175 4.74147 11.4327 4.61832 11.207 4.55674C10.9812 4.47464 10.7554 4.43359 10.5091 4.43359C10.2833 4.43359 10.037 4.47464 9.81122 4.55674C9.58544 4.63885 9.38018 4.74147 9.19545 4.88515C9.01072 5.02883 8.88757 5.21356 8.76441 5.41881C8.66178 5.66512 8.60021 5.91142 8.60021 6.17825C8.60021 6.4656 8.64126 6.71191 8.76441 6.91716C8.86704 7.12241 9.01072 7.30714 9.19545 7.45082C9.38018 7.5945 9.58544 7.71765 9.81122 7.77923C10.037 7.8408 10.2833 7.90238 10.5091 7.90238C10.7349 7.90238 10.9812 7.86133 11.207 7.77923C11.4327 7.71765 11.638 7.5945 11.8022 7.45082C11.9869 7.30714 12.1101 7.12241 12.2127 6.91716C12.3153 6.71191 12.3769 6.4656 12.3769 6.17825C12.3769 5.89089 12.3359 5.64459 12.2127 5.41881C12.1306 5.21356 11.9869 5.02883 11.8022 4.88515Z" fill="#262637"/>
</svg>
