<svg width="109" height="25" viewBox="0 0 109 25" fill="none" xmlns="http://www.w3.org/2000/svg">
<path d="M105.539 15.2075C105.472 15.5462 105.356 15.8417 105.193 16.0955C105.03 16.3489 104.809 16.5604 104.549 16.7129C104.285 16.871 103.955 16.9504 103.56 16.9504C103.177 16.9504 102.85 16.871 102.579 16.7129C102.309 16.556 102.092 16.3493 101.928 16.0955C101.765 15.8416 101.646 15.5462 101.573 15.2075C101.5 14.8688 101.463 14.5232 101.463 14.1766C101.463 13.8145 101.498 13.465 101.565 13.1275C101.632 12.7889 101.748 12.4903 101.911 12.2296C102.075 11.9709 102.289 11.7596 102.554 11.5964C102.818 11.4329 103.148 11.35 103.544 11.35C103.927 11.35 104.251 11.4328 104.515 11.5964C104.781 11.7596 104.997 11.9731 105.167 12.2385C105.337 12.5038 105.458 12.8059 105.531 13.1437C105.604 13.4831 105.641 13.8294 105.641 14.1767C105.641 14.5252 105.606 14.8697 105.539 15.2075ZM107.805 12.4584C107.647 11.8895 107.405 11.3901 107.078 10.9614C106.751 10.5331 106.34 10.1887 105.844 9.92975C105.347 9.66985 104.755 9.54084 104.067 9.54084C103.527 9.54084 103.03 9.64745 102.579 9.8618C102.128 10.0763 101.756 10.4203 101.463 10.894H101.43V9.77693H99.1465V21.5856H101.548V17.441H101.582C101.875 17.8701 102.25 18.1937 102.706 18.4129C103.163 18.6329 103.662 18.7435 104.203 18.7435C104.846 18.7435 105.406 18.6185 105.886 18.371C106.365 18.1234 106.766 17.7901 107.086 17.3726C107.409 16.9551 107.647 16.4764 107.805 15.9351C107.964 15.3935 108.042 14.8297 108.042 14.2434C108.042 13.6231 107.964 13.0285 107.805 12.4584ZM95.9677 15.2074C95.8994 15.5461 95.7834 15.8416 95.6205 16.0954C95.457 16.3492 95.2427 16.5559 94.9769 16.7128C94.7128 16.8709 94.3824 16.9503 93.9882 16.9503C93.6043 16.9503 93.2788 16.8709 93.0081 16.7128C92.737 16.5559 92.5202 16.3492 92.3565 16.0954C92.193 15.8415 92.0748 15.5461 92.0014 15.2074C91.928 14.8687 91.8914 14.5231 91.8919 14.1765C91.8919 13.8144 91.9248 13.4649 91.9924 13.1274C92.0609 12.7889 92.1757 12.4902 92.3398 12.2295C92.5023 11.9708 92.7171 11.7595 92.9828 11.5963C93.2474 11.4328 93.5763 11.3499 93.9715 11.3499C94.3543 11.3499 94.6798 11.4327 94.9438 11.5963C95.2073 11.7576 95.43 11.9773 95.595 12.2384C95.7638 12.5037 95.8849 12.8058 95.9585 13.1436C96.0319 13.483 96.0686 13.8294 96.0679 14.1766C96.0685 14.5227 96.0349 14.868 95.9677 15.2074ZM97.506 10.9613C97.1795 10.533 96.7675 10.1886 96.2713 9.92965C95.7749 9.66975 95.1835 9.54075 94.4961 9.54075C93.9543 9.54075 93.4585 9.64735 93.0081 9.8617C92.5558 10.0762 92.1848 10.4203 91.8919 10.8939H91.8574V9.77693H89.5737V21.5856H91.9768V17.441H92.0093C92.3021 17.8701 92.6781 18.1937 93.1349 18.4129C93.5905 18.6329 94.0897 18.7435 94.631 18.7435C95.2741 18.7435 95.8347 18.6185 96.3137 18.371C96.7928 18.1234 97.1932 17.7901 97.5145 17.3726C97.8362 16.9551 98.0747 16.4764 98.2337 15.9351C98.3904 15.3935 98.4704 14.8297 98.4704 14.2434C98.4704 13.6231 98.3904 13.0284 98.2338 12.4584C98.0748 11.8894 97.833 11.39 97.506 10.9613ZM81.7108 13.8543L83.2834 9.42176H83.3171L84.8394 13.8543H81.7108ZM81.9641 6.44452L77.3982 18.5231H80.0703L81.0168 15.8332H85.5328L86.4453 18.5231H89.2026L84.6876 6.44452H81.9641ZM77.1948 14.6917C77.039 14.4178 76.8255 14.181 76.5692 13.9976C76.3099 13.8121 76.0134 13.6623 75.6814 13.549C75.3453 13.4361 75.0036 13.3405 74.6577 13.2624C74.3263 13.1847 73.9939 13.1112 73.6606 13.042C73.3336 12.974 73.0427 12.898 72.7889 12.814C72.5355 12.7291 72.3305 12.6199 72.1725 12.4834C72.0141 12.3484 71.9359 12.174 71.9359 11.9593C71.9359 11.7788 71.9799 11.6352 72.0706 11.5279C72.1603 11.4218 72.2732 11.3377 72.4006 11.2823C72.5306 11.2263 72.6734 11.1899 72.8316 11.1724C72.9894 11.1557 73.1365 11.1478 73.2713 11.1478C73.7 11.1478 74.0721 11.2293 74.3884 11.3928C74.7031 11.5564 74.8785 11.8694 74.9118 12.3314H77.1948C77.1497 11.7905 77.0119 11.3424 76.7805 10.9862C76.5498 10.6314 76.2589 10.3465 75.9098 10.1326C75.5609 9.91822 75.1632 9.76625 74.7171 9.67571C74.2717 9.58535 73.8126 9.54075 73.3399 9.54075C72.8654 9.54075 72.4029 9.58309 71.953 9.66682C71.5012 9.75188 71.0955 9.89903 70.7352 10.1072C70.3739 10.3157 70.084 10.6 69.8636 10.9613C69.6434 11.3221 69.5336 11.7851 69.5336 12.3484C69.5336 12.732 69.6133 13.0568 69.7713 13.3215C69.9277 13.5869 70.1373 13.806 70.3957 13.981C70.6558 14.1558 70.9519 14.2972 71.2843 14.4036C71.6207 14.5124 71.9619 14.6058 72.3069 14.6835C73.1647 14.8642 73.8329 15.044 74.3116 15.225C74.7908 15.4052 75.0305 15.6757 75.0305 16.037C75.0305 16.2512 74.9802 16.4279 74.8785 16.5691C74.7785 16.709 74.6485 16.8246 74.498 16.9076C74.3449 16.9926 74.1757 17.055 73.9905 17.0935C73.8045 17.1333 73.6264 17.1532 73.4574 17.1532C73.2206 17.1532 72.9925 17.1248 72.7732 17.0685C72.5528 17.0121 72.3583 16.9245 72.1893 16.8061C72.0203 16.6879 71.8815 16.5359 71.7746 16.3492C71.6683 16.163 71.6136 15.9412 71.6136 15.6811H69.3308C69.3538 16.2676 69.4858 16.7557 69.7289 17.1445C69.9702 17.5336 70.2801 17.8463 70.6585 18.0836C71.0361 18.3199 71.4678 18.4896 71.953 18.5914C72.4421 18.6932 72.9403 18.7442 73.4399 18.7435C73.9362 18.7435 74.4239 18.6951 74.9035 18.6001C75.3827 18.5039 75.8083 18.3375 76.1804 18.1002C76.5533 17.8638 76.8536 17.5509 77.0855 17.1615C77.3159 16.7719 77.4314 16.2899 77.4314 15.7146C77.4314 15.308 77.3526 14.968 77.1948 14.6917ZM67.2682 7.15523H64.8662V9.77693H63.4123V11.3839H64.8661V16.5438C64.8661 16.9842 64.9402 17.3391 65.0863 17.6095C65.2331 17.8798 65.4329 18.0897 65.6864 18.2359C65.9401 18.3826 66.2335 18.4809 66.5662 18.5317C66.8979 18.5821 67.2517 18.6076 67.6229 18.6076C67.8606 18.6076 68.1022 18.6016 68.3508 18.5914C68.5982 18.5798 68.8235 18.5579 69.0269 18.5231V16.662C68.9138 16.6849 68.7956 16.7027 68.6712 16.7128C68.542 16.7246 68.4123 16.7304 68.2825 16.7303C67.877 16.7303 67.6061 16.662 67.4704 16.5268C67.3359 16.3918 67.2681 16.1211 67.2681 15.7147V11.3839H69.0269V9.77693H67.2681L67.2682 7.15523ZM60.385 15.1391C60.385 15.2756 60.3713 15.4559 60.3426 15.6811C60.3147 15.9073 60.2384 16.1292 60.1146 16.3493C59.9904 16.5691 59.7982 16.7588 59.5396 16.9159C59.2803 17.0743 58.9139 17.1532 58.4399 17.1532C58.2487 17.1532 58.0623 17.1363 57.882 17.1018C57.7013 17.0685 57.5439 17.0088 57.4085 16.9245C57.2734 16.8399 57.166 16.7242 57.087 16.5777C57.0085 16.4311 56.9686 16.2512 56.9686 16.0371C56.9686 15.8116 57.0086 15.6243 57.087 15.4784C57.1632 15.3354 57.2703 15.2111 57.4004 15.1145C57.5294 15.0188 57.6819 14.9428 57.8566 14.8858C58.0313 14.8296 58.2093 14.7845 58.3896 14.7508C58.5807 14.7177 58.7729 14.6885 58.964 14.6661C59.1483 14.6448 59.3317 14.6167 59.5139 14.5818C59.6801 14.5501 59.844 14.5075 60.0047 14.4544C60.1568 14.4036 60.2833 14.3341 60.385 14.2434V15.1391ZM62.7863 16.5776V12.0274C62.7863 11.4965 62.6684 11.0712 62.4309 10.7503C62.1946 10.4286 61.89 10.1779 61.5184 9.99732C61.1459 9.817 60.734 9.69555 60.2832 9.63365C59.8406 9.57226 59.3944 9.54121 58.9476 9.54075C58.463 9.54075 57.9805 9.58829 57.502 9.6844C57.0217 9.78023 56.5914 9.94128 56.2077 10.1664C55.8275 10.3886 55.5036 10.6954 55.2611 11.0629C55.0123 11.435 54.8716 11.9031 54.8379 12.4671H57.239C57.2842 11.9933 57.4427 11.6546 57.7134 11.4519C57.9838 11.2487 58.3554 11.1478 58.8295 11.1478C59.0433 11.1478 59.2432 11.162 59.4297 11.1899C59.6153 11.2184 59.779 11.2741 59.9202 11.3591C60.0613 11.4436 60.1739 11.5616 60.258 11.7145C60.3426 11.8664 60.385 12.0728 60.385 12.3314C60.3962 12.5804 60.3226 12.7681 60.1654 12.898C60.007 13.0284 59.7932 13.1274 59.5226 13.1941C59.2519 13.2624 58.9417 13.3134 58.592 13.3461C58.2423 13.3807 57.8876 13.4266 57.5271 13.4822C57.166 13.5389 56.8079 13.6148 56.4535 13.7107C56.0984 13.806 55.7817 13.9505 55.5059 14.1414C55.2294 14.3341 55.0041 14.5903 54.8288 14.9118C54.6544 15.2334 54.5672 15.6426 54.5672 16.1382C54.5672 16.5892 54.6432 16.9782 54.7954 17.3049C54.9475 17.6329 55.1589 17.9025 55.4297 18.1171C55.7006 18.3315 56.016 18.4896 56.3767 18.5914C56.737 18.6926 57.1262 18.7435 57.5439 18.7435C58.085 18.7435 58.6151 18.6642 59.1329 18.5071C59.6518 18.3481 60.1033 18.0727 60.4867 17.6775C60.4979 17.8239 60.5176 17.9683 60.5453 18.1089C60.5735 18.2491 60.6104 18.3875 60.6556 18.5231H63.0912C62.9786 18.3437 62.899 18.0727 62.8544 17.7113C62.8087 17.3505 62.7863 16.9734 62.7863 16.5776ZM52.8927 10.5296C52.6563 10.2193 52.332 9.97729 51.9211 9.80197C51.509 9.62807 50.9819 9.54075 50.3396 9.54075C49.8884 9.54075 49.4264 9.65605 48.9522 9.8876C48.479 10.1182 48.0899 10.4879 47.7857 10.9957H47.735V6.44461H45.3334V18.5232H47.7349V13.9388C47.7349 13.0479 47.8813 12.4083 48.1747 12.0185C48.4676 11.6299 48.9412 11.4351 49.5954 11.4351C50.1701 11.4351 50.5704 11.6127 50.796 11.9684C51.0216 12.3232 51.1343 12.8621 51.1343 13.5836V18.5232H53.5359V13.1437C53.5359 12.6028 53.4876 12.1095 53.392 11.6631C53.2961 11.2185 53.1297 10.8403 52.8927 10.5296ZM40.2091 14.768H40.1757L38.1125 6.44471H35.6264L33.529 14.6663H33.4954L31.5842 6.44471H28.9295L32.1256 18.5233H34.8149L36.8269 10.3015H36.8608L38.9071 18.5232H41.5454L44.7927 6.44452H42.1883L40.2091 14.768ZM6.87381 21.0346L7.25005 21.2577C8.8312 22.196 10.6439 22.6923 12.4925 22.6933H12.4965C18.1734 22.6933 22.7938 18.0738 22.7961 12.3966C22.7971 9.64508 21.7268 7.05807 19.7822 5.11193C17.8374 3.16598 15.2516 2.09339 12.5003 2.09235C6.81899 2.09235 2.19879 6.71103 2.19643 12.3882C2.19568 14.3337 2.73986 16.2282 3.77106 17.8677L4.01621 18.2574L2.97547 22.0567L6.87381 21.0346ZM0.00012207 24.9999L1.75819 18.5808C0.673787 16.7019 0.103327 14.5707 0.104272 12.3874C0.106918 5.55707 5.66569 0 12.4965 0C15.8112 0.00132313 18.9225 1.29147 21.2622 3.63295C23.6017 5.97452 24.8897 9.0871 24.8886 12.3974C24.8857 19.2274 19.326 24.7854 12.4965 24.7854H12.4912C10.4173 24.7845 8.37934 24.2645 6.56949 23.2773L0.00012207 24.9999Z" fill="#5F6368"/>
<path d="M0.530971 12.3914C0.530215 14.4989 1.08089 16.5565 2.12793 18.3702L0.430664 24.5674L6.7725 22.9045C8.52666 23.8593 10.492 24.3597 12.4892 24.36H12.4943C19.0874 24.36 24.4542 18.9949 24.457 12.4009C24.4582 9.20532 23.215 6.20081 20.9562 3.94027C18.6978 1.67986 15.6942 0.434343 12.4938 0.432833C5.90011 0.432833 0.533617 5.79744 0.530971 12.3914ZM12.4943 24.36C12.4941 24.36 12.4942 24.36 12.4943 24.36V24.36Z" fill="url(#paint0_linear_8_2533)"/>
<path d="M0.104087 12.3877C0.103331 14.5708 0.673788 16.7022 1.75813 18.5809L0 25L6.56928 23.2775C8.38624 24.2669 10.4221 24.7854 12.491 24.7857H12.4963C19.3258 24.7857 24.8855 19.2276 24.8884 12.3976C24.8895 9.08727 23.6015 5.97476 21.2621 3.63319C18.9223 1.29176 15.8112 0.00163269 12.4963 0.000120163C5.66552 0.000120163 0.106859 5.55715 0.104087 12.3877ZM4.01615 18.2574L3.77093 17.8679C2.73976 16.2285 2.19552 14.3338 2.19627 12.3884C2.19854 6.7113 6.81892 2.09256 12.5002 2.09256C15.2514 2.0937 17.8372 3.16619 19.7819 5.1122C21.7267 7.05834 22.7968 9.64538 22.796 12.3967C22.7935 18.0741 18.1731 22.6933 12.4963 22.6933H12.4923C10.6438 22.6923 8.83096 22.1961 7.24988 21.2579L6.87361 21.0349L2.97528 22.057L4.01615 18.2574ZM12.4963 24.7857C12.496 24.7857 12.4962 24.7857 12.4963 24.7857V24.7857Z" fill="url(#paint1_linear_8_2533)"/>
<path fill-rule="evenodd" clip-rule="evenodd" d="M9.39875 7.20823C9.16682 6.69258 8.9227 6.68228 8.70202 6.67321C8.52151 6.66546 8.31491 6.66602 8.10869 6.66602C7.90209 6.66602 7.56668 6.74352 7.28306 7.05333C6.99915 7.36332 6.19922 8.11221 6.19922 9.63561C6.19922 11.1591 7.30886 12.6312 7.46347 12.838C7.61838 13.0444 9.60553 16.2706 12.7527 17.5117C15.3684 18.543 15.9006 18.338 16.4684 18.2863C17.0361 18.2348 18.3003 17.5375 18.5582 16.8145C18.8163 16.0915 18.8163 15.4718 18.7389 15.3424C18.6616 15.2133 18.455 15.1358 18.1454 14.9811C17.8357 14.8262 16.3134 14.0771 16.0297 13.9737C15.7458 13.8705 15.5394 13.819 15.3328 14.129C15.1264 14.4386 14.5335 15.1358 14.3528 15.3424C14.1722 15.5494 13.9914 15.5751 13.6818 15.4203C13.3721 15.2649 12.3748 14.9383 11.1918 13.8835C10.2713 13.0628 9.64995 12.0493 9.46925 11.7393C9.28874 11.4297 9.44997 11.262 9.60516 11.1076C9.74427 10.9689 9.91496 10.746 10.0698 10.5653C10.2243 10.3845 10.2758 10.2555 10.379 10.0489C10.4824 9.8423 10.4307 9.66141 10.3533 9.50661C10.2758 9.3517 9.67415 7.82055 9.39875 7.20823Z" fill="white"/>
<defs>
<linearGradient id="paint0_linear_8_2533" x1="12.4438" y1="24.5674" x2="12.4438" y2="0.432916" gradientUnits="userSpaceOnUse">
<stop stop-color="#20B038"/>
<stop offset="1" stop-color="#60D66A"/>
</linearGradient>
<linearGradient id="paint1_linear_8_2533" x1="12.4442" y1="25.0001" x2="12.4442" y2="0.000188478" gradientUnits="userSpaceOnUse">
<stop stop-color="#F9F9F9"/>
<stop offset="1" stop-color="white"/>
</linearGradient>
</defs>
</svg>
