<svg width="113" height="25" viewBox="0 0 113 25" fill="none" xmlns="http://www.w3.org/2000/svg">
<g clip-path="url(#clip0_8_2483)">
<path d="M41.4821 4.02819H46.8843C49.1951 4.02819 50.2256 5.63548 50.2256 7.20736C50.2256 8.77923 49.1951 10.3855 46.8843 10.3855H41.4821V4.02819ZM45.2142 12.8865L50.3676 18.8146H53.7451L48.2351 12.5646L48.7327 12.4574C52.4296 11.7074 52.9987 8.77923 52.9987 7.13548C52.9987 3.27819 49.8347 1.52819 46.8843 1.49277H38.7441V18.8157H41.5173V12.8146H45.1789L45.2142 12.8865ZM57.3 11.6355L57.4057 11.2428C57.8681 9.56465 59.2904 8.56465 61.2104 8.56465C63.2714 8.56465 64.5506 9.56465 64.7642 11.2792L64.7995 11.6365L57.3 11.6355ZM65.7594 8.17194C64.7279 7.02819 63.1293 6.42194 61.1378 6.42194C57.3352 6.42194 54.7756 8.95736 54.7756 12.7074C54.7756 16.6719 57.2989 19.1365 61.3866 19.1365C63.3066 19.1365 65.1913 18.4584 66.3628 17.3865L64.7995 15.8511C63.911 16.5646 62.4534 16.9219 61.4582 16.9219C59.2189 16.9219 57.6545 15.7792 57.4057 13.9574L57.3705 13.6001H67.2523C67.3591 11.2792 66.8614 9.38548 65.7594 8.17194ZM101.839 6.74277H99.3505V18.8157H101.839V6.74277ZM107.775 17.9584C108.485 18.6355 109.552 18.9938 110.796 18.9584C111.614 18.9219 112.253 18.8146 113 18.5292L112.324 16.4574C111.907 16.6338 111.461 16.7309 111.009 16.7438C109.8 16.7438 109.089 15.9574 109.089 14.6365V8.88548H112.573V6.81257H109.126V3.27923L106.636 3.52923V6.81569H104.29V8.88548H106.636V14.6355C106.636 16.1001 107.028 17.2084 107.775 17.9584ZM75.2846 16.7792C74.2488 16.7757 73.2564 16.3605 72.5242 15.6243C71.7919 14.8882 71.3793 13.8909 71.3763 12.8501C71.3795 11.8095 71.7923 10.8124 72.5245 10.0765C73.2568 9.34055 74.249 8.92551 75.2846 8.92194C76.3206 8.92496 77.3133 9.33975 78.046 10.0757C78.7787 10.8117 79.1917 11.8091 79.195 12.8501C79.192 13.891 78.7792 14.8885 78.0467 15.6247C77.3143 16.3609 76.3206 16.7759 75.2846 16.7792ZM81.7194 18.7792V6.77923H79.3018V7.85007L79.0178 7.63548C77.9306 6.84878 76.6254 6.42436 75.2856 6.42194C74.4498 6.42098 73.622 6.58567 72.8496 6.90658C72.0773 7.22749 71.3754 7.69832 70.7844 8.29212C70.1933 8.88591 69.7246 9.59101 69.4051 10.3671C69.0856 11.1431 68.9216 11.9748 68.9224 12.8146C68.9216 13.6545 69.0856 14.4862 69.4051 15.2622C69.7246 16.0383 70.1933 16.7434 70.7844 17.3372C71.3754 17.931 72.0773 18.4018 72.8496 18.7227C73.622 19.0436 74.4498 19.2083 75.2856 19.2074C76.6254 19.2049 77.9306 18.7805 79.0178 17.9938L79.3018 17.7792V18.7792H81.7194ZM90.7832 8.81465C91.8192 8.81767 92.812 9.23246 93.5446 9.96845C94.2773 10.7044 94.6904 11.7018 94.6937 12.7428C94.6906 13.7839 94.2777 14.7816 93.545 15.5178C92.8123 16.254 91.8194 16.6689 90.7832 16.6719C89.7474 16.6686 88.7549 16.2537 88.0225 15.5178C87.2901 14.7818 86.8771 13.7846 86.8739 12.7438C86.8722 12.2275 86.9722 11.7159 87.1681 11.2385C87.3639 10.7611 87.6518 10.3273 88.0152 9.96216C88.3785 9.59699 88.8101 9.30761 89.2852 9.11068C89.7602 8.91374 90.2693 8.81314 90.7832 8.81465ZM90.7832 19.1365C91.619 19.1375 92.4468 18.9728 93.2192 18.6519C93.9916 18.331 94.6934 17.8601 95.2845 17.2663C95.8755 16.6726 96.3442 15.9675 96.6638 15.1914C96.9833 14.4154 97.1473 13.5836 97.1465 12.7438C97.1474 11.9039 96.9835 11.0721 96.664 10.2959C96.3446 9.51974 95.8759 8.81452 95.2849 8.22061C94.6938 7.62671 93.9919 7.15578 93.2195 6.83481C92.447 6.51383 91.6191 6.34911 90.7832 6.35007C89.4434 6.35278 88.1381 6.77757 87.0511 7.56465L86.7671 7.77923V6.77923H84.3495V23.8855H86.7671V17.7084L87.0511 17.923C88.1381 18.7101 89.4434 19.1339 90.7832 19.1365ZM100.595 1.4209C99.8481 1.4209 99.0654 1.88548 99.0654 2.95736C99.0654 3.99277 99.8481 4.49277 100.595 4.49277C101.341 4.49277 102.123 4.02819 102.123 2.95736C102.123 1.88548 101.341 1.4209 100.595 1.4209Z" fill="black"/>
<path d="M28.4362 0.170898L17.0615 0.208398L22.7136 3.92194V12.1011L28.4362 8.24381V0.170898Z" fill="#96BFC2"/>
<path d="M22.7137 12.0996L11.3743 12.1361L16.9911 15.8507V24.0288L22.7137 20.1715V12.0996Z" fill="#D1263D"/>
<path d="M11.3746 4.06458L0 4.1L5.65207 7.85V15.9937L11.3746 12.1365V4.0625V4.06458Z" fill="#FF9E1C"/>
</g>
<defs>
<clipPath id="clip0_8_2483">
<rect width="113" height="25" fill="white"/>
</clipPath>
</defs>
</svg>
