<svg width="99" height="25" viewBox="0 0 99 25" fill="none" xmlns="http://www.w3.org/2000/svg">
<g clip-path="url(#clip0_8_2539)">
<path d="M0 3.41249V6.44157L3.46168 9.80385L7.54727 12.1261L8.30199 7.02719L7.54727 2.28163L5.43403 0.696415C3.18998 -0.999869 0 0.605543 0 3.41249Z" fill="#C5221F"/>
<path d="M25.661 2.28211L24.9062 7.08825L25.661 12.1266L29.3642 10.289L33.2082 6.45215V3.42307C33.2082 0.616121 30.0183 -0.989291 27.7742 0.696896L25.661 2.28211Z" fill="#FFBA00"/>
<path d="M2.26418 24.9996H7.54727V12.126L0 6.44141V22.7177C0 23.9697 1.01637 24.9895 2.26418 24.9895V24.9996Z" fill="#2684FC"/>
<path d="M25.6611 24.9996H30.9442C32.192 24.9996 33.2084 23.9798 33.2084 22.7278V6.44141L25.6611 12.1159V24.9895V24.9996Z" fill="#00AC47"/>
<path d="M16.6036 9.09765L7.54688 2.28223V12.1267L16.6036 18.9422L25.6603 12.1267V2.28223L16.6036 9.09765Z" fill="#E94235"/>
<path d="M59.6137 13.1464C59.6137 15.3677 58.9596 17.1347 57.6413 18.4574C56.1621 20.0224 54.2199 20.81 51.8149 20.81C49.4098 20.81 47.5683 20.0123 45.9682 18.4069C44.3682 16.8015 43.5732 14.8427 43.5732 12.5002C43.5732 10.1577 44.3682 8.18881 45.9682 6.5935C47.5582 4.99818 49.5104 4.19043 51.8149 4.19043C52.9822 4.19043 54.079 4.40247 55.1155 4.81644C56.152 5.23041 56.9973 5.81604 57.6615 6.57331L56.2023 8.03736C55.7193 7.44164 55.0853 6.98728 54.3004 6.66418C53.5356 6.32088 52.7105 6.14923 51.8249 6.14923C50.0941 6.14923 48.6349 6.74495 47.4374 7.94649C46.2601 9.15812 45.6664 10.6828 45.6664 12.5002C45.6664 14.3176 46.2601 15.8423 47.4374 17.0539C48.6349 18.2555 50.0941 18.8512 51.8249 18.8512C53.4048 18.8512 54.713 18.4069 55.7696 17.5184C56.8162 16.6298 57.42 15.4081 57.581 13.8532H51.8249V11.9449H59.503C59.5734 12.3588 59.6137 12.7627 59.6137 13.1464ZM63.8603 20.4566H61.8276V9.57209H63.7798V11.0866H63.8704C64.1823 10.5515 64.6553 10.1072 65.2892 9.75384C65.9433 9.40045 66.5773 9.2187 67.2113 9.2187C68.0063 9.2187 68.7107 9.40045 69.3144 9.77403C69.9182 10.1476 70.361 10.6525 70.6428 11.3088C71.5384 9.91539 72.7862 9.2187 74.3862 9.2187C75.6441 9.2187 76.6101 9.60238 77.2844 10.3698C77.9586 11.1371 78.3007 12.2377 78.3007 13.6613V20.4566H76.268V13.9744C76.268 12.9546 76.0869 12.2175 75.7145 11.7732C75.3422 11.3189 74.7284 11.0866 73.8529 11.0866C73.068 11.0866 72.4139 11.4198 71.8805 12.0862C71.3472 12.7526 71.0855 13.5402 71.0855 14.4388V20.4566H69.0528V13.9744C69.0528 12.9546 68.8717 12.2175 68.4993 11.7732C68.127 11.3189 67.5132 11.0866 66.6377 11.0866C65.8528 11.0866 65.1987 11.4198 64.6653 12.0862C64.132 12.7526 63.8704 13.5402 63.8704 14.4388V20.4566H63.8603ZM82.1247 17.1246C82.1247 17.6597 82.3461 18.104 82.7888 18.4574C83.2417 18.8108 83.775 18.9925 84.3788 18.9925C85.2341 18.9925 85.9989 18.6694 86.6631 18.0333C87.3373 17.3972 87.6795 16.65 87.6795 15.7918C87.0455 15.287 86.1599 15.0345 85.0228 15.0345C84.1977 15.0345 83.5033 15.2365 82.9398 15.6303C82.3964 16.0341 82.1247 16.5289 82.1247 17.1145V17.1246ZM84.7612 9.2086C86.2706 9.2086 87.4581 9.61248 88.3235 10.4303C89.199 11.228 89.6317 12.3286 89.6317 13.7421V20.4465H87.6795V18.9319H87.5889C86.7436 20.1739 85.6266 20.7999 84.2278 20.7999C83.0303 20.7999 82.024 20.4465 81.219 19.7296C80.424 19.0228 80.0215 18.1343 80.0215 17.064C80.0215 15.9433 80.4441 15.0446 81.2794 14.3782C82.1347 13.7118 83.2719 13.3786 84.6908 13.3786C85.8983 13.3786 86.8945 13.6008 87.6795 14.045V13.5806C87.6795 12.8738 87.3977 12.268 86.8342 11.7833C86.2706 11.2785 85.6165 11.0261 84.8618 11.0261C83.7247 11.0261 82.8291 11.5107 82.1649 12.4699L80.3737 11.3391C81.3599 9.91539 82.819 9.2086 84.7612 9.2086ZM94.6431 5.81604C94.6431 6.21991 94.5022 6.55311 94.2204 6.83583C93.9387 7.11854 93.5965 7.2599 93.2041 7.2599C92.8116 7.2599 92.4695 7.11854 92.1877 6.83583C91.9059 6.55311 91.7651 6.20982 91.7651 5.81604C91.7651 5.42226 91.9059 5.07896 92.1877 4.79625C92.4695 4.51353 92.8116 4.37217 93.2041 4.37217C93.5965 4.37217 93.9387 4.51353 94.2204 4.79625C94.5022 5.07896 94.6431 5.42226 94.6431 5.81604ZM94.2305 9.57209V20.4566H92.1978V9.57209H94.2305ZM99.0004 4.54382V20.4465H96.9676V4.54382H99.0004Z" fill="#5F6368"/>
</g>
<defs>
<clipPath id="clip0_8_2539">
<rect width="99" height="25" fill="white"/>
</clipPath>
</defs>
</svg>
