<svg width="101" height="25" viewBox="0 0 101 25" fill="none" xmlns="http://www.w3.org/2000/svg">
<g clip-path="url(#clip0_8_2514)">
<path d="M0 25V14.6701L17.8141 0V10.6233L0 25ZM3.22088 11.7826L0 9.96493V0L3.22088 1.91069V11.7826ZM27.7286 11.9687L23.5145 0.561758H28.4097L30.5806 8.18663L35.6602 0.561758H41.3606L32.4074 12.0116L30.9601 18.9065H26.2743L27.7286 11.9687ZM45.6031 0.561758H50.406L53.3821 18.9065H48.6147L48.1819 15.6254H41.7721L39.9381 18.9065H34.9472L45.6031 0.561758ZM43.5918 12.0617H47.774L47.0645 5.4673H47.0326L43.5918 12.0617ZM58.2737 0.561758H67.1985C69.0904 0.561758 70.4844 0.864701 71.3807 1.47059C72.4945 2.2196 73.0526 3.50055 73.055 5.31344C73.055 8.33333 71.6704 10.0413 68.9012 10.4372V10.4694C70.1427 10.7795 70.7623 11.8005 70.7599 13.5323C70.7599 14.0117 70.7599 14.6057 70.7138 15.3607C70.6677 16.1156 70.6677 16.6345 70.6677 16.9708C70.6677 17.9261 70.7599 18.5738 70.9479 18.9065H66.1769C66.0919 18.569 66.0396 18.2238 66.0209 17.8761C66.0209 17.5827 66.0421 17.0889 66.0812 16.3912C66.1202 15.6934 66.145 15.1245 66.145 14.688C66.145 13.0421 65.3587 12.2191 63.7861 12.2191H60.622L59.2386 18.9065H54.4959L58.2737 0.561758ZM61.3669 8.68756H65.1411C67.2695 8.68756 68.3336 7.84433 68.3336 6.15786C68.3336 4.88407 67.4799 4.24837 65.7726 4.25075H62.2821L61.3669 8.68756ZM76.9747 0.561758H83.7853C89.1937 0.561758 91.899 3.14513 91.9014 8.31186C91.9014 11.3532 91.0347 13.8328 89.3013 15.7507C87.3787 17.8546 84.6946 18.9065 81.2491 18.9065H73.0905L76.9747 0.561758ZM78.7483 14.8132H81.8769C83.7144 14.8132 85.1084 14.0976 86.0591 12.6664C86.8158 11.4979 87.2041 10.1258 87.1729 8.7305C87.1564 6.01116 85.9503 4.6515 83.5548 4.6515H80.8305L78.7483 14.8132ZM96.2503 0.561758H101L97.2187 18.9065H92.4406L96.2503 0.561758Z" fill="#0072CE"/>
</g>
<defs>
<clipPath id="clip0_8_2514">
<rect width="101" height="25" fill="white"/>
</clipPath>
</defs>
</svg>
