<svg width="111" height="20" viewBox="0 0 111 20" fill="none" xmlns="http://www.w3.org/2000/svg">
<mask id="mask0_8_2467" style="mask-type:luminance" maskUnits="userSpaceOnUse" x="0" y="0" width="111" height="20">
<path d="M110.665 0H0V20H110.665V0Z" fill="white"/>
</mask>
<g mask="url(#mask0_8_2467)">
<path d="M99.5483 15.8843C96.2861 15.8843 93.7265 13.6008 93.7265 9.81155C93.7265 6.12272 96.1355 3.71368 99.5483 3.71368C103.137 3.71368 105.521 6.34856 105.521 9.83664C105.671 13.2243 102.911 16.0098 99.5483 15.8843ZM78.2183 19.2469H89.5107V15.6836H82.2083V0.376165H78.2183V19.2469ZM67.8043 12.321C65.345 12.4213 63.3375 10.4138 63.463 7.95458C63.3626 5.52046 65.3701 3.51293 67.8043 3.58821C70.3639 3.58821 72.2208 5.3197 72.2208 7.95458C72.2208 10.5895 70.3639 12.321 67.8043 12.321ZM59.473 19.272H63.463V12.5217C64.4667 14.6296 66.6248 15.9345 68.9586 15.8843C72.8984 15.8843 76.1857 12.6472 76.1857 7.95458C76.1857 3.28708 72.8984 -0.000246501 68.9335 -0.000246501C66.5245 -0.000246501 64.542 1.20427 63.4379 3.36237V0.351073H59.4479L59.473 19.272ZM47.6788 15.9345C44.3413 15.9345 41.7566 13.5506 41.7566 9.86174C41.7566 6.1729 44.3664 3.66349 47.6788 3.66349C51.0163 3.66349 53.5508 6.1729 53.5508 9.86174C53.5508 13.5506 51.0163 15.9345 47.6788 15.9345ZM47.729 19.6484C53.4504 19.6484 57.591 15.6836 57.591 9.88683C57.591 4.09009 53.4253 0.0248491 47.729 0.0248491C42.0075 0.0248491 37.7917 4.09009 37.7917 9.88683C37.7666 15.6836 42.0075 19.6484 47.729 19.6484ZM26.2735 15.9345C22.9611 15.9345 20.3764 13.5506 20.3764 9.86174C20.3764 6.1729 22.9611 3.66349 26.2735 3.66349C29.611 3.66349 32.1706 6.1729 32.1706 9.86174C32.1706 13.5506 29.611 15.9345 26.2735 15.9345ZM26.3237 19.6484C32.0452 19.6484 36.1857 15.6836 36.1857 9.88683C36.1857 4.09009 32.0452 0.0248491 26.3237 0.0248491C20.6023 0.0248491 16.3614 4.09009 16.3614 9.88683C16.3614 15.6836 20.6023 19.6484 26.3237 19.6484ZM0 19.2469H15.5082V15.6836H4.29109C4.39147 12.873 6.399 12.1202 8.68256 11.3423C11.8193 10.2632 15.4329 8.90816 15.4329 1.80653V0.376165H0.0501874V3.91444H11.2171C11.1167 6.54932 9.15935 7.25195 6.92597 8.00478C3.76411 9.08382 0.0250937 10.4389 0.0250937 17.7915L0 19.2469ZM98.8206 19.6233C101.556 19.7237 104.115 18.3184 105.521 15.9847V19.2469H109.511V0.376165H105.521V3.61331C104.115 1.27955 101.556 -0.100623 98.8206 -0.000246501C93.8268 -0.000246501 89.7114 4.09009 89.7114 9.81155C89.6863 15.533 93.8268 19.6233 98.8206 19.6233Z" fill="#8046F1"/>
</g>
</svg>
