<svg width="166" height="25" viewBox="0 0 166 25" fill="none" xmlns="http://www.w3.org/2000/svg">
<path d="M10.3506 0.13224C10.571 -0.0440798 10.8796 -0.0440798 11.0779 0.13224C12.4664 1.07996 13.877 2.02768 15.2655 2.97539C15.4859 3.10763 15.4198 3.39415 15.2655 3.54843C14.2737 4.91491 13.304 6.30342 12.3122 7.64785C12.1579 7.91233 11.8273 7.82417 11.5848 7.75805L4.62025 5.81854C4.15741 5.70834 3.71661 5.5761 3.27581 5.39978C3.67253 5.0251 4.09129 4.69451 4.53209 4.40799C6.49364 2.97539 8.41111 1.54279 10.3506 0.13224ZM17.0948 1.41056C17.5136 1.63096 17.9103 1.87339 18.2629 2.18195C20.2465 3.65863 22.2521 5.11326 24.2357 6.5679C24.4561 6.70014 24.5663 6.96461 24.4782 7.20705C24.0374 8.79393 23.5966 10.3808 23.1558 11.9677C23.1117 12.1881 22.9574 12.5187 22.6709 12.3864C21.062 11.8354 19.431 11.3285 17.8221 10.7775C17.6017 10.7334 17.4475 10.5351 17.4695 10.3147C17.3373 7.49357 17.2271 4.67246 17.0728 1.85135C17.0728 1.76319 17.0948 1.52076 17.0948 1.41056ZM4.06925 7.73602C4.20149 7.5597 4.46597 7.53765 4.64229 7.66989C4.68637 7.69193 4.70841 7.73601 4.73044 7.78009C5.7002 9.10249 6.64791 10.4469 7.59563 11.7914C7.79399 11.9677 7.81603 12.2762 7.66175 12.4966C6.141 14.8769 4.57617 17.2132 3.05541 19.5935C2.98929 19.7257 2.85706 19.8359 2.72482 19.88C1.82118 17.1471 0.961626 14.4141 0.0800303 11.7032C0.0139106 11.4387 -0.0962885 11.064 0.16819 10.8657C1.4465 9.82981 2.7689 8.77189 4.06925 7.73602ZM23.3982 14.0615C23.9492 13.819 24.5223 13.6207 25.1173 13.4664C25.0733 13.7309 25.0071 13.9953 24.919 14.2598C24.0815 16.8385 23.266 19.4172 22.4285 21.9958C22.3844 22.3044 22.0318 22.3926 21.7673 22.3705C20.0261 22.3926 18.307 22.5468 16.5879 22.5468C16.5218 22.2824 16.4777 22.0179 16.4777 21.7534C16.4777 20.2988 16.4777 18.8221 16.4777 17.3675C16.4777 17.103 16.5218 16.8605 16.632 16.6181C18.88 15.8026 21.1281 14.921 23.3982 14.0615ZM10.02 17.7862C10.2845 17.676 10.6592 17.6319 10.8355 17.9405C12.5105 20.0563 14.1856 22.1942 15.8606 24.3321C16.0149 24.5304 16.1471 24.7288 16.2573 24.9492C15.2655 25.0594 14.2737 24.9492 13.304 24.9933C11.3424 24.9712 9.38086 24.9933 7.41931 24.9712C7.19891 24.9933 6.97851 24.861 6.93443 24.6406C6.3614 23.1199 5.83244 21.555 5.2594 20.0343C5.17124 19.8359 5.1492 19.6155 5.17124 19.3951C6.78015 18.8441 8.38907 18.3372 10.02 17.7862Z" fill="#74B71A"/>
<path d="M34.132 6.89868C34.8593 6.89868 35.5646 6.89868 36.2919 6.89868C37.9449 10.8438 39.5758 14.7669 41.2068 18.7121C41.3611 19.197 41.89 19.3292 42.3308 19.4174C42.3308 19.6598 42.3308 19.9022 42.3308 20.1447C40.6338 20.1447 38.9146 20.1447 37.2176 20.1447C37.2176 19.9022 37.2176 19.6598 37.2176 19.4174C37.7025 19.3733 38.2534 19.3733 38.6942 19.1529C39.0689 18.9325 39.0028 18.4476 38.8706 18.095C38.584 17.3677 38.2755 16.6624 37.989 15.9351C36.2037 15.9351 34.4185 15.9351 32.6333 15.9351C32.3468 16.6624 32.0602 17.3897 31.7958 18.117C31.7076 18.4256 31.6194 18.8443 31.906 19.0868C32.3688 19.3953 32.9418 19.3953 33.4708 19.4174C33.4708 19.6598 33.4708 19.9022 33.4708 20.1447C32.0602 20.1447 30.6497 20.1447 29.2391 20.1447C29.2391 19.9022 29.2391 19.6598 29.2391 19.4174C29.6799 19.3292 30.2089 19.219 30.3632 18.7341C31.7958 15.2077 33.2063 11.6813 34.6609 8.177C34.5067 7.7362 34.3083 7.31744 34.132 6.89868ZM33.03 14.9653C34.5728 14.9653 36.0935 14.9653 37.6363 14.9653C36.8209 13.0478 36.0935 11.0863 35.256 9.19083C34.5507 11.1303 33.7353 13.0258 33.03 14.9653ZM112.263 9.41123H112.792V11.3067C113.63 11.3067 114.489 11.3067 115.327 11.3067C115.327 11.6152 115.327 11.9238 115.327 12.2323C114.489 12.2323 113.63 12.2323 112.792 12.2323C112.792 13.9955 112.792 15.7587 112.792 17.544C112.792 18.0729 112.991 18.69 113.52 18.9104C114.093 19.1749 114.754 19.0427 115.349 18.8884C115.393 19.0647 115.459 19.241 115.503 19.4174C114.732 20.1667 113.608 20.4753 112.572 20.2108C111.712 19.9904 111.139 19.1308 111.139 18.2713C111.117 16.2657 111.139 14.26 111.139 12.2544H110.258C110.258 12.056 110.28 11.8356 110.28 11.6373C111.183 11.1083 111.668 10.2047 112.263 9.41123ZM69.7484 11.5491C70.5419 10.9981 71.0488 10.1385 71.6218 9.41123H72.1287C72.1287 10.0504 72.1287 10.6675 72.1287 11.3067C72.9883 11.3067 73.8258 11.3067 74.6854 11.3067C74.6854 11.6152 74.6854 11.9238 74.6854 12.2323C73.8258 12.2323 72.9663 12.2323 72.1287 12.2323C72.1287 13.9515 72.1287 15.6706 72.1287 17.3897C72.1287 17.9407 72.261 18.6019 72.7899 18.8884C73.385 19.197 74.0903 19.0868 74.6854 18.8884C74.7515 19.0647 74.7956 19.241 74.8617 19.4174C73.914 20.299 72.3271 20.6516 71.2251 19.8582C70.608 19.3733 70.4537 18.5578 70.4537 17.8305C70.4537 15.9571 70.4537 14.1057 70.4537 12.2323C70.1672 12.2323 69.8586 12.2323 69.5721 12.2323C69.5942 12.034 69.484 11.7254 69.7484 11.5491ZM45.2181 12.6731C46.0115 11.6813 47.2457 11.1303 48.524 11.1744C49.8905 11.1744 51.1468 11.9458 51.7419 13.1801C52.6896 15.2739 52.1827 18.0729 50.2652 19.4394C48.8326 20.4753 46.7168 20.6516 45.196 19.6818C45.218 20.7177 45.174 21.7316 45.2181 22.7674C45.3282 23.3625 46.0335 23.4066 46.5184 23.4948C46.5184 23.7152 46.5184 23.9355 46.5184 24.1559C45.1078 24.1559 43.6753 24.1559 42.2647 24.1559C42.2647 23.9355 42.2427 23.7152 42.2427 23.4948C42.7275 23.4066 43.543 23.3405 43.543 22.6793C43.5651 19.4614 43.543 16.2216 43.5651 13.0037C43.1683 12.8054 42.7496 12.607 42.3529 12.4307C42.3529 12.3205 42.3529 12.1001 42.3529 11.9899C43.3447 11.7475 44.2703 11.1303 45.3282 11.1744C45.2842 11.6593 45.2621 12.1662 45.2181 12.6731ZM45.2401 13.5327C45.2401 14.811 45.2401 16.1114 45.2401 17.3897C45.2401 18.0288 45.5486 18.6239 46.0776 18.9545C46.827 19.3512 47.7086 19.4614 48.524 19.219C49.3615 18.9766 50.0227 18.3374 50.2652 17.4999C50.6178 16.3538 50.5737 15.1196 50.1329 13.9955C49.8023 13.136 49.031 12.5409 48.1053 12.4527C47.0474 12.3646 45.9894 12.7613 45.2401 13.5327ZM127.537 13.4225C128.286 12.0119 129.895 11.1524 131.46 11.1524C132.496 11.1083 133.664 11.3507 134.347 12.1883C134.876 12.8274 134.92 13.9515 134.127 14.3923C133.73 14.3923 133.356 14.3923 132.959 14.3923C132.959 13.7311 133.047 12.8935 132.452 12.4307C131.791 12.0119 130.931 12.0781 130.226 12.3205C129.278 12.6731 128.683 13.6429 128.551 14.6347C128.397 15.6926 128.529 16.8828 129.168 17.7644C129.719 18.5137 130.689 18.8664 131.592 18.8223C132.672 18.8443 133.708 18.3594 134.391 17.5219C134.568 17.588 134.744 17.6762 134.92 17.7423C134.568 18.8443 133.686 19.7039 132.584 20.0786C131.041 20.5414 129.146 20.321 128 19.0868C126.633 17.5881 126.567 15.1637 127.537 13.4225ZM139.571 11.2185C140.959 10.9761 142.524 11.2846 143.56 12.2985C145.323 14.0176 145.279 17.1913 143.56 18.9325C141.885 20.6516 138.799 20.8059 137.058 19.1308C135.648 17.7423 135.449 15.4281 136.265 13.687C136.904 12.3646 138.138 11.4389 139.571 11.2185ZM139.262 12.2764C138.315 12.5409 137.764 13.4886 137.609 14.4143C137.389 15.7367 137.631 17.2134 138.491 18.2713C139.284 19.241 140.805 19.5716 141.907 18.9104C142.7 18.3815 143.031 17.4117 143.075 16.486C143.141 15.2739 142.877 13.9955 142.039 13.0699C141.334 12.2985 140.254 11.9899 139.262 12.2764ZM148.321 12.6511C149.136 11.6813 150.37 10.9981 151.649 11.1304C152.64 11.1524 153.5 11.7915 153.831 12.7172C154.492 11.9017 155.417 11.3287 156.453 11.1524C157.291 11.0422 158.217 11.1744 158.834 11.7915C159.296 12.2764 159.561 12.9156 159.561 13.5768C159.583 15.2959 159.539 16.993 159.583 18.69C159.627 19.3292 160.398 19.3733 160.883 19.4835C160.883 19.7039 160.883 19.9022 160.883 20.1226C159.451 20.1447 158.018 20.1226 156.586 20.1226C156.586 19.9022 156.586 19.6818 156.564 19.4614C157.048 19.3512 157.82 19.3072 157.864 18.668C157.886 17.1252 157.864 15.5604 157.886 14.0176C157.908 13.4445 157.621 12.8054 157.048 12.607C155.968 12.2323 154.8 12.7613 153.963 13.4225C153.941 15.0755 153.963 16.7285 153.963 18.4035C153.919 18.69 154.029 18.9766 154.227 19.1749C154.536 19.3733 154.933 19.3953 155.285 19.4835C155.285 19.7039 155.285 19.9243 155.285 20.1447H150.965C150.965 19.9243 150.965 19.7039 150.965 19.4835C151.45 19.3733 152.178 19.3512 152.266 18.7341C152.288 17.1693 152.266 15.5824 152.288 14.0176C152.31 13.4005 151.957 12.7393 151.34 12.585C150.282 12.2764 149.158 12.7833 148.343 13.4666C148.343 15.2077 148.321 16.9489 148.343 18.69C148.365 19.3512 149.158 19.3953 149.643 19.5055C149.643 19.7259 149.643 19.9463 149.621 20.1667H145.345C145.345 19.9463 145.345 19.7039 145.367 19.4835C145.852 19.4174 146.602 19.3512 146.624 18.7121C146.646 16.8167 146.646 14.8992 146.624 13.0037C146.227 12.7833 145.83 12.607 145.433 12.4307C145.433 12.3205 145.433 12.1001 145.433 11.9899C146.425 11.7254 147.351 11.1524 148.387 11.1524C148.365 11.6373 148.343 12.1442 148.321 12.6511ZM54.012 12.1883C54.607 11.505 55.5548 11.2406 56.4143 11.1524C57.4061 11.0863 58.5081 11.1524 59.3236 11.8136C60.0068 12.3425 60.2713 13.2462 60.2933 14.0617C60.3154 15.362 60.2933 16.6624 60.2933 17.9627C60.2933 18.3815 60.4476 18.8884 60.9104 19.0427C61.1749 19.0647 61.4394 19.0427 61.6818 18.9766C61.7259 19.1529 61.77 19.3512 61.792 19.5276C61.2631 20.1006 60.4476 20.4753 59.6762 20.1888C59.1032 19.9684 58.8607 19.3512 58.7065 18.8223C58.0893 19.4174 57.3841 20.0124 56.5025 20.1888C55.6209 20.3871 54.607 20.343 53.8797 19.7259C52.7557 18.8223 52.8438 16.6844 54.2764 16.1334C55.709 15.5824 57.1857 15.2298 58.6403 14.7669C58.6403 14.1278 58.5963 13.4445 58.2436 12.8715C57.7587 12.034 56.5686 11.7695 55.7311 12.2103C55.0919 12.585 55.2462 13.4225 55.3344 14.0396C54.8495 14.0837 54.3646 14.1719 53.9018 14.2159C53.483 13.5988 53.5271 12.7613 54.012 12.1883ZM55.5768 16.5962C54.9156 16.8166 54.7393 17.6542 54.9817 18.2272C55.158 18.8223 55.8192 19.0868 56.3923 19.0647C57.2518 19.0868 57.9791 18.5798 58.5963 18.0509C58.6624 17.2574 58.5963 16.4199 58.6183 15.6265C57.6265 15.9571 56.5906 16.2436 55.5768 16.5962ZM62.85 11.8577C63.7315 11.6152 64.5911 11.0863 65.5168 11.1304C65.4947 11.8356 65.4947 12.5409 65.4286 13.2462C65.8474 12.607 66.2221 11.9017 66.8612 11.4609C67.4122 11.0863 68.1175 11.0422 68.7126 11.3507C68.7126 11.7915 68.7126 12.2103 68.7126 12.6511C68.1836 12.6731 67.6547 12.607 67.1698 12.8054C66.4645 13.0258 65.9135 13.5768 65.4286 14.1278C65.4507 15.6485 65.3845 17.1693 65.4727 18.69C65.5829 19.4394 66.4865 19.3292 67.0375 19.4614C67.1477 19.6598 67.0816 19.9243 67.1037 20.1447C65.5609 20.1447 64.0401 20.1447 62.4973 20.1447C62.4973 19.9243 62.4973 19.7039 62.4973 19.4835C62.872 19.3953 63.2687 19.3733 63.5993 19.1308C63.8197 18.9104 63.8197 18.5578 63.8197 18.2713C63.8197 16.5081 63.8197 14.7449 63.8197 12.9817C63.445 12.8054 63.0483 12.6511 62.6736 12.4307C62.3871 12.2544 62.5855 11.8577 62.85 11.8577ZM75.5449 11.9458C76.5588 11.7034 77.4844 11.0863 78.5424 11.1304C78.4983 11.6593 78.4762 12.1883 78.4322 12.6952C79.2697 11.5712 80.7463 10.8879 82.1569 11.1744C82.9724 11.3287 83.6556 11.9017 83.9421 12.6731C84.7135 11.8136 85.7935 11.1083 86.9836 11.1083C87.7771 11.0863 88.6366 11.3287 89.1435 11.9679C89.5182 12.4527 89.6945 13.0699 89.6725 13.687C89.6725 15.34 89.6505 16.9709 89.6725 18.6019C89.6945 19.2631 90.4659 19.3292 90.9728 19.4394C90.9728 19.6598 90.9728 19.8802 90.9728 20.1006C89.5403 20.1006 88.1077 20.1006 86.6751 20.1006V19.4835C87.1379 19.3733 87.8211 19.3733 87.9754 18.8002C88.0195 17.2134 87.9754 15.6045 87.9975 13.9955C88.0415 13.4225 87.733 12.7833 87.1379 12.607C86.058 12.2544 84.9339 12.7833 84.0964 13.4225C84.0744 15.1857 84.0744 16.9489 84.0964 18.69C84.1405 19.3072 84.8898 19.3733 85.3747 19.4394L85.3968 20.1226C83.9642 20.1226 82.5316 20.1226 81.121 20.1226C81.121 19.9022 81.121 19.6818 81.121 19.4835C81.6279 19.3733 82.3993 19.3072 82.4214 18.646C82.4655 17.1473 82.4214 15.6485 82.4434 14.1498C82.4654 13.5547 82.2451 12.8715 81.65 12.6291C80.548 12.2103 79.3578 12.7393 78.4983 13.4225C78.4762 15.0755 78.4983 16.7285 78.4983 18.3815C78.4983 18.668 78.5424 18.9986 78.7848 19.1749C79.0934 19.3733 79.468 19.3953 79.8207 19.4614C79.8207 19.6818 79.8207 19.9022 79.7986 20.1226H75.5229V19.4614C76.0078 19.3512 76.7571 19.3072 76.8232 18.69C76.8673 16.7726 76.8232 14.8551 76.8453 12.9597C76.4265 12.7833 76.0298 12.585 75.6331 12.3646L75.5449 11.9899M92.6038 12.4748C93.9262 10.9981 96.3726 10.7116 98.0036 11.8136C99.0835 12.5409 99.4362 13.9294 99.348 15.1637C97.1881 15.1637 95.0502 15.1637 92.9124 15.1637C92.9344 16.3759 93.2209 17.7644 94.3449 18.4256C95.7996 19.241 97.8273 18.8664 98.8852 17.544C99.0615 17.6101 99.2378 17.6762 99.4141 17.7644C99.0394 18.9104 98.1358 19.8141 96.9677 20.1447C95.6012 20.4973 94.0144 20.3651 92.8683 19.4394C91.8765 18.646 91.3696 17.3456 91.3475 16.0893C91.3475 14.789 91.7002 13.4445 92.6038 12.4748ZM93.6176 12.9156C93.287 13.3123 93.0666 13.7751 92.9785 14.2821C94.4992 14.3041 96.02 14.2821 97.5407 14.2821C97.4967 13.8853 97.4746 13.4886 97.2322 13.158C96.4828 11.9679 94.5433 11.8797 93.6176 12.9156ZM100.053 11.9679C101.045 11.7254 101.971 11.1083 103.029 11.1524C103.007 11.6813 102.985 12.1883 102.94 12.7172C103.844 11.8577 105.012 11.1304 106.291 11.1524C107.04 11.1304 107.855 11.3508 108.384 11.9238C108.847 12.4527 109.001 13.1801 109.001 13.8633C109.001 15.4281 109.001 16.993 109.001 18.5578C109.024 18.7782 109.09 18.9766 109.2 19.1749C109.552 19.3292 109.927 19.4394 110.324 19.5055C110.324 19.7259 110.324 19.9463 110.324 20.1667H106.026C106.026 19.9463 106.026 19.7259 106.026 19.5055C106.379 19.4174 106.753 19.4174 107.062 19.197C107.371 18.9766 107.348 18.5798 107.348 18.2713C107.348 16.8607 107.348 15.4502 107.348 14.0396C107.348 13.4886 107.084 12.8495 106.511 12.6731C105.365 12.2985 104.131 12.7833 103.161 13.4005C102.985 13.4886 102.874 13.709 102.918 13.9074C102.918 15.3841 102.918 16.8387 102.918 18.3154C102.918 18.6239 102.918 19.0206 103.205 19.219C103.492 19.4174 103.888 19.4394 104.219 19.5276C104.219 19.748 104.219 19.9684 104.219 20.1888H99.9431C99.9431 19.9684 99.9431 19.748 99.9431 19.5276C100.428 19.4174 101.221 19.3733 101.243 18.7341C101.265 16.8167 101.243 14.9212 101.243 13.0258C100.847 12.8274 100.428 12.6291 100.031 12.4527C100.053 12.2985 100.053 12.1001 100.053 11.9679ZM117.046 11.7695C117.685 11.2846 118.523 11.1304 119.316 11.1524C120.264 11.1524 121.212 11.3728 122.049 11.8577V13.9515H121.366C121.212 13.3343 120.991 12.6952 120.418 12.3646C119.801 12.0119 119.052 11.9679 118.39 12.2103C117.575 12.4968 117.421 13.8192 118.192 14.26C119.316 14.8771 120.727 14.8992 121.763 15.7147C123.085 16.7726 122.798 19.197 121.212 19.9022C119.647 20.6075 117.641 20.4092 116.164 19.4835C116.142 18.7341 116.076 17.9848 116.054 17.2354H116.76C116.958 17.9407 117.266 18.7121 117.95 19.1088C118.677 19.5055 119.537 19.5496 120.308 19.219C121.19 18.8664 121.366 17.4558 120.528 16.9709C119.47 16.3979 118.214 16.3097 117.2 15.6706C115.834 14.8551 115.834 12.6952 117.046 11.7695ZM160.839 11.3287C161.456 11.3287 162.051 11.3287 162.669 11.3287V11.5932H161.897C161.897 12.2323 161.897 12.8715 161.897 13.5327H161.567C161.589 12.8935 161.567 12.2544 161.589 11.6152H160.839V11.3287ZM162.889 11.3067H163.352C163.55 11.9238 163.771 12.5189 163.947 13.136C164.189 12.5409 164.344 11.9017 164.608 11.3067C164.718 11.3067 164.917 11.2846 165.027 11.2846C165.027 12.034 165.027 12.7833 165.027 13.5327H164.74C164.74 12.9376 164.74 12.3425 164.718 11.7475C164.542 12.3425 164.322 12.9376 164.123 13.5327H163.815C163.616 12.9597 163.418 12.3866 163.198 11.8136C163.109 12.4307 163.352 13.0919 163.021 13.6429C162.757 12.9156 162.955 12.1001 162.889 11.3067ZM124.628 18.1611C125.355 17.8966 126.215 18.4917 126.104 19.2851C126.104 20.1226 125.002 20.6075 124.363 20.1006C123.68 19.6157 123.834 18.4476 124.628 18.1611Z" fill="#010101"/>
</svg>
