<svg width="163" height="20" viewBox="0 0 163 20" fill="none" xmlns="http://www.w3.org/2000/svg">
<g clip-path="url(#clip0_8_4096)">
<path d="M14.5704 3.28551C14.5704 5.09941 13.1035 6.57102 11.2939 6.57102C9.4844 6.57102 8.01953 5.09941 8.01953 3.28551C8.01953 1.47161 9.48645 0 11.296 0C13.1035 0 14.5704 1.47161 14.5704 3.28551Z" fill="#EE7755"/>
<path d="M6.55086 16.7142C6.55086 18.5281 5.08394 19.9997 3.2744 19.9997C1.46486 19.9997 0 18.5281 0 16.7142C0 14.9003 1.46692 13.4287 3.27645 13.4287C5.08599 13.4287 6.55086 14.8983 6.55086 16.7142Z" fill="#EE7755"/>
<path d="M22.5938 16.7142C22.5938 18.5281 21.1269 19.9997 19.3174 19.9997C17.5099 19.9997 16.043 18.5281 16.043 16.7142C16.043 14.9003 17.5099 13.4287 19.3174 13.4287C21.129 13.4287 22.5938 14.8983 22.5938 16.7142Z" fill="#EE7755"/>
<path d="M128.844 12.1743C128.844 7.62013 132.368 4.4248 136.745 4.4248C139.256 4.4248 141.525 5.4947 142.822 6.93352L140.979 8.87654C139.906 7.7841 138.406 7.09543 136.745 7.09543C133.848 7.09543 131.679 9.24136 131.679 12.1538C131.679 15.0089 133.786 17.2143 136.701 17.2143C138.343 17.2143 139.923 16.4847 140.895 15.4947V13.2278H136.56V10.7991H143.447V16.8495C141.605 18.7925 139.233 19.8644 136.621 19.8644C132.106 19.8665 128.844 16.6076 128.844 12.1743Z" fill="#232526"/>
<path d="M34.3047 14.0172H32.4624V19.6228H29.707V4.66895H35.2793C38.7014 4.66895 40.3017 6.91531 40.3017 9.34203C40.3017 11.1641 39.3497 12.9842 37.1627 13.6954L40.9315 19.6249H37.6489L34.3047 14.0172ZM32.4603 11.5269H34.9736C36.7749 11.5269 37.4642 10.457 37.4642 9.36253C37.4642 8.2291 36.7154 7.23914 35.2772 7.23914H32.4603V11.5269Z" fill="#232526"/>
<path d="M47.293 4.66895H57.2393V7.25964H50.0688V10.7809H56.6935V13.3511H50.0688V17.0342H57.2393V19.6249H47.293V4.66895Z" fill="#232526"/>
<path d="M71.9845 16.2226H66.6769L65.4418 19.6229H62.5039L68.2977 4.66699H70.4253L76.1575 19.6229H73.2196L71.9845 16.2226ZM67.4894 13.7344H71.1967L69.3543 8.61452L67.4894 13.7344Z" fill="#232526"/>
<path d="M81.9492 4.66895H84.7251V16.9727H92.4228V19.6228H81.9492V4.66895Z" fill="#232526"/>
<path d="M108.877 9.54494C108.877 12.0352 107.297 14.3431 103.487 14.3431H101.056V19.6249H98.3008V4.66895H103.709C107.377 4.66895 108.877 7.09772 108.877 9.54494ZM106.06 9.50395C106.06 8.31108 105.27 7.23914 103.77 7.23914H101.054V11.8118H103.567C105.311 11.8118 106.06 10.6374 106.06 9.50395Z" fill="#232526"/>
<path d="M121.32 16.2226H116.013L114.778 19.6229H111.84L117.634 4.66699H119.761L125.493 19.6229H122.556L121.32 16.2226ZM116.823 13.7344H120.531L118.688 8.61452L116.823 13.7344Z" fill="#232526"/>
<path d="M149.359 4.66895H159.306V7.25964H152.135V10.7809H158.76V13.3511H152.135V17.0342H159.306V19.6249H149.359V4.66895Z" fill="#232526"/>
<path d="M161.825 4.66895C162.479 4.66895 163.001 5.1752 163.001 5.82082C163.001 6.46644 162.479 6.98089 161.819 6.98089C161.158 6.98089 160.629 6.46849 160.629 5.82082C160.629 5.17315 161.156 4.66895 161.819 4.66895H161.825ZM161.811 4.90055C161.31 4.90055 160.924 5.31457 160.924 5.82082C160.924 6.33322 161.312 6.74109 161.825 6.74109C162.326 6.74724 162.705 6.33322 162.705 5.82697C162.705 5.31457 162.326 4.8985 161.819 4.8985H161.811V4.90055ZM161.634 6.4193H161.367V5.26743C161.474 5.25308 161.62 5.23259 161.811 5.23259C162.028 5.23259 162.127 5.26743 162.205 5.32482C162.274 5.37401 162.324 5.45804 162.324 5.57077C162.324 5.71219 162.217 5.80237 162.084 5.84542V5.85976C162.196 5.89461 162.252 5.98684 162.287 6.14056C162.322 6.31682 162.35 6.38036 162.371 6.42135H162.09C162.055 6.37831 162.034 6.27993 161.997 6.14056C161.977 6.02168 161.905 5.96429 161.757 5.96429H161.63V6.4193H161.634ZM161.64 5.77163H161.768C161.915 5.77163 162.034 5.72244 162.034 5.60356C162.034 5.49698 161.956 5.4273 161.788 5.4273C161.718 5.4273 161.669 5.43345 161.64 5.44164V5.77163Z" fill="#232526"/>
</g>
<defs>
<clipPath id="clip0_8_4096">
<rect width="163" height="20" fill="white"/>
</clipPath>
</defs>
</svg>
