<svg width="109" height="25" viewBox="0 0 109 25" fill="none" xmlns="http://www.w3.org/2000/svg">
<path d="M105.539 15.2075C105.472 15.5462 105.356 15.8417 105.193 16.0955C105.03 16.3489 104.809 16.5604 104.549 16.7129C104.285 16.871 103.955 16.9504 103.56 16.9504C103.177 16.9504 102.85 16.871 102.579 16.7129C102.308 16.556 102.092 16.3493 101.928 16.0955C101.765 15.8416 101.646 15.5462 101.573 15.2075C101.499 14.8688 101.463 14.5232 101.463 14.1766C101.463 13.8145 101.498 13.465 101.565 13.1275C101.632 12.7889 101.748 12.4903 101.911 12.2296C102.075 11.9709 102.289 11.7596 102.554 11.5964C102.818 11.4329 103.148 11.35 103.544 11.35C103.927 11.35 104.25 11.4328 104.515 11.5964C104.781 11.7596 104.997 11.9731 105.167 12.2385C105.337 12.5038 105.458 12.8059 105.53 13.1437C105.604 13.4831 105.641 13.8294 105.641 14.1767C105.641 14.5252 105.606 14.8697 105.539 15.2075ZM107.805 12.4584C107.647 11.8895 107.405 11.3901 107.078 10.9614C106.751 10.5331 106.34 10.1887 105.844 9.92975C105.347 9.66985 104.755 9.54084 104.067 9.54084C103.526 9.54084 103.03 9.64745 102.579 9.8618C102.128 10.0763 101.756 10.4203 101.463 10.894H101.43V9.77693H99.1464V21.5856H101.547V17.441H101.581C101.874 17.8701 102.25 18.1937 102.706 18.4129C103.163 18.6329 103.662 18.7435 104.203 18.7435C104.845 18.7435 105.406 18.6185 105.886 18.371C106.365 18.1234 106.766 17.7901 107.086 17.3726C107.408 16.9551 107.647 16.4764 107.805 15.9351C107.964 15.3935 108.042 14.8297 108.042 14.2434C108.042 13.6231 107.964 13.0285 107.805 12.4584ZM95.9676 15.2074C95.8993 15.5461 95.7833 15.8416 95.6204 16.0954C95.4569 16.3492 95.2425 16.5559 94.9768 16.7128C94.7126 16.8709 94.3823 16.9503 93.988 16.9503C93.6042 16.9503 93.2786 16.8709 93.008 16.7128C92.7369 16.5559 92.5201 16.3492 92.3564 16.0954C92.1929 15.8415 92.0747 15.5461 92.0012 15.2074C91.9279 14.8687 91.8912 14.5231 91.8918 14.1765C91.8918 13.8144 91.9247 13.4649 91.9923 13.1274C92.0608 12.7889 92.1756 12.4902 92.3397 12.2295C92.5021 11.9708 92.717 11.7595 92.9827 11.5963C93.2473 11.4328 93.5761 11.3499 93.9714 11.3499C94.3542 11.3499 94.6796 11.4327 94.9437 11.5963C95.2071 11.7576 95.4299 11.9773 95.5949 12.2384C95.7637 12.5037 95.8848 12.8058 95.9584 13.1436C96.0318 13.483 96.0685 13.8294 96.0678 14.1766C96.0683 14.5227 96.0348 14.868 95.9676 15.2074ZM97.5059 10.9613C97.1793 10.533 96.7674 10.1886 96.2712 9.92965C95.7748 9.66975 95.1834 9.54075 94.496 9.54075C93.9542 9.54075 93.4584 9.64735 93.008 9.8617C92.5556 10.0762 92.1847 10.4203 91.8918 10.8939H91.8573V9.77693H89.5736V21.5856H91.9767V17.441H92.0092C92.302 17.8701 92.6779 18.1937 93.1348 18.4129C93.5903 18.6329 94.0896 18.7435 94.6309 18.7435C95.274 18.7435 95.8346 18.6185 96.3135 18.371C96.7927 18.1234 97.193 17.7901 97.5144 17.3726C97.8361 16.9551 98.0746 16.4764 98.2336 15.9351C98.3903 15.3935 98.4702 14.8297 98.4702 14.2434C98.4702 13.6231 98.3903 13.0284 98.2337 12.4584C98.0746 11.8894 97.8329 11.39 97.5059 10.9613ZM81.7107 13.8543L83.2833 9.42176H83.3169L84.8393 13.8543H81.7107ZM81.9639 6.44452L77.3981 18.5231H80.0702L81.0167 15.8332H85.5327L86.4452 18.5231H89.2024L84.6874 6.44452H81.9639ZM77.1947 14.6917C77.0389 14.4178 76.8254 14.181 76.5691 13.9976C76.3098 13.8121 76.0132 13.6623 75.6813 13.549C75.3452 13.4361 75.0035 13.3405 74.6576 13.2624C74.3262 13.1847 73.9938 13.1112 73.6605 13.042C73.3335 12.974 73.0426 12.898 72.7888 12.814C72.5354 12.7291 72.3304 12.6199 72.1724 12.4834C72.014 12.3484 71.9358 12.174 71.9358 11.9593C71.9358 11.7788 71.9798 11.6352 72.0705 11.5279C72.1602 11.4218 72.2731 11.3377 72.4005 11.2823C72.5305 11.2263 72.6733 11.1899 72.8315 11.1724C72.9893 11.1557 73.1364 11.1478 73.2711 11.1478C73.6998 11.1478 74.072 11.2293 74.3882 11.3928C74.703 11.5564 74.8784 11.8694 74.9116 12.3314H77.1947C77.1496 11.7905 77.0117 11.3424 76.7804 10.9862C76.5497 10.6314 76.2588 10.3465 75.9097 10.1326C75.5607 9.91822 75.163 9.76625 74.7169 9.67571C74.2716 9.58535 73.8125 9.54075 73.3398 9.54075C72.8653 9.54075 72.4028 9.58309 71.9529 9.66682C71.5011 9.75188 71.0953 9.89903 70.7351 10.1072C70.3738 10.3157 70.0839 10.6 69.8635 10.9613C69.6433 11.3221 69.5335 11.7851 69.5335 12.3484C69.5335 12.732 69.6131 13.0568 69.7712 13.3215C69.9276 13.5869 70.1372 13.806 70.3956 13.981C70.6557 14.1558 70.9518 14.2972 71.2842 14.4036C71.6206 14.5124 71.9618 14.6058 72.3068 14.6835C73.1645 14.8642 73.8328 15.044 74.3115 15.225C74.7907 15.4052 75.0303 15.6757 75.0303 16.037C75.0303 16.2512 74.9801 16.4279 74.8784 16.5691C74.7784 16.709 74.6484 16.8246 74.4979 16.9076C74.3448 16.9926 74.1756 17.055 73.9904 17.0935C73.8044 17.1333 73.6263 17.1532 73.4573 17.1532C73.2205 17.1532 72.9923 17.1248 72.7731 17.0685C72.5527 17.0121 72.3582 16.9245 72.1892 16.8061C72.0202 16.6879 71.8814 16.5359 71.7745 16.3492C71.6682 16.163 71.6134 15.9412 71.6134 15.6811H69.3307C69.3537 16.2676 69.4856 16.7557 69.7288 17.1445C69.9701 17.5336 70.28 17.8463 70.6584 18.0836C71.036 18.3199 71.4677 18.4896 71.9529 18.5914C72.442 18.6932 72.9402 18.7442 73.4397 18.7435C73.9361 18.7435 74.4238 18.6951 74.9034 18.6001C75.3826 18.5039 75.8082 18.3375 76.1802 18.1002C76.5532 17.8638 76.8534 17.5509 77.0854 17.1615C77.3158 16.7719 77.4313 16.2899 77.4313 15.7146C77.4313 15.308 77.3524 14.968 77.1947 14.6917ZM67.2681 7.15523H64.8661V9.77693H63.4122V11.3839H64.866V16.5438C64.866 16.9842 64.9401 17.3391 65.0862 17.6095C65.233 17.8798 65.4328 18.0897 65.6863 18.2359C65.94 18.3826 66.2334 18.4809 66.5661 18.5317C66.8978 18.5821 67.2515 18.6076 67.6228 18.6076C67.8605 18.6076 68.1021 18.6016 68.3507 18.5914C68.5981 18.5798 68.8234 18.5579 69.0268 18.5231V16.662C68.9137 16.6849 68.7954 16.7027 68.6711 16.7128C68.5418 16.7246 68.4121 16.7304 68.2824 16.7303C67.8769 16.7303 67.6059 16.662 67.4703 16.5268C67.3357 16.3918 67.268 16.1211 67.268 15.7147V11.3839H69.0268V9.77693H67.268L67.2681 7.15523ZM60.3848 15.1391C60.3848 15.2756 60.3711 15.4559 60.3425 15.6811C60.3145 15.9073 60.2383 16.1292 60.1145 16.3493C59.9903 16.5691 59.798 16.7588 59.5395 16.9159C59.2802 17.0743 58.9138 17.1532 58.4397 17.1532C58.2485 17.1532 58.0622 17.1363 57.8818 17.1018C57.7011 17.0685 57.5438 17.0088 57.4084 16.9245C57.2733 16.8399 57.1658 16.7242 57.0868 16.5777C57.0084 16.4311 56.9685 16.2512 56.9685 16.0371C56.9685 15.8116 57.0085 15.6243 57.0868 15.4784C57.1631 15.3354 57.2701 15.2111 57.4002 15.1145C57.5292 15.0188 57.6818 14.9428 57.8565 14.8858C58.0311 14.8296 58.2092 14.7845 58.3895 14.7508C58.5806 14.7177 58.7728 14.6885 58.9639 14.6661C59.1482 14.6448 59.3316 14.6167 59.5137 14.5818C59.68 14.5501 59.8439 14.5075 60.0045 14.4544C60.1567 14.4036 60.2831 14.3341 60.3848 14.2434V15.1391ZM62.7861 16.5776V12.0274C62.7861 11.4965 62.6683 11.0712 62.4308 10.7503C62.1945 10.4286 61.8899 10.1779 61.5183 9.99732C61.1457 9.817 60.7339 9.69555 60.2831 9.63365C59.8405 9.57226 59.3942 9.54121 58.9474 9.54075C58.4629 9.54075 57.9804 9.58829 57.5019 9.6844C57.0215 9.78023 56.5912 9.94128 56.2076 10.1664C55.8274 10.3886 55.5035 10.6954 55.261 11.0629C55.0122 11.435 54.8714 11.9031 54.8378 12.4671H57.2389C57.2841 11.9933 57.4426 11.6546 57.7132 11.4519C57.9836 11.2487 58.3552 11.1478 58.8294 11.1478C59.0432 11.1478 59.2431 11.162 59.4295 11.1899C59.6152 11.2184 59.7789 11.2741 59.92 11.3591C60.0611 11.4436 60.1738 11.5616 60.2579 11.7145C60.3425 11.8664 60.3848 12.0728 60.3848 12.3314C60.3961 12.5804 60.3225 12.7681 60.1653 12.898C60.0069 13.0284 59.7931 13.1274 59.5224 13.1941C59.2518 13.2624 58.9416 13.3134 58.5919 13.3461C58.2422 13.3807 57.8874 13.4266 57.527 13.4822C57.1658 13.5389 56.8078 13.6148 56.4533 13.7107C56.0983 13.806 55.7816 13.9505 55.5058 14.1414C55.2292 14.3341 55.0039 14.5903 54.8287 14.9118C54.6543 15.2334 54.5671 15.6426 54.5671 16.1382C54.5671 16.5892 54.6431 16.9782 54.7953 17.3049C54.9474 17.6329 55.1587 17.9025 55.4296 18.1171C55.7005 18.3315 56.0159 18.4896 56.3766 18.5914C56.7369 18.6926 57.1261 18.7435 57.5438 18.7435C58.0849 18.7435 58.615 18.6642 59.1328 18.5071C59.6516 18.3481 60.1032 18.0727 60.4865 17.6775C60.4978 17.8239 60.5174 17.9683 60.5452 18.1089C60.5734 18.2491 60.6103 18.3875 60.6555 18.5231H63.091C62.9785 18.3437 62.8989 18.0727 62.8543 17.7113C62.8085 17.3505 62.7861 16.9734 62.7861 16.5776ZM52.8926 10.5296C52.6562 10.2193 52.3319 9.97729 51.9209 9.80197C51.5089 9.62807 50.9818 9.54075 50.3395 9.54075C49.8883 9.54075 49.4263 9.65605 48.9521 9.8876C48.4789 10.1182 48.0898 10.4879 47.7856 10.9957H47.7348V6.44461H45.3332V18.5232H47.7347V13.9388C47.7347 13.0479 47.8812 12.4083 48.1746 12.0185C48.4675 11.6299 48.9411 11.4351 49.5952 11.4351C50.17 11.4351 50.5703 11.6127 50.7959 11.9684C51.0215 12.3232 51.1341 12.8621 51.1341 13.5836V18.5232H53.5358V13.1437C53.5358 12.6028 53.4874 12.1095 53.3919 11.6631C53.296 11.2185 53.1296 10.8403 52.8926 10.5296ZM40.2089 14.768H40.1756L38.1123 6.44471H35.6263L33.5289 14.6663H33.4953L31.5841 6.44471H28.9294L32.1255 18.5233H34.8148L36.8268 10.3015H36.8606L38.907 18.5232H41.5453L44.7926 6.44452H42.1882L40.2089 14.768ZM6.87369 21.0346L7.24993 21.2577C8.83107 22.196 10.6438 22.6923 12.4924 22.6933H12.4963C18.1733 22.6933 22.7936 18.0738 22.796 12.3966C22.797 9.64508 21.7266 7.05807 19.7821 5.11193C17.8373 3.16598 15.2515 2.09339 12.5002 2.09235C6.81887 2.09235 2.19867 6.71103 2.19631 12.3882C2.19555 14.3337 2.73974 16.2282 3.77093 17.8677L4.01609 18.2574L2.97535 22.0567L6.87369 21.0346ZM0 24.9999L1.75807 18.5808C0.673665 16.7019 0.103205 14.5707 0.10415 12.3874C0.106796 5.55707 5.66557 0 12.4963 0C15.8111 0.00132313 18.9223 1.29147 21.2621 3.63295C23.6016 5.97452 24.8896 9.0871 24.8884 12.3974C24.8856 19.2274 19.3259 24.7854 12.4963 24.7854H12.4911C10.4171 24.7845 8.37922 24.2645 6.56936 23.2773L0 24.9999Z" fill="#5F6368"/>
<path d="M0.530971 12.3914C0.530215 14.4989 1.08089 16.5565 2.12793 18.3702L0.430664 24.5674L6.7725 22.9045C8.52666 23.8593 10.492 24.3597 12.4892 24.36H12.4943C19.0874 24.36 24.4542 18.9949 24.457 12.4009C24.4582 9.20532 23.215 6.20081 20.9562 3.94027C18.6978 1.67986 15.6942 0.434343 12.4938 0.432833C5.90011 0.432833 0.533617 5.79744 0.530971 12.3914ZM12.4943 24.36C12.4941 24.36 12.4942 24.36 12.4943 24.36V24.36Z" fill="url(#paint0_linear_8_4114)"/>
<path d="M0.104087 12.3877C0.103331 14.5708 0.673788 16.7022 1.75813 18.5809L0 25L6.56928 23.2775C8.38624 24.2669 10.4221 24.7854 12.491 24.7857H12.4963C19.3258 24.7857 24.8855 19.2276 24.8884 12.3976C24.8895 9.08727 23.6015 5.97476 21.2621 3.63319C18.9223 1.29176 15.8112 0.00163269 12.4963 0.000120163C5.66552 0.000120163 0.106859 5.55715 0.104087 12.3877ZM4.01615 18.2574L3.77093 17.8679C2.73976 16.2285 2.19552 14.3338 2.19627 12.3884C2.19854 6.7113 6.81892 2.09256 12.5002 2.09256C15.2514 2.0937 17.8372 3.16619 19.7819 5.1122C21.7267 7.05834 22.7968 9.64538 22.796 12.3967C22.7935 18.0741 18.1731 22.6933 12.4963 22.6933H12.4923C10.6438 22.6923 8.83096 22.1961 7.24988 21.2579L6.87361 21.0349L2.97528 22.057L4.01615 18.2574ZM12.4963 24.7857C12.496 24.7857 12.4962 24.7857 12.4963 24.7857V24.7857Z" fill="url(#paint1_linear_8_4114)"/>
<path fill-rule="evenodd" clip-rule="evenodd" d="M9.39875 7.20823C9.16682 6.69258 8.9227 6.68228 8.70202 6.67321C8.52151 6.66546 8.31491 6.66602 8.10869 6.66602C7.90209 6.66602 7.56668 6.74352 7.28306 7.05333C6.99915 7.36332 6.19922 8.11221 6.19922 9.63561C6.19922 11.1591 7.30886 12.6312 7.46347 12.838C7.61838 13.0444 9.60553 16.2706 12.7527 17.5117C15.3684 18.543 15.9006 18.338 16.4684 18.2863C17.0361 18.2348 18.3003 17.5375 18.5582 16.8145C18.8163 16.0915 18.8163 15.4718 18.7389 15.3424C18.6616 15.2133 18.455 15.1358 18.1454 14.9811C17.8357 14.8262 16.3134 14.0771 16.0297 13.9737C15.7458 13.8705 15.5394 13.819 15.3328 14.129C15.1264 14.4386 14.5335 15.1358 14.3528 15.3424C14.1722 15.5494 13.9914 15.5751 13.6818 15.4203C13.3721 15.2649 12.3748 14.9383 11.1918 13.8835C10.2713 13.0628 9.64995 12.0493 9.46925 11.7393C9.28874 11.4297 9.44997 11.262 9.60516 11.1076C9.74427 10.9689 9.91496 10.746 10.0698 10.5653C10.2243 10.3845 10.2758 10.2555 10.379 10.0489C10.4824 9.8423 10.4307 9.66141 10.3533 9.50661C10.2758 9.3517 9.67415 7.82055 9.39875 7.20823Z" fill="white"/>
<defs>
<linearGradient id="paint0_linear_8_4114" x1="12.4438" y1="24.5674" x2="12.4438" y2="0.432916" gradientUnits="userSpaceOnUse">
<stop stop-color="#20B038"/>
<stop offset="1" stop-color="#60D66A"/>
</linearGradient>
<linearGradient id="paint1_linear_8_4114" x1="12.4442" y1="25.0001" x2="12.4442" y2="0.000188478" gradientUnits="userSpaceOnUse">
<stop stop-color="#F9F9F9"/>
<stop offset="1" stop-color="white"/>
</linearGradient>
</defs>
</svg>
