<svg width="95" height="25" viewBox="0 0 95 25" fill="none" xmlns="http://www.w3.org/2000/svg">
<path d="M53.5567 12.032C53.7848 11.3087 53.8972 10.5537 53.8903 9.79525C53.8969 9.03382 53.7843 8.27598 53.5567 7.54945C53.3448 6.88617 53.0012 6.27266 52.5465 5.74542C52.0884 5.22163 51.5224 4.80325 50.8871 4.51885C49.4231 3.92894 47.7875 3.92894 46.3231 4.51885C45.6862 4.79584 45.1165 5.20836 44.6546 5.72739C44.1981 6.25353 43.8544 6.86755 43.6445 7.53142C43.4074 8.26235 43.2886 9.02649 43.2927 9.79525C43.2871 10.5543 43.403 11.3092 43.6355 12.032C43.8453 12.696 44.1892 13.3099 44.6456 13.8358C45.1049 14.3559 45.6752 14.7658 46.3143 15.0354C47.7801 15.6154 49.4119 15.6154 50.8783 15.0354C51.5134 14.7637 52.0805 14.3538 52.5376 13.8358C52.9956 13.3098 53.342 12.696 53.5567 12.032ZM51.7528 11.5631C51.5995 12.038 51.3508 12.4769 51.0222 12.8526C49.8364 14.1777 47.8007 14.2904 46.4756 13.1045C46.3872 13.0251 46.3031 12.9411 46.2241 12.8526C45.8958 12.4767 45.6474 12.038 45.4934 11.5631C45.3098 10.9951 45.2215 10.4008 45.232 9.80411C45.2166 9.19251 45.305 8.58252 45.4934 8.00031C45.6491 7.52357 45.8977 7.08224 46.2241 6.70153C46.5214 6.35776 46.8909 6.08355 47.306 5.89898C48.1457 5.53125 49.1006 5.53125 49.9401 5.89898C50.3553 6.08406 50.7244 6.35827 51.0222 6.70153C51.349 7.08217 51.5972 7.52357 51.7529 8.00031C51.9418 8.58252 52.0299 9.19258 52.0146 9.80411C52.016 10.4025 51.9187 10.9968 51.7258 11.5631H51.7528Z" fill="#43BFE4"/>
<path d="M25.3982 5.79968C24.9788 5.25933 24.4423 4.8213 23.8288 4.51894C23.1434 4.21086 22.3973 4.06287 21.6461 4.08611C20.9202 4.08186 20.2015 4.22904 19.5356 4.51894C19.1224 4.71501 18.7609 5.00549 18.4804 5.36693C18.2911 5.62831 18.1286 5.83567 18.1197 5.83567C18.108 5.64356 18.108 5.45078 18.1197 5.25867V4.91578C18.1147 4.59561 17.8535 4.33848 17.5333 4.33848H16.9022C16.5831 4.33848 16.325 4.597 16.325 4.91578V18.8328C16.325 19.1529 16.5816 19.414 16.9022 19.419H17.5333C17.8571 19.419 18.1197 19.1566 18.1197 18.8328V14.3231C18.1079 14.1279 18.1079 13.9319 18.1197 13.737C18.1197 13.737 18.2911 13.9444 18.4804 14.2059C18.5915 14.3359 18.7186 14.4513 18.8592 14.5485C19.1354 14.76 19.4387 14.9329 19.7611 15.0628C20.0787 15.1886 20.408 15.2825 20.7442 15.3424C21.042 15.3967 21.3437 15.4271 21.6461 15.4324C22.4005 15.4492 23.1491 15.2983 23.8379 14.9905C24.4428 14.711 24.9764 14.2978 25.3982 13.782C25.8145 13.2459 26.1208 12.6328 26.3003 11.9782C26.508 11.2662 26.6114 10.528 26.6067 9.7864C26.6117 9.0441 26.5052 8.30533 26.2914 7.59484C26.1055 6.94688 25.803 6.33843 25.3982 5.79968ZM24.5864 11.2565C24.4882 11.746 24.3018 12.2137 24.0363 12.6365C23.7792 13.0126 23.4358 13.3217 23.035 13.5384C22.5592 13.7941 22.0239 13.9184 21.484 13.899C20.9361 13.9102 20.3941 13.7864 19.9054 13.5384C19.4864 13.3231 19.1221 13.0147 18.8412 12.6365C18.5581 12.2398 18.3527 11.7931 18.2369 11.3198C18.108 10.8187 18.0414 10.3035 18.0384 9.78632C18.0392 9.28196 18.0999 8.7792 18.2189 8.28912C18.3288 7.81833 18.5245 7.37201 18.7962 6.97231C19.3707 6.11919 20.3482 5.62699 21.3757 5.67346C21.8974 5.65954 22.4149 5.77425 22.8818 6.00727C23.2991 6.22137 23.6608 6.53018 23.9372 6.90921C24.2174 7.30209 24.4253 7.74166 24.5505 8.20798C24.6822 8.69293 24.7489 9.19341 24.7489 9.69609C24.7517 10.2205 24.6972 10.7437 24.5864 11.2565Z" fill="#43BFE4"/>
<path d="M55.4507 0.171631H56.0822C56.401 0.171631 56.6595 0.430009 56.6595 0.748931V14.6748C56.6595 14.9935 56.401 15.252 56.0822 15.252H55.4507C55.1319 15.252 54.8738 14.9935 54.8738 14.6748V0.748931C54.8738 0.430009 55.1319 0.171631 55.4507 0.171631Z" fill="#43BFE4"/>
<path d="M38.3407 5.92595H39.0173C39.341 5.92595 39.6034 6.18836 39.6034 6.51234V14.6296C39.6034 14.9501 39.8605 15.2111 40.1807 15.2161H40.812C41.1321 15.2111 41.3893 14.9501 41.3893 14.6296V6.51234C41.3893 6.19188 41.646 5.93079 41.9666 5.92595H42.9134C43.2302 5.92126 43.486 5.6656 43.4907 5.34866V4.91583C43.4907 4.59566 43.2336 4.33464 42.9134 4.32973H41.9754C41.6566 4.32973 41.3983 4.07121 41.3983 3.75243V3.39151C41.4039 3.00823 41.4341 2.62561 41.4884 2.24615C41.5236 2.08364 41.6208 1.94137 41.7588 1.84923C42.0662 1.66606 42.4208 1.57788 42.7782 1.59679C42.9465 1.58697 43.1149 1.58697 43.2832 1.59679H43.4638C43.6441 1.65081 43.7883 1.42527 43.7883 1.10972V0.758036C43.7883 0.442266 43.626 0.135585 43.4278 0.0814178L43.2022 0.0095105C43.0102 -0.00317016 42.817 -0.00317016 42.6249 0.0095105C41.8143 -0.0482488 41.0113 0.195982 40.3699 0.694779C40.0119 1.10276 39.7749 1.60244 39.6846 2.13788C39.6301 2.5205 39.5999 2.90605 39.5943 3.29248V3.7613C39.5894 4.08169 39.3284 4.33882 39.0083 4.33853H38.3317C38.0113 4.34344 37.7546 4.6046 37.7546 4.92492V5.34866C37.7594 5.66912 38.0206 5.92595 38.3407 5.92595Z" fill="#43BFE4"/>
<path d="M58.4093 4.33838H59.0409C59.3596 4.33838 59.6182 4.59691 59.6182 4.91568V14.6747C59.6182 14.9934 59.3596 15.2519 59.0409 15.2519H58.4093C58.0906 15.2519 57.832 14.9934 57.832 14.6747V4.91568C57.832 4.59691 58.0906 4.33838 58.4093 4.33838Z" fill="#43BFE4"/>
<path d="M71.1349 9.79525C71.1419 9.03382 71.0292 8.27584 70.8011 7.54945C70.5908 6.88565 70.2466 6.27193 69.7909 5.74542C69.3333 5.22112 68.7672 4.80266 68.1315 4.51885C66.6675 3.92894 65.0314 3.92894 63.5674 4.51885C62.9303 4.79584 62.361 5.20836 61.8992 5.72739C61.4433 6.25404 61.0993 6.8677 60.889 7.53142C60.6614 8.25781 60.5486 9.01579 60.5552 9.77707C60.5482 10.5356 60.6606 11.2906 60.889 12.0141C61.0993 12.6779 61.4434 13.2914 61.8992 13.8179C62.3582 14.3379 62.9285 14.7477 63.5674 15.0174C65.0338 15.5972 66.6651 15.5972 68.1315 15.0174C68.7672 14.7461 69.3343 14.3365 69.7909 13.8179C70.2466 13.2914 70.5908 12.6779 70.8011 12.0141C71.0272 11.2965 71.1398 10.5477 71.1349 9.79525ZM68.9702 11.599C68.8187 12.0748 68.5699 12.514 68.2395 12.8887C67.9404 13.2283 67.571 13.4991 67.1573 13.6826C66.3173 14.0478 65.3634 14.0478 64.5237 13.6826C64.1098 13.4995 63.7403 13.2288 63.4411 12.8887C63.1112 12.514 62.8624 12.0748 62.7106 11.599C62.5273 11.0311 62.4386 10.437 62.4493 9.84032C62.4339 9.22843 62.5223 8.61873 62.7106 8.0363C62.8648 7.55905 63.1136 7.11735 63.4411 6.73752C63.7381 6.39302 64.1077 6.11895 64.5237 5.9349C65.3628 5.56731 66.3179 5.56731 67.1573 5.9349C67.5729 6.11932 67.9426 6.39346 68.2395 6.73752C68.5672 7.11757 68.8158 7.55905 68.9702 8.0363C69.159 8.61873 69.2473 9.2285 69.2318 9.84032C69.2385 10.4249 69.15 11.0066 68.9702 11.5631V11.599Z" fill="#43BFE4"/>
<path d="M37.9622 9.82247C37.9667 9.08018 37.8601 8.3414 37.6466 7.6307C37.4587 6.97929 37.153 6.36784 36.7447 5.82689C36.3283 5.2765 35.7916 4.82923 35.1754 4.51903C34.4837 4.19783 33.7276 4.0406 32.9654 4.05908C32.2316 4.0612 31.5063 4.21777 30.8371 4.51903C30.4189 4.70733 30.0511 4.99158 29.7636 5.34869C29.5743 5.61051 29.4118 5.8178 29.403 5.8178C29.3919 5.62539 29.3919 5.43277 29.403 5.24051V4.91579C29.3992 4.61241 29.1645 4.36187 28.8617 4.33849H28.2394C27.9192 4.33849 27.6581 4.59562 27.6531 4.91579V18.8328C27.6531 19.1566 27.9156 19.419 28.2394 19.419H28.8617C29.1857 19.419 29.4478 19.1566 29.4478 18.8328V14.3231C29.4366 14.128 29.4366 13.932 29.4478 13.737C29.4478 13.737 29.6195 13.9444 29.8088 14.206C29.9197 14.3359 30.0471 14.4514 30.1876 14.5485C30.4634 14.7603 30.7668 14.9334 31.0895 15.0628C31.407 15.186 31.7367 15.2766 32.0726 15.3334C32.3704 15.3877 32.6719 15.4179 32.9747 15.4234C33.7287 15.4558 34.4803 15.3204 35.1754 15.0266C35.7835 14.7483 36.32 14.335 36.7448 13.8181C37.1601 13.2814 37.4664 12.6686 37.6467 12.0142C37.8571 11.3026 37.9637 10.5643 37.9622 9.82247ZM35.8968 11.2656C35.7969 11.7518 35.6108 12.2163 35.3467 12.6365C35.0891 13.0121 34.7459 13.3212 34.3456 13.5384C33.8695 13.7941 33.334 13.9184 32.7941 13.899C32.2432 13.9114 31.6982 13.7876 31.2067 13.5384C30.7874 13.3237 30.4233 13.0148 30.1424 12.6365C29.8602 12.2395 29.6551 11.7924 29.538 11.3198C29.2945 10.318 29.2945 9.27266 29.538 8.27111C29.6477 7.80017 29.8431 7.3537 30.1153 6.9543C30.687 6.10264 31.6612 5.61052 32.686 5.6553C33.2079 5.64108 33.725 5.75586 34.192 5.9891C34.6096 6.20291 34.9712 6.51187 35.2476 6.89097C35.5281 7.2837 35.7356 7.72371 35.8606 8.18997C36.0025 8.67945 36.0752 9.18646 36.0771 9.69611C36.0741 10.2213 36.0135 10.7446 35.8967 11.2566V11.2656H35.8968Z" fill="#43BFE4"/>
<path d="M10.4443 9.30843C10.2167 9.37785 9.98468 9.43209 9.74976 9.47057C9.12739 9.57891 8.48706 9.67808 7.82855 9.75922C7.21724 9.83641 6.6137 9.966 6.02483 10.1473C5.53197 10.2905 5.07613 10.5397 4.68978 10.8778C4.32578 11.234 4.13447 11.7311 4.16687 12.2397C4.15785 12.583 4.23232 12.9233 4.38317 13.232C4.52947 13.5189 4.73192 13.7734 4.9785 13.9806C5.24523 14.197 5.55162 14.3595 5.88058 14.4583C6.20316 14.5664 6.54136 14.6213 6.88168 14.6208C7.42695 14.6246 7.96906 14.5391 8.48713 14.3682C8.97639 14.2078 9.42982 13.9536 9.82203 13.6196C10.6216 12.9184 11.0651 11.8957 11.0306 10.8328V8.93872H10.9854C10.8618 9.12937 10.6668 9.26262 10.4443 9.30843Z" fill="#43BFE4"/>
<path d="M7.5129 1.96704C3.36379 1.96704 0 5.33079 0 9.48015C0 13.6295 3.36379 16.9933 7.5129 16.9933C11.6625 16.9933 15.0262 13.6294 15.0262 9.48015C15.0262 5.33079 11.6625 1.96704 7.5129 1.96704ZM12.0229 12.3304C11.5672 13.5891 10.5759 14.5807 9.31706 15.0361C8.53387 15.2998 7.70582 15.4041 6.88181 15.3429C5.86963 15.3094 4.88678 14.9973 4.0407 14.4409C4.0407 14.4409 1.80372 12.8084 3.39121 10.8332C3.78298 10.3511 4.29248 9.97829 4.87036 9.75084C5.53408 9.49027 6.22806 9.3145 6.93605 9.22771L9.27206 8.93906C9.57866 8.93906 9.8492 8.86693 10.0837 8.82171C10.2948 8.78521 10.4953 8.70208 10.6698 8.57821C10.8307 8.45389 10.9556 8.2889 11.0308 8.10023C11.1241 7.84618 11.1667 7.57666 11.1569 7.30655C11.1714 6.88721 11.0881 6.47029 10.9134 6.08891C10.7604 5.77996 10.5266 5.51814 10.237 5.33108C9.93247 5.13655 9.59229 5.00439 9.23592 4.9434C8.83608 4.88007 8.43191 4.85296 8.02731 4.86241C7.21912 4.79879 6.41431 5.0222 5.75434 5.49359C5.22483 5.94159 4.85468 6.54923 4.69921 7.22519C4.59095 7.56808 4.40162 7.74832 4.05888 7.73051C3.7165 7.74693 3.42016 7.49398 3.38256 7.15328C3.43313 6.67626 3.58369 6.21528 3.8244 5.80027C4.06093 5.32324 4.40331 4.90676 4.8255 4.58256C5.2691 4.24612 5.77479 4.00086 6.31367 3.86108C6.93202 3.69821 7.56854 3.61648 8.20784 3.61751C8.59764 3.61853 8.98568 3.67014 9.36229 3.77092C9.88453 3.85873 10.382 4.05554 10.8233 4.34815C11.2569 4.64662 11.6075 5.04998 11.8426 5.52056C12.1444 6.13026 12.281 6.80805 12.2395 7.4868C12.2395 7.4868 12.2395 7.84771 12.2395 9.51621V9.66068C12.2304 10.5586 12.149 11.4544 11.996 12.3393L12.0229 12.3304Z" fill="#43BFE4"/>
<path d="M34.3631 17.4615H31.8196V23.261H32.5862V20.8799H34.3901C34.8736 20.9167 35.3512 20.7574 35.7158 20.4379C36.0316 20.0957 36.1942 19.6397 36.167 19.1752C36.1955 18.7102 36.0325 18.2539 35.7158 17.9124C35.3462 17.5828 34.8568 17.4197 34.3631 17.4615ZM35.0667 19.9688C34.7905 20.1776 34.446 20.2742 34.1014 20.2394H32.5954V18.111H34.1014C34.4453 18.0804 34.7887 18.1766 35.0667 18.3813C35.282 18.5874 35.3941 18.8781 35.3733 19.1752C35.3918 19.4718 35.2796 19.7617 35.0667 19.9688Z" fill="#43BFE4"/>
<path d="M38.9909 18.9495C38.6742 18.9308 38.3594 19.0096 38.0888 19.1751C37.8207 19.3687 37.6088 19.6302 37.4757 19.9327V19.0309H36.8262V23.2248H37.5118V21.3849C37.508 21.142 37.5352 20.8994 37.5928 20.6633C37.6401 20.4688 37.7294 20.2872 37.8543 20.1312C37.9786 19.9807 38.1402 19.8655 38.3233 19.7973C38.5486 19.7151 38.787 19.6753 39.0269 19.68L38.9909 18.9495Z" fill="#43BFE4"/>
<path d="M42.5266 19.5994C42.3507 19.3974 42.1317 19.2374 41.886 19.1303C41.3219 18.9032 40.6916 18.9032 40.1273 19.1303C39.8818 19.2374 39.6631 19.3974 39.4871 19.5994C39.3115 19.8018 39.1795 20.0383 39.0992 20.2939C39.0082 20.5856 38.9655 20.8903 38.9732 21.1961C38.965 21.5015 39.0074 21.8061 39.0992 22.0979C39.1795 22.3537 39.3115 22.5898 39.4871 22.7924C39.6639 22.991 39.8826 23.1482 40.1273 23.2522C40.6924 23.4751 41.3211 23.4751 41.886 23.2522C42.131 23.1481 42.3495 22.991 42.5266 22.7924C42.7024 22.5903 42.8345 22.3538 42.9143 22.0979C43.006 21.8062 43.0488 21.5015 43.0406 21.1961C43.0481 20.8903 43.0056 20.5857 42.9143 20.2939C42.8345 20.0381 42.7024 19.8015 42.5266 19.5994ZM42.211 21.8363C42.1521 22.0188 42.057 22.1875 41.9315 22.3322C41.8162 22.4626 41.6747 22.5673 41.5162 22.6391C41.1912 22.78 40.8225 22.78 40.4971 22.6391C40.3386 22.5676 40.1969 22.463 40.0823 22.3322C39.9562 22.1879 39.8612 22.0189 39.8028 21.8363C39.6682 21.3953 39.6682 20.9243 39.8028 20.4833C39.8629 20.3014 39.9577 20.1328 40.0823 19.9872C40.1969 19.8565 40.3384 19.7518 40.4971 19.6805C40.8219 19.5382 41.1915 19.5382 41.5162 19.6805C41.6753 19.7518 41.8166 19.8564 41.9315 19.9872C42.0559 20.1328 42.1508 20.3013 42.211 20.4833C42.3448 20.9243 42.3448 21.3953 42.211 21.8363Z" fill="#43BFE4"/>
<path d="M47.2157 19.6172C47.054 19.411 46.8472 19.2444 46.6115 19.13C46.3467 19.0051 46.0564 18.9434 45.7639 18.9497C45.4877 18.948 45.2146 19.0032 44.961 19.1122C44.7279 19.2102 44.5386 19.3899 44.4287 19.6173V19.0491H43.7344V24.8485H44.4287V22.6931C44.5009 22.8149 44.5958 22.9222 44.7082 23.0085C44.8159 23.0905 44.9342 23.1572 45.0603 23.2069C45.1823 23.2566 45.3092 23.2928 45.4388 23.3152C45.5529 23.3246 45.6678 23.3246 45.7818 23.3152C46.0705 23.321 46.3572 23.2626 46.6204 23.144C46.8552 23.0358 47.0618 22.8755 47.2248 22.6748C47.3892 22.4694 47.5123 22.2335 47.5857 21.9805C47.6656 21.7052 47.7048 21.4195 47.703 21.1327C47.7058 20.8457 47.6667 20.5602 47.5857 20.2849C47.5025 20.042 47.3772 19.816 47.2157 19.6172ZM46.9 21.7187C46.863 21.9041 46.7927 22.0813 46.6927 22.2417C46.5944 22.3916 46.4614 22.5154 46.3046 22.6026C46.1215 22.6991 45.9162 22.7458 45.7095 22.7379C45.497 22.744 45.2862 22.6976 45.0963 22.6026C44.9354 22.5182 44.7967 22.3979 44.6903 22.2509C44.5802 22.0992 44.5006 21.9278 44.4559 21.7458C44.4073 21.5511 44.3829 21.3509 44.3837 21.1505C44.3853 20.9558 44.4094 20.7623 44.4559 20.5731C44.4992 20.3923 44.5756 20.2211 44.6815 20.068C44.9033 19.7416 45.2789 19.5538 45.6736 19.572C45.8731 19.5668 46.0714 19.6101 46.2508 19.6984C46.4117 19.7816 46.551 19.9021 46.6565 20.05C46.7637 20.1999 46.8432 20.368 46.8912 20.5461C46.9438 20.731 46.971 20.9222 46.9722 21.1143C46.9706 21.3178 46.9464 21.5205 46.9 21.7187Z" fill="#43BFE4"/>
<path d="M51.9241 20.5557C51.8695 20.2808 51.7659 20.0181 51.6176 19.7802C51.4661 19.5419 51.2624 19.3415 51.0221 19.1936C50.7487 19.0343 50.437 18.9533 50.1204 18.9593C49.8471 18.9557 49.5762 19.0111 49.3267 19.1218C49.0902 19.2269 48.8779 19.3808 48.7041 19.5726C48.5255 19.7758 48.3877 20.0116 48.2984 20.2672C48.196 20.5565 48.147 20.8623 48.154 21.169C48.1614 21.4748 48.21 21.7782 48.2984 22.071C48.3755 22.326 48.5046 22.5626 48.677 22.7658C48.8482 22.9609 49.0606 23.1153 49.2995 23.2166C49.5851 23.3345 49.8927 23.3899 50.2013 23.3789C50.6243 23.3927 51.0399 23.2658 51.3828 23.0181C51.7138 22.753 51.9331 22.3729 51.9962 21.9538H51.311C51.2688 22.1976 51.1371 22.4166 50.9412 22.5673C50.7281 22.7093 50.4752 22.7788 50.2194 22.7658C50.0146 22.7696 49.8118 22.7298 49.6245 22.6483C49.4645 22.5786 49.3226 22.474 49.2092 22.3417C49.1005 22.2127 49.0206 22.0622 48.9748 21.8997C48.9262 21.7298 48.9051 21.5531 48.9116 21.3765H52.0503C52.0424 21.0989 52.0001 20.8228 51.9241 20.5557ZM48.8485 20.7542C48.8584 20.5958 48.8954 20.4403 48.957 20.2941C49.0135 20.1537 49.0962 20.0253 49.2004 19.9153C49.3051 19.8069 49.431 19.7209 49.5703 19.6628C49.7245 19.5994 49.8904 19.5689 50.0574 19.5727C50.2208 19.5697 50.3835 19.6003 50.5351 19.6628C50.6729 19.7237 50.7982 19.8094 50.9048 19.9153C51.0123 20.0247 51.0984 20.1531 51.1578 20.2941C51.219 20.4403 51.2554 20.5959 51.2656 20.7542H48.8485Z" fill="#43BFE4"/>
<path d="M56.0465 17.7954H55.3608V19.0491H54.7387V18.9498C54.4221 18.9312 54.1072 19.0099 53.837 19.1754C53.5686 19.3691 53.3573 19.6307 53.2233 19.933V19.0312H52.574V23.2252H53.2143V21.3852C53.2111 21.1423 53.2381 20.8998 53.2957 20.6637C53.3433 20.4696 53.4325 20.2879 53.557 20.1315C53.6808 19.9804 53.8429 19.8655 54.0262 19.7976C54.2509 19.7155 54.4898 19.6757 54.7296 19.6804H55.3519V22.3863C55.3468 22.5443 55.3649 22.7026 55.4061 22.8551C55.4346 22.9633 55.4939 23.0605 55.5777 23.1348C55.6665 23.2051 55.7721 23.2515 55.8838 23.2702C56.0371 23.2844 56.1909 23.2844 56.3442 23.2702H56.8761V22.6478H56.2988C56.2414 22.6433 56.1854 22.6248 56.1367 22.5935C56.0965 22.5653 56.0679 22.524 56.0553 22.4763C56.0469 22.4106 56.0469 22.3438 56.0553 22.2777V19.6623H56.8943V19.058H56.0553L56.0465 17.7954Z" fill="#43BFE4"/>
<path d="M59.0494 22.4948L57.8229 19.0583H57.0474L58.7068 23.2344L58.4179 23.9378C58.3636 24.0462 58.2871 24.1413 58.1928 24.2175C58.0927 24.2872 57.9721 24.3218 57.85 24.3166C57.7813 24.3276 57.7113 24.3276 57.6425 24.3166L57.4444 24.2536V24.8849C57.52 24.9111 57.5991 24.9293 57.6785 24.9392H57.922C58.0599 24.9413 58.1973 24.9201 58.3282 24.8759C58.446 24.8325 58.5535 24.7651 58.6438 24.6776C58.7481 24.5774 58.8363 24.4618 58.9055 24.3346C58.9976 24.1657 59.0788 23.991 59.1486 23.8115L60.9528 19.0583H60.2221L59.0494 22.4948Z" fill="#43BFE4"/>
<path d="M66.4905 22.3321L64.6596 17.4617H63.6042V23.252H64.3348V18.4357H64.353L66.1567 23.252H66.8155L68.6282 18.4357H68.6464V23.252H69.3771V17.4617H68.3215L66.4905 22.3321Z" fill="#43BFE4"/>
<path d="M73.6974 22.6301C73.6842 22.5102 73.6842 22.3892 73.6974 22.2693V20.1046C73.7077 19.8974 73.6604 19.692 73.5623 19.5092C73.4722 19.3613 73.3444 19.2399 73.1925 19.1577C73.0358 19.07 72.8648 19.012 72.6873 18.9862C72.498 18.9727 72.3081 18.9727 72.1187 18.9862C71.8944 18.9852 71.6706 19.0094 71.4513 19.0583C71.2513 19.1034 71.0615 19.1859 70.8924 19.3018C70.7305 19.4131 70.5974 19.5617 70.5048 19.7347C70.4001 19.9386 70.3445 20.164 70.3421 20.3932H71.0278C71.0119 20.1414 71.1324 19.9004 71.3434 19.7619C71.5687 19.6452 71.8206 19.5893 72.0739 19.5994H72.3987C72.503 19.6147 72.6034 19.6484 72.6962 19.6987C72.785 19.7478 72.8598 19.8193 72.9126 19.9062C72.9719 20.0168 72.9998 20.1414 72.9938 20.2669C73.0009 20.3786 72.9578 20.4874 72.8766 20.5645C72.7871 20.6383 72.6825 20.691 72.5698 20.7178C72.4325 20.7391 72.294 20.7512 72.1548 20.754L71.6138 20.835C71.4336 20.835 71.2619 20.9073 71.0908 20.9613C70.9291 21.0073 70.7769 21.0806 70.6398 21.1777C70.5043 21.2742 70.3931 21.4009 70.315 21.5475C70.2251 21.7295 70.1817 21.931 70.1887 22.1339C70.1827 22.3202 70.2195 22.5056 70.2971 22.6749C70.3658 22.8175 70.4678 22.9414 70.5945 23.0359C70.7261 23.1347 70.8767 23.2055 71.0365 23.2433C71.2138 23.286 71.3954 23.307 71.5778 23.3063C71.8555 23.3073 72.1309 23.2553 72.3894 23.1531C72.6473 23.0461 72.8741 22.8756 73.0479 22.6571C73.0287 22.8363 73.0844 23.0155 73.2012 23.1531C73.3166 23.2577 73.4691 23.313 73.6252 23.3063C73.7971 23.3143 73.9682 23.2769 74.1211 23.1983V22.666C74.0524 22.6766 73.9824 22.6766 73.9136 22.666C73.7787 22.7472 73.7157 22.7021 73.6974 22.6301ZM72.9757 21.7913C72.974 21.9003 72.9496 22.0078 72.9037 22.1069C72.8513 22.2239 72.7742 22.3288 72.6784 22.4137C72.5622 22.516 72.4275 22.5959 72.2816 22.6482C72.0934 22.7138 71.8947 22.7444 71.6949 22.7383C71.593 22.7493 71.4902 22.7493 71.3883 22.7383C71.2952 22.7193 71.2065 22.6828 71.127 22.6301C71.0531 22.5819 70.991 22.517 70.9467 22.4405C70.8971 22.3528 70.8719 22.2528 70.8747 22.152C70.8667 22.0074 70.9079 21.8643 70.9915 21.7462C71.0725 21.6431 71.1781 21.5625 71.2985 21.5114C71.4342 21.4549 71.5767 21.4155 71.7221 21.3944L72.1913 21.3313L72.6331 21.2592C72.756 21.2354 72.8729 21.1863 72.9757 21.1147V21.7913Z" fill="#43BFE4"/>
<path d="M77.7469 19.3916C77.6244 19.2513 77.4698 19.1431 77.2959 19.0761C77.0744 18.9919 76.8383 18.952 76.6013 18.9588C76.037 18.9274 75.5055 19.2265 75.2396 19.7254V19.058H74.5898V23.252H75.2845V20.8801C75.2836 20.7024 75.3112 20.5256 75.3659 20.357C75.4149 20.2041 75.4949 20.0627 75.6 19.9422C75.706 19.82 75.8389 19.724 75.988 19.6624C76.1629 19.5933 76.3501 19.5592 76.5381 19.5631C76.7676 19.5508 76.992 19.6321 77.1608 19.7885C77.3165 19.9538 77.3977 20.1753 77.3861 20.402V23.2431H78.0807V20.4923C78.0817 20.2826 78.0573 20.0737 78.0082 19.87C77.9592 19.6924 77.8693 19.5289 77.7469 19.3916Z" fill="#43BFE4"/>
<path d="M82.2559 22.6301C82.2433 22.5132 82.2433 22.3953 82.2559 22.278V20.1137C82.2668 19.9066 82.2199 19.7007 82.1209 19.5185C82.0316 19.37 81.9036 19.2484 81.751 19.1666C81.5945 19.0793 81.4235 19.021 81.2458 18.9953C81.0569 18.9817 80.8668 18.9817 80.6779 18.9953C80.453 18.9939 80.2297 19.0181 80.0103 19.0673C79.8103 19.1127 79.6205 19.1954 79.4512 19.3108C79.2896 19.4224 79.1563 19.5709 79.0635 19.7439C78.9596 19.948 78.904 20.1733 78.9008 20.4022H79.5953C79.5817 20.1507 79.7018 19.9108 79.9113 19.7706C80.1366 19.6547 80.3882 19.5988 80.642 19.6086H80.9663C81.0706 19.624 81.1717 19.6574 81.2641 19.7076C81.3529 19.7569 81.4278 19.8284 81.4806 19.9151C81.5399 20.0258 81.5681 20.1504 81.5618 20.2757C81.5684 20.3876 81.5254 20.4965 81.4446 20.5735C81.3553 20.6471 81.25 20.6997 81.138 20.7269C80.9897 20.7652 80.8392 20.7925 80.6867 20.808L80.1454 20.8893C79.9651 20.8893 79.794 20.9613 79.6223 21.0156C79.461 21.0618 79.3088 21.1348 79.1713 21.2319C79.0362 21.3285 78.925 21.4549 78.847 21.6017C78.6916 21.9616 78.6916 22.3695 78.847 22.7292C78.9152 22.8717 79.0176 22.9957 79.1448 23.09C79.276 23.1887 79.4267 23.2594 79.5865 23.2973C79.7608 23.3392 79.9393 23.3604 80.1185 23.3606C80.3994 23.3624 80.6779 23.3101 80.9393 23.2071C81.1964 23.103 81.4229 22.9355 81.5978 22.7201C81.5827 22.898 81.6412 23.074 81.76 23.2071C81.8759 23.3117 82.0282 23.367 82.1839 23.3606C82.356 23.3685 82.527 23.3312 82.6799 23.2522V22.7201C82.6111 22.73 82.5415 22.73 82.4729 22.7201C82.3373 22.7472 82.2742 22.7021 82.2559 22.6301ZM81.5347 21.7913C81.5328 21.9005 81.5086 22.0079 81.4623 22.1069C81.4099 22.2238 81.3332 22.3287 81.2371 22.4137C81.1206 22.5159 80.9859 22.5955 80.8402 22.6482C80.6518 22.7138 80.4531 22.7444 80.2539 22.7383C80.152 22.7493 80.0492 22.7493 79.9473 22.7383C79.8539 22.7197 79.7651 22.6828 79.6856 22.6301C79.5225 22.5272 79.4261 22.3449 79.4331 22.1521C79.4257 22.0075 79.4674 21.8645 79.5506 21.7462C79.6309 21.6432 79.7365 21.5625 79.8572 21.5115C79.9933 21.4555 80.1354 21.4161 80.2812 21.3945L80.75 21.3314L81.1923 21.2592C81.3156 21.237 81.4323 21.1878 81.5348 21.1148L81.5347 21.7913Z" fill="#43BFE4"/>
<path d="M86.1077 19.6532C85.9914 19.4293 85.8086 19.2466 85.5842 19.1301C85.3584 19.0145 85.1079 18.9557 84.854 18.9588C84.5404 18.951 84.2305 19.0227 83.9519 19.1663C83.7171 19.2944 83.5138 19.4731 83.3564 19.6894C83.2045 19.9042 83.094 20.1461 83.032 20.4021C82.968 20.6526 82.9348 20.9099 82.9329 21.1686C82.931 21.4466 82.9702 21.7231 83.0498 21.9894C83.1212 22.2359 83.2409 22.4657 83.4018 22.6659C83.5611 22.8603 83.7611 23.0174 83.9879 23.1259C84.2445 23.2467 84.5254 23.3054 84.8087 23.2971C85.0751 23.2988 85.3378 23.237 85.5753 23.1168C85.8164 22.9964 86.0081 22.7953 86.1166 22.5485V22.8283C86.1174 23.0438 86.0933 23.2587 86.0446 23.4685C86.0043 23.6476 85.9277 23.8166 85.8189 23.9646C85.7168 24.1019 85.5842 24.2132 85.4309 24.2893C85.2504 24.3731 85.0527 24.4131 84.854 24.4066C84.7339 24.4183 84.6129 24.4183 84.4932 24.4066C84.3739 24.3837 84.2585 24.3442 84.15 24.2893C84.0468 24.2392 83.9551 24.1687 83.8798 24.082C83.8063 23.993 83.765 23.8816 83.7625 23.7662H83.068C83.0722 23.9719 83.1347 24.1722 83.2483 24.3434C83.3545 24.4977 83.4928 24.627 83.654 24.7222C83.8251 24.8209 84.0106 24.891 84.2041 24.9295C84.4001 24.9712 84.5997 24.9923 84.7996 24.9931C85.3433 25.0392 85.8814 24.8525 86.2786 24.4787C86.6236 24.0419 86.7915 23.4911 86.748 22.9365V19.058H86.0983L86.1077 19.6532ZM85.9992 21.6557C85.9568 21.8408 85.8833 22.0175 85.7829 22.1787C85.6853 22.3314 85.552 22.4583 85.3949 22.5485C85.2192 22.6484 85.0195 22.6984 84.8176 22.6931C84.6184 22.7001 84.4212 22.6499 84.2497 22.5485C84.0982 22.4569 83.9715 22.3301 83.8799 22.1787C83.785 22.0199 83.7178 21.8461 83.6812 21.6649C83.6448 21.4773 83.6266 21.2871 83.627 21.0964C83.628 20.9017 83.6524 20.708 83.6996 20.519C83.7289 20.3472 83.7902 20.182 83.8799 20.0322C83.9814 19.8924 84.1142 19.7779 84.2675 19.6985C84.4435 19.6099 84.639 19.5665 84.8357 19.572C85.0271 19.5656 85.2168 19.6091 85.3861 19.6985C85.5345 19.7817 85.6615 19.899 85.7557 20.0411C85.8529 20.1902 85.9231 20.3549 85.9631 20.5282C86.0054 20.7055 86.0264 20.8871 86.0264 21.0692C86.04 21.2653 86.031 21.4621 85.9992 21.6557Z" fill="#43BFE4"/>
<path d="M91.2035 20.5557C91.1489 20.2808 91.045 20.0181 90.8967 19.7802C90.7468 19.5408 90.5429 19.3401 90.3012 19.1936C90.0279 19.0343 89.7161 18.9533 89.3995 18.9593C89.1262 18.9561 88.8554 19.0113 88.6055 19.1218C88.3694 19.2271 88.1571 19.3808 87.9832 19.5726C87.8043 19.7757 87.6665 20.0114 87.5776 20.2672C87.4748 20.5565 87.4258 20.8623 87.4331 21.169C87.4401 21.4748 87.4887 21.7782 87.5776 22.071C87.6547 22.326 87.7838 22.5626 87.9562 22.7658C88.1269 22.961 88.3394 23.1154 88.5787 23.2166C88.8639 23.3345 89.1714 23.3899 89.4804 23.3789C89.9036 23.3927 90.319 23.2658 90.6622 23.0181C90.9932 22.753 91.2119 22.3729 91.2755 21.9538H90.5901C90.5391 22.1983 90.397 22.4144 90.1934 22.558C89.9803 22.6999 89.7273 22.7696 89.4715 22.7566C89.2668 22.7608 89.0639 22.7205 88.876 22.6393C88.7161 22.5701 88.5745 22.4652 88.4614 22.3325C88.353 22.2032 88.2735 22.0528 88.2269 21.8907C88.1787 21.7208 88.1571 21.5442 88.1637 21.3676H91.3025C91.3026 21.0938 91.2694 20.8212 91.2035 20.5557ZM88.1367 20.7542C88.1465 20.5958 88.1829 20.4403 88.2451 20.2941C88.3016 20.1536 88.3838 20.0253 88.4887 19.9153C88.5933 19.8071 88.719 19.7214 88.8582 19.6628C89.0124 19.5994 89.1786 19.5689 89.3453 19.5727C89.509 19.5697 89.6717 19.6003 89.8232 19.6628C89.9611 19.7235 90.0863 19.8094 90.1934 19.9153C90.3009 20.0242 90.3865 20.153 90.4457 20.2941C90.5066 20.4407 90.5433 20.5959 90.5538 20.7542H88.1367Z" fill="#43BFE4"/>
<path d="M93.0886 19.1846C92.8208 19.3783 92.6091 19.6399 92.4754 19.9425V19.0403H91.8262V23.2344H92.5207V21.3854C92.5165 21.1423 92.5438 20.8999 92.6016 20.6639C92.6498 20.4698 92.7391 20.2881 92.8633 20.1317C92.9878 19.9812 93.1495 19.866 93.3322 19.7978C93.5575 19.7158 93.796 19.676 94.0357 19.6806V18.9498C93.7033 18.9244 93.3709 19.0066 93.0886 19.1846Z" fill="#43BFE4"/>
<path d="M71.1349 6.07916H71.3966V4.32044H72.064V4.09497H70.4768V4.32044H71.1349V6.07916Z" fill="#43BFE4"/>
<path d="M73.282 5.76369L72.651 4.09497H72.29V6.07916H72.5426V4.4287L73.1651 6.07916H73.3905L74.0125 4.4287H74.0219V6.07916H74.2655V4.09497H73.9046L73.282 5.76369Z" fill="#43BFE4"/>
</svg>
