<svg width="99" height="25" viewBox="0 0 99 25" fill="none" xmlns="http://www.w3.org/2000/svg">
<g clip-path="url(#clip0_8_4120)">
<path d="M0 3.41249V6.44157L3.46168 9.80385L7.54727 12.1261L8.30199 7.02719L7.54727 2.28163L5.43403 0.696415C3.18998 -0.999869 0 0.605543 0 3.41249Z" fill="#C5221F"/>
<path d="M25.661 2.28211L24.9062 7.08825L25.661 12.1266L29.3642 10.289L33.2082 6.45215V3.42307C33.2082 0.616121 30.0183 -0.989291 27.7742 0.696896L25.661 2.28211Z" fill="#FFBA00"/>
<path d="M2.26418 24.9996H7.54727V12.126L0 6.44141V22.7177C0 23.9697 1.01637 24.9895 2.26418 24.9895V24.9996Z" fill="#2684FC"/>
<path d="M25.6602 24.9996H30.9432C32.1911 24.9996 33.2074 23.9798 33.2074 22.7278V6.44141L25.6602 12.1159V24.9895V24.9996Z" fill="#00AC47"/>
<path d="M16.6036 9.09765L7.54688 2.28223V12.1267L16.6036 18.9422L25.6603 12.1267V2.28223L16.6036 9.09765Z" fill="#E94235"/>
<path d="M59.6147 13.1464C59.6147 15.3677 58.9606 17.1347 57.6423 18.4574C56.1631 20.0224 54.2209 20.81 51.8158 20.81C49.4108 20.81 47.5692 20.0123 45.9692 18.4069C44.3692 16.8015 43.5742 14.8427 43.5742 12.5002C43.5742 10.1577 44.3692 8.18881 45.9692 6.5935C47.5592 4.99818 49.5114 4.19043 51.8158 4.19043C52.9831 4.19043 54.08 4.40247 55.1165 4.81644C56.153 5.23041 56.9983 5.81604 57.6624 6.57331L56.2033 8.03736C55.7203 7.44164 55.0863 6.98728 54.3014 6.66418C53.5366 6.32088 52.7114 6.14923 51.8259 6.14923C50.0951 6.14923 48.6359 6.74495 47.4384 7.94649C46.261 9.15812 45.6673 10.6828 45.6673 12.5002C45.6673 14.3176 46.261 15.8423 47.4384 17.0539C48.6359 18.2555 50.0951 18.8512 51.8259 18.8512C53.4058 18.8512 54.714 18.4069 55.7706 17.5184C56.8172 16.6298 57.4209 15.4081 57.5819 13.8532H51.8259V11.9449H59.504C59.5744 12.3588 59.6147 12.7627 59.6147 13.1464ZM63.8613 20.4566H61.8285V9.57209H63.7808V11.0866H63.8713C64.1833 10.5515 64.6562 10.1072 65.2902 9.75384C65.9443 9.40045 66.5783 9.2187 67.2123 9.2187C68.0072 9.2187 68.7116 9.40045 69.3154 9.77403C69.9192 10.1476 70.362 10.6525 70.6437 11.3088C71.5394 9.91539 72.7872 9.2187 74.3872 9.2187C75.6451 9.2187 76.6111 9.60238 77.2853 10.3698C77.9596 11.1371 78.3017 12.2377 78.3017 13.6613V20.4566H76.269V13.9744C76.269 12.9546 76.0878 12.2175 75.7155 11.7732C75.3432 11.3189 74.7293 11.0866 73.8538 11.0866C73.0689 11.0866 72.4148 11.4198 71.8815 12.0862C71.3482 12.7526 71.0865 13.5402 71.0865 14.4388V20.4566H69.0538V13.9744C69.0538 12.9546 68.8727 12.2175 68.5003 11.7732C68.128 11.3189 67.5141 11.0866 66.6387 11.0866C65.8538 11.0866 65.1997 11.4198 64.6663 12.0862C64.133 12.7526 63.8713 13.5402 63.8713 14.4388V20.4566H63.8613ZM82.1257 17.1246C82.1257 17.6597 82.347 18.104 82.7898 18.4574C83.2426 18.8108 83.776 18.9925 84.3798 18.9925C85.2351 18.9925 85.9999 18.6694 86.6641 18.0333C87.3383 17.3972 87.6804 16.65 87.6804 15.7918C87.0465 15.287 86.1609 15.0345 85.0238 15.0345C84.1986 15.0345 83.5043 15.2365 82.9408 15.6303C82.3974 16.0341 82.1257 16.5289 82.1257 17.1145V17.1246ZM84.7622 9.2086C86.2716 9.2086 87.4591 9.61248 88.3245 10.4303C89.2 11.228 89.6327 12.3286 89.6327 13.7421V20.4465H87.6804V18.9319H87.5899C86.7446 20.1739 85.6276 20.7999 84.2288 20.7999C83.0313 20.7999 82.025 20.4465 81.22 19.7296C80.425 19.0228 80.0225 18.1343 80.0225 17.064C80.0225 15.9433 80.4451 15.0446 81.2804 14.3782C82.1357 13.7118 83.2728 13.3786 84.6917 13.3786C85.8993 13.3786 86.8955 13.6008 87.6804 14.045V13.5806C87.6804 12.8738 87.3987 12.268 86.8351 11.7833C86.2716 11.2785 85.6175 11.0261 84.8628 11.0261C83.7257 11.0261 82.8301 11.5107 82.1659 12.4699L80.3747 11.3391C81.3609 9.91539 82.82 9.2086 84.7622 9.2086ZM94.6441 5.81604C94.6441 6.21991 94.5032 6.55311 94.2214 6.83583C93.9396 7.11854 93.5975 7.2599 93.205 7.2599C92.8126 7.2599 92.4704 7.11854 92.1887 6.83583C91.9069 6.55311 91.766 6.20982 91.766 5.81604C91.766 5.42226 91.9069 5.07896 92.1887 4.79625C92.4704 4.51353 92.8126 4.37217 93.205 4.37217C93.5975 4.37217 93.9396 4.51353 94.2214 4.79625C94.5032 5.07896 94.6441 5.42226 94.6441 5.81604ZM94.2315 9.57209V20.4566H92.1987V9.57209H94.2315ZM99.0013 4.54382V20.4465H96.9686V4.54382H99.0013Z" fill="#5F6368"/>
</g>
<defs>
<clipPath id="clip0_8_4120">
<rect width="99" height="25" fill="white"/>
</clipPath>
</defs>
</svg>
