<svg width="113" height="25" viewBox="0 0 113 25" fill="none" xmlns="http://www.w3.org/2000/svg">
<g clip-path="url(#clip0_8_4063)">
<path d="M41.4801 4.02819H46.8823C49.1931 4.02819 50.2236 5.63548 50.2236 7.20736C50.2236 8.77923 49.1931 10.3855 46.8823 10.3855H41.4801V4.02819ZM45.2122 12.8865L50.3656 18.8146H53.7432L48.2331 12.5646L48.7308 12.4574C52.4276 11.7074 52.9968 8.77923 52.9968 7.13548C52.9968 3.27819 49.8328 1.52819 46.8823 1.49277H38.7422V18.8157H41.5154V12.8146H45.177L45.2122 12.8865ZM57.298 11.6355L57.4038 11.2428C57.8661 9.56465 59.2885 8.56465 61.2085 8.56465C63.2694 8.56465 64.5487 9.56465 64.7623 11.2792L64.7975 11.6365L57.298 11.6355ZM65.7575 8.17194C64.726 7.02819 63.1274 6.42194 61.1359 6.42194C57.3333 6.42194 54.7737 8.95736 54.7737 12.7074C54.7737 16.6719 57.297 19.1365 61.3847 19.1365C63.3047 19.1365 65.1894 18.4584 66.3608 17.3865L64.7975 15.8511C63.909 16.5646 62.4515 16.9219 61.4562 16.9219C59.217 16.9219 57.6526 15.7792 57.4038 13.9574L57.3685 13.6001H67.2503C67.3571 11.2792 66.8595 9.38548 65.7575 8.17194ZM101.837 6.74277H99.3485V18.8157H101.837V6.74277ZM107.773 17.9584C108.483 18.6355 109.55 18.9938 110.794 18.9584C111.612 18.9219 112.251 18.8146 112.998 18.5292L112.322 16.4574C111.905 16.6338 111.459 16.7309 111.007 16.7438C109.798 16.7438 109.087 15.9574 109.087 14.6365V8.88548H112.571V6.81257H109.124V3.27923L106.634 3.52923V6.81569H104.288V8.88548H106.634V14.6355C106.634 16.1001 107.026 17.2084 107.773 17.9584ZM75.2827 16.7792C74.2468 16.7757 73.2545 16.3605 72.5222 15.6243C71.79 14.8882 71.3773 13.8909 71.3743 12.8501C71.3776 11.8095 71.7904 10.8124 72.5226 10.0765C73.2548 9.34055 74.247 8.92551 75.2827 8.92194C76.3187 8.92496 77.3114 9.33975 78.044 10.0757C78.7767 10.8117 79.1898 11.8091 79.1931 12.8501C79.1901 13.891 78.7773 14.8885 78.0448 15.6247C77.3123 16.3609 76.3187 16.7759 75.2827 16.7792ZM81.7174 18.7792V6.77923H79.2999V7.85007L79.0158 7.63548C77.9287 6.84878 76.6234 6.42436 75.2837 6.42194C74.4479 6.42098 73.6201 6.58567 72.8477 6.90658C72.0753 7.22749 71.3735 7.69832 70.7824 8.29212C70.1914 8.88591 69.7227 9.59101 69.4032 10.3671C69.0837 11.1431 68.9196 11.9748 68.9204 12.8146C68.9196 13.6545 69.0837 14.4862 69.4032 15.2622C69.7227 16.0383 70.1914 16.7434 70.7824 17.3372C71.3735 17.931 72.0753 18.4018 72.8477 18.7227C73.6201 19.0436 74.4479 19.2083 75.2837 19.2074C76.6234 19.2049 77.9286 18.7805 79.0158 17.9938L79.2999 17.7792V18.7792H81.7174ZM90.7813 8.81465C91.8173 8.81767 92.81 9.23246 93.5427 9.96845C94.2753 10.7044 94.6884 11.7018 94.6917 12.7428C94.6887 13.7839 94.2757 14.7816 93.543 15.5178C92.8103 16.254 91.8175 16.6689 90.7813 16.6719C89.7455 16.6686 88.753 16.2537 88.0206 15.5178C87.2881 14.7818 86.8752 13.7846 86.8719 12.7438C86.8703 12.2275 86.9702 11.7159 87.1661 11.2385C87.362 10.7611 87.6499 10.3273 88.0132 9.96216C88.3765 9.59699 88.8081 9.30761 89.2832 9.11068C89.7583 8.91374 90.2674 8.81314 90.7813 8.81465ZM90.7813 19.1365C91.6171 19.1375 92.4449 18.9728 93.2173 18.6519C93.9897 18.331 94.6915 17.8601 95.2825 17.2663C95.8736 16.6726 96.3423 15.9675 96.6618 15.1914C96.9813 14.4154 97.1453 13.5836 97.1445 12.7438C97.1455 11.9039 96.9815 11.0721 96.6621 10.2959C96.3427 9.51974 95.874 8.81452 95.2829 8.22061C94.6918 7.62671 93.99 7.15578 93.2175 6.83481C92.4451 6.51383 91.6172 6.34911 90.7813 6.35007C89.4414 6.35278 88.1362 6.77757 87.0492 7.56465L86.7651 7.77923V6.77923H84.3475V23.8855H86.7651V17.7084L87.0492 17.923C88.1361 18.7101 89.4414 19.1339 90.7813 19.1365ZM100.593 1.4209C99.8462 1.4209 99.0634 1.88548 99.0634 2.95736C99.0634 3.99277 99.8462 4.49277 100.593 4.49277C101.339 4.49277 102.121 4.02819 102.121 2.95736C102.121 1.88548 101.339 1.4209 100.593 1.4209Z" fill="black"/>
<path d="M28.4371 0.170898L17.0625 0.208398L22.7146 3.92194V12.1011L28.4371 8.24381V0.170898Z" fill="#96BFC2"/>
<path d="M22.7144 12.0996L11.375 12.1361L16.9918 15.8507V24.0288L22.7144 20.1715V12.0996Z" fill="#D1263D"/>
<path d="M11.3746 4.06458L0 4.1L5.65207 7.85V15.9937L11.3746 12.1365V4.0625V4.06458Z" fill="#FF9E1C"/>
</g>
<defs>
<clipPath id="clip0_8_4063">
<rect width="113" height="25" fill="white"/>
</clipPath>
</defs>
</svg>
