<svg width="56" height="42" viewBox="0 0 56 42" fill="none" xmlns="http://www.w3.org/2000/svg">
<path d="M15.344 0.691039C15.707 0.418793 16.1201 0.220711 16.5596 0.108101C16.9991 -0.00450955 17.4566 -0.0294425 17.9058 0.0347264C18.3549 0.0988953 18.7871 0.250909 19.1775 0.482088C19.5679 0.713267 19.909 1.01908 20.1813 1.38208C20.4535 1.74507 20.6516 2.15814 20.7642 2.59768C20.8768 3.03723 20.9018 3.49465 20.8376 3.94383C20.7734 4.39302 20.6214 4.82516 20.3902 5.21559C20.159 5.60603 19.8532 5.94711 19.4902 6.21935C14.0863 10.2723 10.9905 14.2147 9.21794 17.656C11.6517 17.0296 14.2201 17.1768 16.5663 18.0774C18.9125 18.978 20.9198 20.5871 22.3093 22.6811C23.6987 24.7752 24.4013 27.25 24.3194 29.7618C24.2374 32.2735 23.375 34.6973 21.852 36.6963C20.329 38.6953 18.221 40.1702 15.8211 40.9159C13.4213 41.6616 10.8487 41.6412 8.46095 40.8574C6.07322 40.0736 3.98899 38.5654 2.49795 36.5425C1.00691 34.5195 0.183143 32.0823 0.14114 29.5696C-0.301601 25.3263 0.301013 21.0392 1.89638 17.0825C3.95913 11.879 7.99134 6.20553 15.344 0.691039ZM46.4407 0.691039C46.8037 0.418793 47.2168 0.220711 47.6564 0.108101C48.0959 -0.00450955 48.5533 -0.0294425 49.0025 0.0347264C49.4517 0.0988953 49.8838 0.250909 50.2743 0.482088C50.6647 0.713267 51.0058 1.01908 51.278 1.38208C51.5503 1.74507 51.7484 2.15814 51.861 2.59768C51.9736 3.03723 51.9985 3.49465 51.9343 3.94383C51.8702 4.39302 51.7182 4.82516 51.487 5.21559C51.2558 5.60603 50.95 5.94711 50.587 6.21935C45.1831 10.2723 42.0872 14.2147 40.3147 17.656C42.7484 17.0296 45.3169 17.1768 47.6631 18.0774C50.0092 18.978 52.0165 20.5871 53.406 22.6811C54.7955 24.7752 55.4981 27.25 55.4161 29.7618C55.3342 32.2735 54.4718 34.6973 52.9487 36.6963C51.4257 38.6953 49.3178 40.1702 46.9179 40.9159C44.518 41.6616 41.9454 41.6412 39.5577 40.8574C37.17 40.0736 35.0857 38.5654 33.5947 36.5425C32.1037 34.5195 31.2799 32.0823 31.2379 29.5696C30.7952 25.3263 31.3978 21.0392 32.9931 17.0825C35.0593 11.879 39.0881 6.20553 46.4407 0.691039Z" fill="white"/>
</svg>
