<svg width="28" height="28" viewBox="0 0 28 28" fill="none" xmlns="http://www.w3.org/2000/svg">
<g clip-path="url(#clip0_8_1855)">
<path d="M0.597031 13.8322C0.596375 16.1847 1.21587 18.4818 2.39384 20.5065L0.484375 27.4242L7.61913 25.568C9.59251 26.6339 11.8035 27.1925 14.0504 27.1926H14.0563C21.4735 27.1926 27.5114 21.2038 27.5145 13.8427C27.516 10.2757 26.1173 6.92161 23.5761 4.39814C21.0353 1.87488 17.6561 0.484538 14.0557 0.48291C6.6376 0.48291 0.600203 6.47144 0.597141 13.8322" fill="url(#paint0_linear_8_1855)"/>
<path d="M0.117031 13.8281C0.116266 16.2653 0.757969 18.6445 1.97794 20.7417L0 27.9074L7.39058 25.9846C9.42692 27.0863 11.7196 27.6671 14.0526 27.668H14.0586C21.742 27.668 27.9967 21.4637 28 13.8392C28.0013 10.144 26.5523 6.66932 23.9203 4.05544C21.288 1.44189 17.788 0.00151938 14.0586 0C6.37394 0 0.120094 6.20341 0.117031 13.8281ZM4.51839 20.3805L4.24244 19.9459C3.08241 18.1157 2.47012 16.0007 2.471 13.829C2.47341 7.49152 7.67134 2.3355 14.063 2.3355C17.1583 2.33681 20.0672 3.53408 22.2552 5.70636C24.443 7.87885 25.6469 10.7668 25.6461 13.8383C25.6433 20.1757 20.4452 25.3324 14.0586 25.3324H14.054C11.9745 25.3313 9.93497 24.7772 8.15631 23.73L7.73303 23.4809L3.34731 24.6219L4.51839 20.3805Z" fill="url(#paint1_linear_8_1855)"/>
<path d="M10.5741 8.04716C10.3132 7.47164 10.0385 7.46003 9.79036 7.44994C9.58714 7.44125 9.35483 7.44191 9.12273 7.44191C8.89042 7.44191 8.51297 7.52862 8.19392 7.87428C7.87455 8.22026 6.97461 9.05635 6.97461 10.7569C6.97461 12.4574 8.22291 14.1009 8.39692 14.3318C8.57116 14.5622 10.8068 18.1635 14.3475 19.549C17.2901 20.7003 17.8889 20.4713 18.5276 20.4136C19.1663 20.3561 20.5886 19.5777 20.8788 18.7706C21.1692 17.9636 21.1692 17.2719 21.0821 17.1273C20.9951 16.9833 20.7627 16.8968 20.4144 16.724C20.066 16.5512 18.3533 15.7149 18.0341 15.5996C17.7147 15.4843 17.4825 15.4268 17.2502 15.7729C17.0179 16.1184 16.3508 16.8968 16.1475 17.1273C15.9443 17.3584 15.741 17.3871 15.3928 17.2142C15.0442 17.0408 13.9223 16.6763 12.5913 15.4988C11.5558 14.5827 10.8567 13.4513 10.6534 13.1052C10.4502 12.7596 10.6317 12.5723 10.8063 12.4001C10.9629 12.2452 11.1548 11.9965 11.3292 11.7947C11.5028 11.5929 11.5608 11.4488 11.677 11.2183C11.7932 10.9876 11.735 10.7857 11.6481 10.6129C11.5608 10.44 10.8839 8.73056 10.5741 8.04716Z" fill="white"/>
</g>
<defs>
<linearGradient id="paint0_linear_8_1855" x1="1351.99" y1="2694.62" x2="1351.99" y2="0.48291" gradientUnits="userSpaceOnUse">
<stop stop-color="#1FAF38"/>
<stop offset="1" stop-color="#60D669"/>
</linearGradient>
<linearGradient id="paint1_linear_8_1855" x1="1400" y1="2790.74" x2="1400" y2="0" gradientUnits="userSpaceOnUse">
<stop stop-color="#F9F9F9"/>
<stop offset="1" stop-color="white"/>
</linearGradient>
<clipPath id="clip0_8_1855">
<rect width="28" height="28" fill="white"/>
</clipPath>
</defs>
</svg>
